<?xml version="1.0" encoding="utf-8" standalone="no"?>
<!DOCTYPE svg PUBLIC "-//W3C//DTD SVG 1.1//EN"
  "http://www.w3.org/Graphics/SVG/1.1/DTD/svg11.dtd">
<svg xmlns:xlink="http://www.w3.org/1999/xlink" width="336.34375pt" height="277.455877pt" viewBox="0 0 336.34375 277.455877" xmlns="http://www.w3.org/2000/svg" version="1.1">
 <metadata>
  <rdf:RDF xmlns:dc="http://purl.org/dc/elements/1.1/" xmlns:cc="http://creativecommons.org/ns#" xmlns:rdf="http://www.w3.org/1999/02/22-rdf-syntax-ns#">
   <cc:Work>
    <dc:type rdf:resource="http://purl.org/dc/dcmitype/StillImage"/>
    <dc:date>2023-04-19T15:02:24.575791</dc:date>
    <dc:format>image/svg+xml</dc:format>
    <dc:creator>
     <cc:Agent>
      <dc:title>Matplotlib v3.5.2, https://matplotlib.org/</dc:title>
     </cc:Agent>
    </dc:creator>
   </cc:Work>
  </rdf:RDF>
 </metadata>
 <defs>
  <style type="text/css">*{stroke-linejoin: round; stroke-linecap: butt}</style>
 </defs>
 <g id="figure_1">
  <g id="patch_1">
   <path d="M 0 277.455877 
L 336.34375 277.455877 
L 336.34375 0 
L 0 0 
L 0 277.455877 
z
" style="fill: none"/>
  </g>
  <g id="axes_1">
   <g id="patch_2">
    <path d="M 50.14375 224.64 
L 329.14375 224.64 
L 329.14375 7.2 
L 50.14375 7.2 
L 50.14375 224.64 
z
" style="fill: none"/>
   </g>
   <g id="PolyCollection_1">
    <defs>
     <path id="m2aa19a3338" d="M 70.209244 -141.784001 
L 69.935398 -141.784001 
L 69.883485 -142.806225 
L 69.816482 -143.82845 
L 69.731729 -144.850674 
L 69.626656 -145.872899 
L 69.498972 -146.895123 
L 69.346869 -147.917348 
L 69.169236 -148.939572 
L 68.96585 -149.961797 
L 68.737518 -150.984021 
L 68.486175 -152.006246 
L 68.214885 -153.02847 
L 67.927768 -154.050695 
L 67.629836 -155.072919 
L 67.326743 -156.095144 
L 67.024477 -157.117368 
L 66.729004 -158.139593 
L 66.4459 -159.161817 
L 66.179996 -160.184042 
L 65.935066 -161.206266 
L 65.713585 -162.228491 
L 65.51659 -163.250715 
L 65.343645 -164.27294 
L 65.192933 -165.295164 
L 65.061471 -166.317388 
L 64.945428 -167.339613 
L 64.840535 -168.361837 
L 64.742537 -169.384062 
L 64.647662 -170.406286 
L 64.553039 -171.428511 
L 64.457042 -172.450735 
L 64.359495 -173.47296 
L 64.261739 -174.495184 
L 64.166518 -175.517409 
L 64.077713 -176.539633 
L 63.999939 -177.561858 
L 63.938047 -178.584082 
L 63.896587 -179.606307 
L 63.879289 -180.628531 
L 63.888635 -181.650756 
L 63.925559 -182.67298 
L 63.989316 -183.695205 
L 64.077552 -184.717429 
L 64.186542 -185.739654 
L 64.311589 -186.761878 
L 64.447522 -187.784103 
L 64.589233 -188.806327 
L 64.732193 -189.828552 
L 64.872873 -190.850776 
L 65.009047 -191.873001 
L 65.139914 -192.895225 
L 65.266059 -193.91745 
L 65.389261 -194.939674 
L 65.512164 -195.961899 
L 65.637874 -196.984123 
L 65.76952 -198.006348 
L 65.909833 -199.028572 
L 66.06078 -200.050797 
L 66.223298 -201.073021 
L 66.397141 -202.095246 
L 66.580854 -203.11747 
L 66.771869 -204.139695 
L 66.966706 -205.161919 
L 67.161259 -206.184143 
L 67.351141 -207.206368 
L 67.532031 -208.228592 
L 67.700027 -209.250817 
L 67.851939 -210.273041 
L 67.985517 -211.295266 
L 68.099591 -212.31749 
L 68.194119 -213.339715 
L 68.270139 -214.361939 
L 68.329645 -215.384164 
L 68.375402 -216.406388 
L 68.410718 -217.428613 
L 68.439203 -218.450837 
L 68.464528 -219.473062 
L 68.490211 -220.495286 
L 68.519426 -221.517511 
L 68.554852 -222.539735 
L 68.598558 -223.56196 
L 68.651928 -224.584184 
L 68.71562 -225.606409 
L 68.789563 -226.628633 
L 68.872995 -227.650858 
L 68.96453 -228.673082 
L 69.062271 -229.695307 
L 69.163949 -230.717531 
L 69.267085 -231.739756 
L 69.369166 -232.76198 
L 69.467811 -233.784205 
L 69.560921 -234.806429 
L 69.646796 -235.828654 
L 69.724209 -236.850878 
L 69.792433 -237.873103 
L 69.851224 -238.895327 
L 69.900771 -239.917552 
L 69.941615 -240.939776 
L 69.974552 -241.962001 
L 70.000537 -242.984225 
L 70.144106 -242.984225 
L 70.144106 -242.984225 
L 70.170091 -241.962001 
L 70.203028 -240.939776 
L 70.243871 -239.917552 
L 70.293419 -238.895327 
L 70.35221 -237.873103 
L 70.420434 -236.850878 
L 70.497846 -235.828654 
L 70.583722 -234.806429 
L 70.676832 -233.784205 
L 70.775477 -232.76198 
L 70.877558 -231.739756 
L 70.980694 -230.717531 
L 71.082372 -229.695307 
L 71.180113 -228.673082 
L 71.271648 -227.650858 
L 71.35508 -226.628633 
L 71.429023 -225.606409 
L 71.492715 -224.584184 
L 71.546085 -223.56196 
L 71.589791 -222.539735 
L 71.625216 -221.517511 
L 71.654432 -220.495286 
L 71.680115 -219.473062 
L 71.70544 -218.450837 
L 71.733925 -217.428613 
L 71.769241 -216.406388 
L 71.814998 -215.384164 
L 71.874504 -214.361939 
L 71.950524 -213.339715 
L 72.045052 -212.31749 
L 72.159126 -211.295266 
L 72.292704 -210.273041 
L 72.444616 -209.250817 
L 72.612612 -208.228592 
L 72.793502 -207.206368 
L 72.983383 -206.184143 
L 73.177937 -205.161919 
L 73.372774 -204.139695 
L 73.563788 -203.11747 
L 73.747502 -202.095246 
L 73.921345 -201.073021 
L 74.083863 -200.050797 
L 74.23481 -199.028572 
L 74.375123 -198.006348 
L 74.506769 -196.984123 
L 74.632479 -195.961899 
L 74.755382 -194.939674 
L 74.878584 -193.91745 
L 75.004729 -192.895225 
L 75.135596 -191.873001 
L 75.27177 -190.850776 
L 75.41245 -189.828552 
L 75.555409 -188.806327 
L 75.697121 -187.784103 
L 75.833054 -186.761878 
L 75.958101 -185.739654 
L 76.067091 -184.717429 
L 76.155327 -183.695205 
L 76.219084 -182.67298 
L 76.256008 -181.650756 
L 76.265354 -180.628531 
L 76.248056 -179.606307 
L 76.206595 -178.584082 
L 76.144703 -177.561858 
L 76.06693 -176.539633 
L 75.978125 -175.517409 
L 75.882904 -174.495184 
L 75.785148 -173.47296 
L 75.687601 -172.450735 
L 75.591603 -171.428511 
L 75.496981 -170.406286 
L 75.402106 -169.384062 
L 75.304108 -168.361837 
L 75.199215 -167.339613 
L 75.083172 -166.317388 
L 74.95171 -165.295164 
L 74.800998 -164.27294 
L 74.628052 -163.250715 
L 74.431057 -162.228491 
L 74.209577 -161.206266 
L 73.964646 -160.184042 
L 73.698743 -159.161817 
L 73.415639 -158.139593 
L 73.120166 -157.117368 
L 72.8179 -156.095144 
L 72.514807 -155.072919 
L 72.216875 -154.050695 
L 71.929758 -153.02847 
L 71.658468 -152.006246 
L 71.407124 -150.984021 
L 71.178793 -149.961797 
L 70.975406 -148.939572 
L 70.797774 -147.917348 
L 70.645671 -146.895123 
L 70.517987 -145.872899 
L 70.412914 -144.850674 
L 70.328161 -143.82845 
L 70.261158 -142.806225 
L 70.209244 -141.784001 
z
" style="stroke: #5c5c5c; stroke-width: 1.5"/>
    </defs>
    <g clip-path="url(#pdb5a3b0939)">
     <use xlink:href="#m2aa19a3338" x="0" y="277.455877" style="fill: #cb6d67; stroke: #5c5c5c; stroke-width: 1.5"/>
    </g>
   </g>
   <g id="PolyCollection_2">
    <defs>
     <path id="meecfbd55d9" d="M 109.966008 -62.699513 
L 109.892921 -62.699513 
L 109.878538 -64.224683 
L 109.859644 -65.749852 
L 109.83526 -67.275021 
L 109.804337 -68.80019 
L 109.76579 -70.325359 
L 109.718543 -71.850528 
L 109.661588 -73.375697 
L 109.594036 -74.900866 
L 109.515179 -76.426035 
L 109.424545 -77.951204 
L 109.321935 -79.476373 
L 109.20746 -81.001542 
L 109.081555 -82.526711 
L 108.944975 -84.05188 
L 108.798785 -85.577049 
L 108.644332 -87.102218 
L 108.483215 -88.627387 
L 108.31725 -90.152556 
L 108.148437 -91.677725 
L 107.978927 -93.202894 
L 107.810985 -94.728063 
L 107.64695 -96.253232 
L 107.489179 -97.778401 
L 107.339977 -99.30357 
L 107.201507 -100.828739 
L 107.075685 -102.353908 
L 106.964068 -103.879077 
L 106.867752 -105.404247 
L 106.787293 -106.929416 
L 106.722664 -108.454585 
L 106.673268 -109.979754 
L 106.638006 -111.504923 
L 106.615392 -113.030092 
L 106.603704 -114.555261 
L 106.60114 -116.08043 
L 106.605966 -117.605599 
L 106.616616 -119.130768 
L 106.631739 -120.655937 
L 106.650185 -122.181106 
L 106.670938 -123.706275 
L 106.693021 -125.231444 
L 106.715401 -126.756613 
L 106.736921 -128.281782 
L 106.756295 -129.806951 
L 106.772168 -131.33212 
L 106.783242 -132.857289 
L 106.788459 -134.382458 
L 106.787191 -135.907627 
L 106.779411 -137.432796 
L 106.765805 -138.957965 
L 106.747783 -140.483134 
L 106.727396 -142.008303 
L 106.707135 -143.533472 
L 106.689666 -145.058641 
L 106.677516 -146.583811 
L 106.672779 -148.10898 
L 106.676871 -149.634149 
L 106.690389 -151.159318 
L 106.713097 -152.684487 
L 106.744026 -154.209656 
L 106.781692 -155.734825 
L 106.824375 -157.259994 
L 106.870428 -158.785163 
L 106.918552 -160.310332 
L 106.967993 -161.835501 
L 107.018647 -163.36067 
L 107.071033 -164.885839 
L 107.126171 -166.411008 
L 107.185378 -167.936177 
L 107.250023 -169.461346 
L 107.321289 -170.986515 
L 107.39998 -172.511684 
L 107.486402 -174.036853 
L 107.580338 -175.562022 
L 107.681097 -177.087191 
L 107.787642 -178.61236 
L 107.898738 -180.137529 
L 108.01312 -181.662698 
L 108.129625 -183.187867 
L 108.247276 -184.713036 
L 108.365316 -186.238205 
L 108.483179 -187.763375 
L 108.600419 -189.288544 
L 108.716626 -190.813713 
L 108.831329 -192.338882 
L 108.943932 -193.864051 
L 109.053677 -195.38922 
L 109.15965 -196.914389 
L 109.26083 -198.439558 
L 109.35616 -199.964727 
L 109.444642 -201.489896 
L 109.525428 -203.015065 
L 109.597896 -204.540234 
L 109.6617 -206.065403 
L 109.716796 -207.590572 
L 109.763431 -209.115741 
L 109.802104 -210.64091 
L 109.833514 -212.166079 
L 109.858493 -213.691248 
L 110.000435 -213.691248 
L 110.000435 -213.691248 
L 110.025414 -212.166079 
L 110.056824 -210.64091 
L 110.095497 -209.115741 
L 110.142132 -207.590572 
L 110.197229 -206.065403 
L 110.261033 -204.540234 
L 110.3335 -203.015065 
L 110.414286 -201.489896 
L 110.502769 -199.964727 
L 110.598099 -198.439558 
L 110.699278 -196.914389 
L 110.805252 -195.38922 
L 110.914996 -193.864051 
L 111.027599 -192.338882 
L 111.142303 -190.813713 
L 111.258509 -189.288544 
L 111.37575 -187.763375 
L 111.493612 -186.238205 
L 111.611653 -184.713036 
L 111.729304 -183.187867 
L 111.845808 -181.662698 
L 111.960191 -180.137529 
L 112.071287 -178.61236 
L 112.177831 -177.087191 
L 112.278591 -175.562022 
L 112.372527 -174.036853 
L 112.458949 -172.511684 
L 112.537639 -170.986515 
L 112.608905 -169.461346 
L 112.67355 -167.936177 
L 112.732758 -166.411008 
L 112.787896 -164.885839 
L 112.840282 -163.36067 
L 112.890935 -161.835501 
L 112.940377 -160.310332 
L 112.9885 -158.785163 
L 113.034554 -157.259994 
L 113.077237 -155.734825 
L 113.114902 -154.209656 
L 113.145831 -152.684487 
L 113.168539 -151.159318 
L 113.182058 -149.634149 
L 113.186149 -148.10898 
L 113.181412 -146.583811 
L 113.169263 -145.058641 
L 113.151794 -143.533472 
L 113.131533 -142.008303 
L 113.111145 -140.483134 
L 113.093124 -138.957965 
L 113.079517 -137.432796 
L 113.071737 -135.907627 
L 113.070469 -134.382458 
L 113.075686 -132.857289 
L 113.086761 -131.33212 
L 113.102633 -129.806951 
L 113.122008 -128.281782 
L 113.143528 -126.756613 
L 113.165907 -125.231444 
L 113.18799 -123.706275 
L 113.208743 -122.181106 
L 113.227189 -120.655937 
L 113.242313 -119.130768 
L 113.252963 -117.605599 
L 113.257789 -116.08043 
L 113.255225 -114.555261 
L 113.243537 -113.030092 
L 113.220923 -111.504923 
L 113.185661 -109.979754 
L 113.136265 -108.454585 
L 113.071635 -106.929416 
L 112.991176 -105.404247 
L 112.894861 -103.879077 
L 112.783244 -102.353908 
L 112.657421 -100.828739 
L 112.518951 -99.30357 
L 112.36975 -97.778401 
L 112.211979 -96.253232 
L 112.047944 -94.728063 
L 111.880002 -93.202894 
L 111.710491 -91.677725 
L 111.541679 -90.152556 
L 111.375714 -88.627387 
L 111.214596 -87.102218 
L 111.060143 -85.577049 
L 110.913953 -84.05188 
L 110.777374 -82.526711 
L 110.651468 -81.001542 
L 110.536994 -79.476373 
L 110.434384 -77.951204 
L 110.343749 -76.426035 
L 110.264893 -74.900866 
L 110.197341 -73.375697 
L 110.140385 -71.850528 
L 110.093139 -70.325359 
L 110.054591 -68.80019 
L 110.023668 -67.275021 
L 109.999284 -65.749852 
L 109.98039 -64.224683 
L 109.966008 -62.699513 
z
" style="stroke: #5c5c5c; stroke-width: 1.5"/>
    </defs>
    <g clip-path="url(#pdb5a3b0939)">
     <use xlink:href="#meecfbd55d9" x="0" y="277.455877" style="fill: #cbc267; stroke: #5c5c5c; stroke-width: 1.5"/>
    </g>
   </g>
   <g id="PolyCollection_3">
    <defs>
     <path id="m52ba5054fa" d="M 149.883907 -177.771544 
L 149.689307 -177.771544 
L 149.654685 -178.387197 
L 149.611388 -179.002849 
L 149.558545 -179.618501 
L 149.495598 -180.234154 
L 149.42241 -180.849806 
L 149.339335 -181.465458 
L 149.247253 -182.081111 
L 149.14754 -182.696763 
L 149.041985 -183.312415 
L 148.93264 -183.928068 
L 148.821631 -184.54372 
L 148.710935 -185.159372 
L 148.602167 -185.775025 
L 148.496381 -186.390677 
L 148.393928 -187.00633 
L 148.294382 -187.621982 
L 148.196538 -188.237634 
L 148.098492 -188.853287 
L 147.997783 -189.468939 
L 147.891596 -190.084591 
L 147.77699 -190.700244 
L 147.651141 -191.315896 
L 147.511567 -191.931548 
L 147.356321 -192.547201 
L 147.18413 -193.162853 
L 146.994472 -193.778505 
L 146.787579 -194.394158 
L 146.564379 -195.00981 
L 146.326367 -195.625463 
L 146.075428 -196.241115 
L 145.813622 -196.856767 
L 145.542941 -197.47242 
L 145.265071 -198.088072 
L 144.981168 -198.703724 
L 144.691671 -199.319377 
L 144.396197 -199.935029 
L 144.09353 -200.550681 
L 143.781735 -201.166334 
L 143.458427 -201.781986 
L 143.121174 -202.397638 
L 142.76803 -203.013291 
L 142.398125 -203.628943 
L 142.012254 -204.244596 
L 141.613354 -204.860248 
L 141.206774 -205.4759 
L 140.800264 -206.091553 
L 140.403626 -206.707205 
L 140.028038 -207.322857 
L 139.685115 -207.93851 
L 139.385786 -208.554162 
L 139.139167 -209.169814 
L 138.951532 -209.785467 
L 138.825568 -210.401119 
L 138.759978 -211.016771 
L 138.749513 -211.632424 
L 138.785429 -212.248076 
L 138.856331 -212.863729 
L 138.949313 -213.479381 
L 139.051291 -214.095033 
L 139.150391 -214.710686 
L 139.23727 -215.326338 
L 139.306212 -215.94199 
L 139.355897 -216.557643 
L 139.389724 -217.173295 
L 139.415634 -217.788947 
L 139.4454 -218.4046 
L 139.493448 -219.020252 
L 139.57531 -219.635904 
L 139.705885 -220.251557 
L 139.897723 -220.867209 
L 140.159553 -221.482862 
L 140.49525 -222.098514 
L 140.903386 -222.714166 
L 141.3774 -223.329819 
L 141.906358 -223.945471 
L 142.476158 -224.561123 
L 143.070994 -225.176776 
L 143.674869 -225.792428 
L 144.272936 -226.40808 
L 144.852537 -227.023733 
L 145.403824 -227.639385 
L 145.919972 -228.255037 
L 146.397021 -228.87069 
L 146.833438 -229.486342 
L 147.229538 -230.101994 
L 147.586864 -230.717647 
L 147.907619 -231.333299 
L 148.194235 -231.948952 
L 148.449082 -232.564604 
L 148.674329 -233.180256 
L 148.871919 -233.795909 
L 149.043636 -234.411561 
L 149.191194 -235.027213 
L 149.316333 -235.642866 
L 149.420891 -236.258518 
L 149.506829 -236.87417 
L 149.576221 -237.489823 
L 149.631207 -238.105475 
L 149.673927 -238.721127 
L 149.899288 -238.721127 
L 149.899288 -238.721127 
L 149.942007 -238.105475 
L 149.996994 -237.489823 
L 150.066386 -236.87417 
L 150.152323 -236.258518 
L 150.256881 -235.642866 
L 150.38202 -235.027213 
L 150.529578 -234.411561 
L 150.701295 -233.795909 
L 150.898886 -233.180256 
L 151.124132 -232.564604 
L 151.378979 -231.948952 
L 151.665596 -231.333299 
L 151.986351 -230.717647 
L 152.343676 -230.101994 
L 152.739776 -229.486342 
L 153.176193 -228.87069 
L 153.653242 -228.255037 
L 154.169391 -227.639385 
L 154.720678 -227.023733 
L 155.300278 -226.40808 
L 155.898345 -225.792428 
L 156.50222 -225.176776 
L 157.097056 -224.561123 
L 157.666856 -223.945471 
L 158.195814 -223.329819 
L 158.669828 -222.714166 
L 159.077964 -222.098514 
L 159.413661 -221.482862 
L 159.675491 -220.867209 
L 159.867329 -220.251557 
L 159.997905 -219.635904 
L 160.079767 -219.020252 
L 160.127815 -218.4046 
L 160.15758 -217.788947 
L 160.18349 -217.173295 
L 160.217318 -216.557643 
L 160.267002 -215.94199 
L 160.335944 -215.326338 
L 160.422823 -214.710686 
L 160.521924 -214.095033 
L 160.623901 -213.479381 
L 160.716883 -212.863729 
L 160.787785 -212.248076 
L 160.823701 -211.632424 
L 160.813236 -211.016771 
L 160.747646 -210.401119 
L 160.621682 -209.785467 
L 160.434048 -209.169814 
L 160.187428 -208.554162 
L 159.8881 -207.93851 
L 159.545176 -207.322857 
L 159.169589 -206.707205 
L 158.77295 -206.091553 
L 158.36644 -205.4759 
L 157.95986 -204.860248 
L 157.560961 -204.244596 
L 157.17509 -203.628943 
L 156.805184 -203.013291 
L 156.45204 -202.397638 
L 156.114787 -201.781986 
L 155.791479 -201.166334 
L 155.479685 -200.550681 
L 155.177017 -199.935029 
L 154.881543 -199.319377 
L 154.592046 -198.703724 
L 154.308143 -198.088072 
L 154.030273 -197.47242 
L 153.759592 -196.856767 
L 153.497786 -196.241115 
L 153.246847 -195.625463 
L 153.008835 -195.00981 
L 152.785635 -194.394158 
L 152.578742 -193.778505 
L 152.389084 -193.162853 
L 152.216893 -192.547201 
L 152.061648 -191.931548 
L 151.922074 -191.315896 
L 151.796225 -190.700244 
L 151.681619 -190.084591 
L 151.575431 -189.468939 
L 151.474723 -188.853287 
L 151.376676 -188.237634 
L 151.278833 -187.621982 
L 151.179287 -187.00633 
L 151.076834 -186.390677 
L 150.971047 -185.775025 
L 150.862279 -185.159372 
L 150.751584 -184.54372 
L 150.640574 -183.928068 
L 150.53123 -183.312415 
L 150.425674 -182.696763 
L 150.325961 -182.081111 
L 150.233879 -181.465458 
L 150.150804 -180.849806 
L 150.077616 -180.234154 
L 150.01467 -179.618501 
L 149.961826 -179.002849 
L 149.918529 -178.387197 
L 149.883907 -177.771544 
z
" style="stroke: #5c5c5c; stroke-width: 1.5"/>
    </defs>
    <g clip-path="url(#pdb5a3b0939)">
     <use xlink:href="#m52ba5054fa" x="0" y="277.455877" style="fill: #7ecb67; stroke: #5c5c5c; stroke-width: 1.5"/>
    </g>
   </g>
   <g id="PolyCollection_4">
    <defs>
     <path id="m819f731da5" d="M 189.736991 -166.323144 
L 189.550509 -166.323144 
L 189.516523 -167.024077 
L 189.473236 -167.72501 
L 189.419215 -168.425943 
L 189.353154 -169.126876 
L 189.273986 -169.827809 
L 189.181017 -170.528742 
L 189.074043 -171.229675 
L 188.953465 -171.930608 
L 188.820374 -172.631541 
L 188.676594 -173.332474 
L 188.524687 -174.033407 
L 188.367885 -174.73434 
L 188.209971 -175.435273 
L 188.055087 -176.136206 
L 187.907495 -176.837139 
L 187.771295 -177.538072 
L 187.650124 -178.239005 
L 187.546885 -178.939938 
L 187.463504 -179.640871 
L 187.400792 -180.341804 
L 187.358396 -181.042737 
L 187.334877 -181.74367 
L 187.327895 -182.444603 
L 187.334479 -183.145536 
L 187.35135 -183.846469 
L 187.375238 -184.547402 
L 187.403155 -185.248335 
L 187.432578 -185.949268 
L 187.461515 -186.650201 
L 187.488471 -187.351134 
L 187.512297 -188.052067 
L 187.531989 -188.753 
L 187.54645 -189.453933 
L 187.554269 -190.154866 
L 187.55353 -190.855799 
L 187.54169 -191.556732 
L 187.515509 -192.257665 
L 187.471034 -192.958598 
L 187.403632 -193.659531 
L 187.308051 -194.360464 
L 187.178532 -195.061397 
L 187.008951 -195.76233 
L 186.793046 -196.463263 
L 186.52472 -197.164196 
L 186.198447 -197.865129 
L 185.809789 -198.566062 
L 185.355979 -199.266995 
L 184.836544 -199.967927 
L 184.253892 -200.66886 
L 183.613768 -201.369793 
L 182.925519 -202.070726 
L 182.20207 -202.771659 
L 181.459584 -203.472592 
L 180.7168 -204.173525 
L 179.994069 -204.874458 
L 179.31218 -205.575391 
L 178.691073 -206.276324 
L 178.148563 -206.977257 
L 177.699216 -207.67819 
L 177.353471 -208.379123 
L 177.117108 -209.080056 
L 176.991119 -209.780989 
L 176.971958 -210.481922 
L 177.05217 -211.182855 
L 177.221288 -211.883788 
L 177.466919 -212.584721 
L 177.775877 -213.285654 
L 178.135254 -213.986587 
L 178.533305 -214.68752 
L 178.960092 -215.388453 
L 179.407808 -216.089386 
L 179.870818 -216.790319 
L 180.345422 -217.491252 
L 180.829431 -218.192185 
L 181.321633 -218.893118 
L 181.821236 -219.594051 
L 182.327375 -220.294984 
L 182.838734 -220.995917 
L 183.353311 -221.69685 
L 183.868336 -222.397783 
L 184.380316 -223.098716 
L 184.885184 -223.799649 
L 185.378504 -224.500582 
L 185.855707 -225.201515 
L 186.312328 -225.902448 
L 186.744225 -226.603381 
L 187.147764 -227.304314 
L 187.519979 -228.005247 
L 187.858685 -228.70618 
L 188.162557 -229.407113 
L 188.431162 -230.108046 
L 188.66494 -230.808979 
L 188.865151 -231.509912 
L 189.033767 -232.210845 
L 189.173335 -232.911778 
L 189.286815 -233.61271 
L 189.377406 -234.313643 
L 189.44838 -235.014576 
L 189.502929 -235.715509 
L 189.784571 -235.715509 
L 189.784571 -235.715509 
L 189.83912 -235.014576 
L 189.910094 -234.313643 
L 190.000685 -233.61271 
L 190.114165 -232.911778 
L 190.253733 -232.210845 
L 190.422349 -231.509912 
L 190.62256 -230.808979 
L 190.856338 -230.108046 
L 191.124943 -229.407113 
L 191.428815 -228.70618 
L 191.767521 -228.005247 
L 192.139736 -227.304314 
L 192.543275 -226.603381 
L 192.975172 -225.902448 
L 193.431793 -225.201515 
L 193.908996 -224.500582 
L 194.402316 -223.799649 
L 194.907184 -223.098716 
L 195.419164 -222.397783 
L 195.934189 -221.69685 
L 196.448766 -220.995917 
L 196.960125 -220.294984 
L 197.466264 -219.594051 
L 197.965867 -218.893118 
L 198.458069 -218.192185 
L 198.942078 -217.491252 
L 199.416682 -216.790319 
L 199.879692 -216.089386 
L 200.327408 -215.388453 
L 200.754195 -214.68752 
L 201.152246 -213.986587 
L 201.511623 -213.285654 
L 201.820581 -212.584721 
L 202.066212 -211.883788 
L 202.23533 -211.182855 
L 202.315542 -210.481922 
L 202.296381 -209.780989 
L 202.170392 -209.080056 
L 201.934029 -208.379123 
L 201.588284 -207.67819 
L 201.138937 -206.977257 
L 200.596427 -206.276324 
L 199.97532 -205.575391 
L 199.293431 -204.874458 
L 198.5707 -204.173525 
L 197.827916 -203.472592 
L 197.08543 -202.771659 
L 196.361981 -202.070726 
L 195.673732 -201.369793 
L 195.033608 -200.66886 
L 194.450956 -199.967927 
L 193.931521 -199.266995 
L 193.477711 -198.566062 
L 193.089053 -197.865129 
L 192.76278 -197.164196 
L 192.494454 -196.463263 
L 192.278549 -195.76233 
L 192.108968 -195.061397 
L 191.979449 -194.360464 
L 191.883868 -193.659531 
L 191.816466 -192.958598 
L 191.771991 -192.257665 
L 191.74581 -191.556732 
L 191.73397 -190.855799 
L 191.733231 -190.154866 
L 191.74105 -189.453933 
L 191.755511 -188.753 
L 191.775203 -188.052067 
L 191.799029 -187.351134 
L 191.825985 -186.650201 
L 191.854922 -185.949268 
L 191.884345 -185.248335 
L 191.912262 -184.547402 
L 191.93615 -183.846469 
L 191.953021 -183.145536 
L 191.959605 -182.444603 
L 191.952623 -181.74367 
L 191.929104 -181.042737 
L 191.886708 -180.341804 
L 191.823996 -179.640871 
L 191.740615 -178.939938 
L 191.637376 -178.239005 
L 191.516205 -177.538072 
L 191.380005 -176.837139 
L 191.232413 -176.136206 
L 191.077529 -175.435273 
L 190.919615 -174.73434 
L 190.762813 -174.033407 
L 190.610906 -173.332474 
L 190.467126 -172.631541 
L 190.334035 -171.930608 
L 190.213457 -171.229675 
L 190.106483 -170.528742 
L 190.013514 -169.827809 
L 189.934346 -169.126876 
L 189.868285 -168.425943 
L 189.814264 -167.72501 
L 189.770977 -167.024077 
L 189.736991 -166.323144 
z
" style="stroke: #5c5c5c; stroke-width: 1.5"/>
    </defs>
    <g clip-path="url(#pdb5a3b0939)">
     <use xlink:href="#m819f731da5" x="0" y="277.455877" style="fill: #67cba6; stroke: #5c5c5c; stroke-width: 1.5"/>
    </g>
   </g>
   <g id="PolyCollection_5">
    <defs>
     <path id="maf01780abe" d="M 229.594448 -172.168069 
L 229.407338 -172.168069 
L 229.380628 -173.05902 
L 229.348828 -173.949972 
L 229.31176 -174.840923 
L 229.269473 -175.731874 
L 229.222288 -176.622825 
L 229.170818 -177.513777 
L 229.115962 -178.404728 
L 229.058867 -179.295679 
L 229.000855 -180.18663 
L 228.943305 -181.077582 
L 228.887523 -181.968533 
L 228.834571 -182.859484 
L 228.785114 -183.750435 
L 228.739271 -184.641386 
L 228.696504 -185.532338 
L 228.655567 -186.423289 
L 228.614518 -187.31424 
L 228.570821 -188.205191 
L 228.521516 -189.096143 
L 228.463472 -189.987094 
L 228.393684 -190.878045 
L 228.309605 -191.768996 
L 228.209466 -192.659947 
L 228.092561 -193.550899 
L 227.959452 -194.44185 
L 227.812068 -195.332801 
L 227.653671 -196.223752 
L 227.488693 -197.114704 
L 227.322422 -198.005655 
L 227.160582 -198.896606 
L 227.008825 -199.787557 
L 226.872176 -200.678509 
L 226.754499 -201.56946 
L 226.658029 -202.460411 
L 226.583017 -203.351362 
L 226.527546 -204.242313 
L 226.48754 -205.133265 
L 226.456969 -206.024216 
L 226.428256 -206.915167 
L 226.392852 -207.806118 
L 226.341922 -208.69707 
L 226.267093 -209.588021 
L 226.16119 -210.478972 
L 226.018892 -211.369923 
L 225.837233 -212.260874 
L 225.615912 -213.151826 
L 225.357372 -214.042777 
L 225.066639 -214.933728 
L 224.750931 -215.824679 
L 224.419092 -216.715631 
L 224.080889 -217.606582 
L 223.746255 -218.497533 
L 223.424557 -219.388484 
L 223.12394 -220.279436 
L 222.850838 -221.170387 
L 222.60966 -222.061338 
L 222.402688 -222.952289 
L 222.230181 -223.84324 
L 222.090641 -224.734192 
L 221.981219 -225.625143 
L 221.898193 -226.516094 
L 221.837474 -227.407045 
L 221.795082 -228.297997 
L 221.767566 -229.188948 
L 221.752326 -230.079899 
L 221.747841 -230.97085 
L 221.753774 -231.861801 
L 221.770989 -232.752753 
L 221.80146 -233.643704 
L 221.848107 -234.534655 
L 221.914553 -235.425606 
L 222.004826 -236.316558 
L 222.123029 -237.207509 
L 222.272971 -238.09846 
L 222.457817 -238.989411 
L 222.679746 -239.880363 
L 222.939672 -240.771314 
L 223.237038 -241.662265 
L 223.569706 -242.553216 
L 223.933961 -243.444167 
L 224.324638 -244.335119 
L 224.735347 -245.22607 
L 225.158803 -246.117021 
L 225.587204 -247.007972 
L 226.012661 -247.898924 
L 226.427599 -248.789875 
L 226.82514 -249.680826 
L 227.199405 -250.571777 
L 227.545732 -251.462728 
L 227.8608 -252.35368 
L 228.142651 -253.244631 
L 228.390627 -254.135582 
L 228.605232 -255.026533 
L 228.787946 -255.917485 
L 228.941001 -256.808436 
L 229.067158 -257.699387 
L 229.169487 -258.590338 
L 229.251171 -259.48129 
L 229.315343 -260.372241 
L 229.686443 -260.372241 
L 229.686443 -260.372241 
L 229.750614 -259.48129 
L 229.832298 -258.590338 
L 229.934628 -257.699387 
L 230.060785 -256.808436 
L 230.21384 -255.917485 
L 230.396553 -255.026533 
L 230.611159 -254.135582 
L 230.859135 -253.244631 
L 231.140986 -252.35368 
L 231.456054 -251.462728 
L 231.802381 -250.571777 
L 232.176645 -249.680826 
L 232.574187 -248.789875 
L 232.989125 -247.898924 
L 233.414581 -247.007972 
L 233.842983 -246.117021 
L 234.266438 -245.22607 
L 234.677148 -244.335119 
L 235.067825 -243.444167 
L 235.43208 -242.553216 
L 235.764747 -241.662265 
L 236.062113 -240.771314 
L 236.32204 -239.880363 
L 236.543969 -238.989411 
L 236.728814 -238.09846 
L 236.878757 -237.207509 
L 236.996959 -236.316558 
L 237.087233 -235.425606 
L 237.153679 -234.534655 
L 237.200326 -233.643704 
L 237.230797 -232.752753 
L 237.248012 -231.861801 
L 237.253945 -230.97085 
L 237.249459 -230.079899 
L 237.23422 -229.188948 
L 237.206704 -228.297997 
L 237.164312 -227.407045 
L 237.103593 -226.516094 
L 237.020567 -225.625143 
L 236.911145 -224.734192 
L 236.771605 -223.84324 
L 236.599097 -222.952289 
L 236.392126 -222.061338 
L 236.150947 -221.170387 
L 235.877846 -220.279436 
L 235.577229 -219.388484 
L 235.255531 -218.497533 
L 234.920897 -217.606582 
L 234.582693 -216.715631 
L 234.250854 -215.824679 
L 233.935147 -214.933728 
L 233.644413 -214.042777 
L 233.385874 -213.151826 
L 233.164553 -212.260874 
L 232.982894 -211.369923 
L 232.840595 -210.478972 
L 232.734693 -209.588021 
L 232.659864 -208.69707 
L 232.608934 -207.806118 
L 232.57353 -206.915167 
L 232.544817 -206.024216 
L 232.514246 -205.133265 
L 232.474239 -204.242313 
L 232.418769 -203.351362 
L 232.343757 -202.460411 
L 232.247286 -201.56946 
L 232.12961 -200.678509 
L 231.992961 -199.787557 
L 231.841203 -198.896606 
L 231.679364 -198.005655 
L 231.513093 -197.114704 
L 231.348115 -196.223752 
L 231.189718 -195.332801 
L 231.042333 -194.44185 
L 230.909225 -193.550899 
L 230.79232 -192.659947 
L 230.692181 -191.768996 
L 230.608102 -190.878045 
L 230.538314 -189.987094 
L 230.48027 -189.096143 
L 230.430965 -188.205191 
L 230.387268 -187.31424 
L 230.346219 -186.423289 
L 230.305281 -185.532338 
L 230.262514 -184.641386 
L 230.216671 -183.750435 
L 230.167215 -182.859484 
L 230.114263 -181.968533 
L 230.05848 -181.077582 
L 230.000931 -180.18663 
L 229.942918 -179.295679 
L 229.885824 -178.404728 
L 229.830968 -177.513777 
L 229.779497 -176.622825 
L 229.732313 -175.731874 
L 229.690026 -174.840923 
L 229.652958 -173.949972 
L 229.621158 -173.05902 
L 229.594448 -172.168069 
z
" style="stroke: #5c5c5c; stroke-width: 1.5"/>
    </defs>
    <g clip-path="url(#pdb5a3b0939)">
     <use xlink:href="#maf01780abe" x="0" y="277.455877" style="fill: #679acb; stroke: #5c5c5c; stroke-width: 1.5"/>
    </g>
   </g>
   <g id="PolyCollection_6">
    <defs>
     <path id="m073f631f85" d="M 269.515886 -198.369084 
L 269.200185 -198.369084 
L 269.141668 -198.751477 
L 269.06638 -199.133869 
L 268.971234 -199.516262 
L 268.853069 -199.898655 
L 268.708779 -200.281047 
L 268.535446 -200.66344 
L 268.330496 -201.045833 
L 268.091838 -201.428225 
L 267.817999 -201.810618 
L 267.508229 -202.193011 
L 267.162573 -202.575403 
L 266.781889 -202.957796 
L 266.367819 -203.340188 
L 265.92268 -203.722581 
L 265.449312 -204.104974 
L 264.950851 -204.487366 
L 264.430494 -204.869759 
L 263.891261 -205.252152 
L 263.335816 -205.634544 
L 262.766385 -206.016937 
L 262.184815 -206.39933 
L 261.592789 -206.781722 
L 260.992171 -207.164115 
L 260.385449 -207.546508 
L 259.776186 -207.9289 
L 259.169382 -208.311293 
L 258.571656 -208.693686 
L 257.991166 -209.076078 
L 257.437239 -209.458471 
L 256.91973 -209.840864 
L 256.448174 -210.223256 
L 256.030851 -210.605649 
L 255.673883 -210.988042 
L 255.380501 -211.370434 
L 255.150565 -211.752827 
L 254.980423 -212.13522 
L 254.863097 -212.517612 
L 254.788786 -212.900005 
L 254.745621 -213.282398 
L 254.720605 -213.66479 
L 254.700657 -214.047183 
L 254.673663 -214.429576 
L 254.629486 -214.811968 
L 254.560839 -215.194361 
L 254.463949 -215.576754 
L 254.338976 -215.959146 
L 254.190104 -216.341539 
L 254.025311 -216.723932 
L 253.855805 -217.106324 
L 253.695175 -217.488717 
L 253.558331 -217.87111 
L 253.460326 -218.253502 
L 253.415179 -218.635895 
L 253.434794 -219.018288 
L 253.528087 -219.40068 
L 253.700362 -219.783073 
L 253.953002 -220.165466 
L 254.283479 -220.547858 
L 254.685655 -220.930251 
L 255.150368 -221.312644 
L 255.666215 -221.695036 
L 256.220483 -222.077429 
L 256.800119 -222.459822 
L 257.392662 -222.842214 
L 257.987026 -223.224607 
L 258.574063 -223.607 
L 259.146851 -223.989392 
L 259.700687 -224.371785 
L 260.232831 -224.754177 
L 260.742053 -225.13657 
L 261.228098 -225.518963 
L 261.69118 -225.901355 
L 262.131598 -226.283748 
L 262.549544 -226.666141 
L 262.945129 -227.048533 
L 263.318574 -227.430926 
L 263.670516 -227.813319 
L 264.002315 -228.195711 
L 264.316254 -228.578104 
L 264.615572 -228.960497 
L 264.90428 -229.342889 
L 265.186779 -229.725282 
L 265.467333 -230.107675 
L 265.749499 -230.490067 
L 266.035611 -230.87246 
L 266.326418 -231.254853 
L 266.620934 -231.637245 
L 266.916534 -232.019638 
L 267.209266 -232.402031 
L 267.49433 -232.784423 
L 267.76664 -233.166816 
L 268.021387 -233.549209 
L 268.254516 -233.931601 
L 268.463073 -234.313994 
L 268.645388 -234.696387 
L 268.801092 -235.078779 
L 268.930998 -235.461172 
L 269.036877 -235.843565 
L 269.121187 -236.225957 
L 269.594884 -236.225957 
L 269.594884 -236.225957 
L 269.679194 -235.843565 
L 269.785074 -235.461172 
L 269.91498 -235.078779 
L 270.070684 -234.696387 
L 270.252999 -234.313994 
L 270.461556 -233.931601 
L 270.694684 -233.549209 
L 270.949431 -233.166816 
L 271.221742 -232.784423 
L 271.506805 -232.402031 
L 271.799537 -232.019638 
L 272.095137 -231.637245 
L 272.389653 -231.254853 
L 272.68046 -230.87246 
L 272.966572 -230.490067 
L 273.248738 -230.107675 
L 273.529292 -229.725282 
L 273.811791 -229.342889 
L 274.1005 -228.960497 
L 274.399818 -228.578104 
L 274.713756 -228.195711 
L 275.045555 -227.813319 
L 275.397498 -227.430926 
L 275.770942 -227.048533 
L 276.166527 -226.666141 
L 276.584474 -226.283748 
L 277.024891 -225.901355 
L 277.487974 -225.518963 
L 277.974019 -225.13657 
L 278.48324 -224.754177 
L 279.015385 -224.371785 
L 279.569221 -223.989392 
L 280.142008 -223.607 
L 280.729045 -223.224607 
L 281.323409 -222.842214 
L 281.915952 -222.459822 
L 282.495588 -222.077429 
L 283.049856 -221.695036 
L 283.565704 -221.312644 
L 284.030416 -220.930251 
L 284.432593 -220.547858 
L 284.763069 -220.165466 
L 285.01571 -219.783073 
L 285.187984 -219.40068 
L 285.281277 -219.018288 
L 285.300893 -218.635895 
L 285.255745 -218.253502 
L 285.15774 -217.87111 
L 285.020896 -217.488717 
L 284.860267 -217.106324 
L 284.690761 -216.723932 
L 284.525968 -216.341539 
L 284.377096 -215.959146 
L 284.252122 -215.576754 
L 284.155233 -215.194361 
L 284.086585 -214.811968 
L 284.042409 -214.429576 
L 284.015415 -214.047183 
L 283.995466 -213.66479 
L 283.970451 -213.282398 
L 283.927285 -212.900005 
L 283.852974 -212.517612 
L 283.735648 -212.13522 
L 283.565507 -211.752827 
L 283.335571 -211.370434 
L 283.042188 -210.988042 
L 282.685221 -210.605649 
L 282.267898 -210.223256 
L 281.796342 -209.840864 
L 281.278832 -209.458471 
L 280.724905 -209.076078 
L 280.144415 -208.693686 
L 279.546689 -208.311293 
L 278.939886 -207.9289 
L 278.330623 -207.546508 
L 277.7239 -207.164115 
L 277.123282 -206.781722 
L 276.531256 -206.39933 
L 275.949687 -206.016937 
L 275.380256 -205.634544 
L 274.82481 -205.252152 
L 274.285578 -204.869759 
L 273.765221 -204.487366 
L 273.26676 -204.104974 
L 272.793391 -203.722581 
L 272.348253 -203.340188 
L 271.934182 -202.957796 
L 271.553498 -202.575403 
L 271.207842 -202.193011 
L 270.898072 -201.810618 
L 270.624234 -201.428225 
L 270.385576 -201.045833 
L 270.180625 -200.66344 
L 270.007292 -200.281047 
L 269.863002 -199.898655 
L 269.744838 -199.516262 
L 269.649692 -199.133869 
L 269.574403 -198.751477 
L 269.515886 -198.369084 
z
" style="stroke: #5c5c5c; stroke-width: 1.5"/>
    </defs>
    <g clip-path="url(#pdb5a3b0939)">
     <use xlink:href="#m073f631f85" x="0" y="277.455877" style="fill: #8a67cb; stroke: #5c5c5c; stroke-width: 1.5"/>
    </g>
   </g>
   <g id="PolyCollection_7">
    <defs>
     <path id="mad20bb5614" d="M 309.260742 -153.971739 
L 309.169615 -153.971739 
L 309.150019 -154.815108 
L 309.124235 -155.658477 
L 309.091214 -156.501846 
L 309.050014 -157.345215 
L 308.999883 -158.188584 
L 308.940312 -159.031953 
L 308.87106 -159.875322 
L 308.792123 -160.718691 
L 308.703656 -161.56206 
L 308.605845 -162.405429 
L 308.498759 -163.248798 
L 308.382193 -164.092167 
L 308.255563 -164.935536 
L 308.117857 -165.778905 
L 307.967691 -166.622274 
L 307.803468 -167.465643 
L 307.623621 -168.309012 
L 307.426916 -169.152381 
L 307.212755 -169.99575 
L 306.981417 -170.839119 
L 306.734196 -171.682488 
L 306.473387 -172.525857 
L 306.202144 -173.369226 
L 305.924218 -174.212595 
L 305.643649 -175.055964 
L 305.364468 -175.899333 
L 305.090475 -176.742702 
L 304.825099 -177.586071 
L 304.571376 -178.42944 
L 304.331963 -179.272809 
L 304.109166 -180.116178 
L 303.904916 -180.959547 
L 303.720647 -181.802916 
L 303.557083 -182.646285 
L 303.413959 -183.489654 
L 303.289743 -184.333023 
L 303.18144 -185.176392 
L 303.084547 -186.019761 
L 302.993231 -186.86313 
L 302.900725 -187.706499 
L 302.799949 -188.549868 
L 302.68427 -189.393237 
L 302.548321 -190.236606 
L 302.388779 -191.079975 
L 302.204988 -191.923344 
L 301.999345 -192.766713 
L 301.777391 -193.610082 
L 301.547563 -194.453451 
L 301.320627 -195.29682 
L 301.108835 -196.140189 
L 300.924879 -196.983558 
L 300.780754 -197.826927 
L 300.686675 -198.670296 
L 300.650163 -199.513665 
L 300.67544 -200.357034 
L 300.763191 -201.200403 
L 300.910741 -202.043772 
L 301.112593 -202.887141 
L 301.361231 -203.73051 
L 301.648054 -204.573879 
L 301.964282 -205.417248 
L 302.301697 -206.260617 
L 302.65313 -207.103986 
L 303.012659 -207.947355 
L 303.375546 -208.790725 
L 303.737991 -209.634094 
L 304.096798 -210.477463 
L 304.449056 -211.320832 
L 304.791901 -212.164201 
L 305.122408 -213.00757 
L 305.437603 -213.850939 
L 305.734581 -214.694308 
L 306.010694 -215.537677 
L 306.26376 -216.381046 
L 306.492284 -217.224415 
L 306.695645 -218.067784 
L 306.874244 -218.911153 
L 307.029588 -219.754522 
L 307.164285 -220.597891 
L 307.281935 -221.44126 
L 307.386905 -222.284629 
L 307.483987 -223.127998 
L 307.577969 -223.971367 
L 307.67317 -224.814736 
L 307.773001 -225.658105 
L 307.879619 -226.501474 
L 307.993725 -227.344843 
L 308.114555 -228.188212 
L 308.240054 -229.031581 
L 308.367206 -229.87495 
L 308.492475 -230.718319 
L 308.612266 -231.561688 
L 308.723354 -232.405057 
L 308.823217 -233.248426 
L 308.910226 -234.091795 
L 308.983706 -234.935164 
L 309.043857 -235.778533 
L 309.091593 -236.621902 
L 309.128325 -237.465271 
L 309.302032 -237.465271 
L 309.302032 -237.465271 
L 309.338764 -236.621902 
L 309.3865 -235.778533 
L 309.446652 -234.935164 
L 309.520131 -234.091795 
L 309.60714 -233.248426 
L 309.707003 -232.405057 
L 309.818091 -231.561688 
L 309.937882 -230.718319 
L 310.063151 -229.87495 
L 310.190303 -229.031581 
L 310.315802 -228.188212 
L 310.436632 -227.344843 
L 310.550738 -226.501474 
L 310.657356 -225.658105 
L 310.757188 -224.814736 
L 310.852389 -223.971367 
L 310.94637 -223.127998 
L 311.043452 -222.284629 
L 311.148422 -221.44126 
L 311.266073 -220.597891 
L 311.400769 -219.754522 
L 311.556113 -218.911153 
L 311.734712 -218.067784 
L 311.938073 -217.224415 
L 312.166597 -216.381046 
L 312.419663 -215.537677 
L 312.695776 -214.694308 
L 312.992754 -213.850939 
L 313.307949 -213.00757 
L 313.638456 -212.164201 
L 313.981301 -211.320832 
L 314.333559 -210.477463 
L 314.692366 -209.634094 
L 315.054811 -208.790725 
L 315.417698 -207.947355 
L 315.777227 -207.103986 
L 316.12866 -206.260617 
L 316.466075 -205.417248 
L 316.782303 -204.573879 
L 317.069126 -203.73051 
L 317.317764 -202.887141 
L 317.519616 -202.043772 
L 317.667166 -201.200403 
L 317.754917 -200.357034 
L 317.780194 -199.513665 
L 317.743683 -198.670296 
L 317.649604 -197.826927 
L 317.505479 -196.983558 
L 317.321522 -196.140189 
L 317.109731 -195.29682 
L 316.882795 -194.453451 
L 316.652966 -193.610082 
L 316.431012 -192.766713 
L 316.225369 -191.923344 
L 316.041578 -191.079975 
L 315.882036 -190.236606 
L 315.746087 -189.393237 
L 315.630408 -188.549868 
L 315.529632 -187.706499 
L 315.437126 -186.86313 
L 315.34581 -186.019761 
L 315.248918 -185.176392 
L 315.140614 -184.333023 
L 315.016398 -183.489654 
L 314.873274 -182.646285 
L 314.70971 -181.802916 
L 314.525441 -180.959547 
L 314.321191 -180.116178 
L 314.098395 -179.272809 
L 313.858981 -178.42944 
L 313.605258 -177.586071 
L 313.339883 -176.742702 
L 313.065889 -175.899333 
L 312.786709 -175.055964 
L 312.506139 -174.212595 
L 312.228213 -173.369226 
L 311.95697 -172.525857 
L 311.696161 -171.682488 
L 311.44894 -170.839119 
L 311.217602 -169.99575 
L 311.003441 -169.152381 
L 310.806736 -168.309012 
L 310.626889 -167.465643 
L 310.462666 -166.622274 
L 310.3125 -165.778905 
L 310.174794 -164.935536 
L 310.048164 -164.092167 
L 309.931598 -163.248798 
L 309.824512 -162.405429 
L 309.726701 -161.56206 
L 309.638234 -160.718691 
L 309.559297 -159.875322 
L 309.490045 -159.031953 
L 309.430474 -158.188584 
L 309.380343 -157.345215 
L 309.339143 -156.501846 
L 309.306122 -155.658477 
L 309.280338 -154.815108 
L 309.260742 -153.971739 
z
" style="stroke: #5c5c5c; stroke-width: 1.5"/>
    </defs>
    <g clip-path="url(#pdb5a3b0939)">
     <use xlink:href="#mad20bb5614" x="0" y="277.455877" style="fill: #cb67b7; stroke: #5c5c5c; stroke-width: 1.5"/>
    </g>
   </g>
   <g id="matplotlib.axis_1">
    <g id="xtick_1">
     <g id="line2d_1">
      <defs>
       <path id="mf025320d31" d="M 0 0 
L 0 3.5 
" style="stroke: #000000; stroke-width: 0.8"/>
      </defs>
      <g>
       <use xlink:href="#mf025320d31" x="70.072321" y="224.64" style="stroke: #000000; stroke-width: 0.8"/>
      </g>
     </g>
     <g id="text_1">
      <!-- VIS -->
      <g transform="translate(61.704215 238.22044)rotate(-330)scale(0.1 -0.1)">
       <defs>
        <path id="DejaVuSans-56" d="M 1831 0 
L 50 4666 
L 709 4666 
L 2188 738 
L 3669 4666 
L 4325 4666 
L 2547 0 
L 1831 0 
z
" transform="scale(0.015625)"/>
        <path id="DejaVuSans-49" d="M 628 4666 
L 1259 4666 
L 1259 0 
L 628 0 
L 628 4666 
z
" transform="scale(0.015625)"/>
        <path id="DejaVuSans-53" d="M 3425 4513 
L 3425 3897 
Q 3066 4069 2747 4153 
Q 2428 4238 2131 4238 
Q 1616 4238 1336 4038 
Q 1056 3838 1056 3469 
Q 1056 3159 1242 3001 
Q 1428 2844 1947 2747 
L 2328 2669 
Q 3034 2534 3370 2195 
Q 3706 1856 3706 1288 
Q 3706 609 3251 259 
Q 2797 -91 1919 -91 
Q 1588 -91 1214 -16 
Q 841 59 441 206 
L 441 856 
Q 825 641 1194 531 
Q 1563 422 1919 422 
Q 2459 422 2753 634 
Q 3047 847 3047 1241 
Q 3047 1584 2836 1778 
Q 2625 1972 2144 2069 
L 1759 2144 
Q 1053 2284 737 2584 
Q 422 2884 422 3419 
Q 422 4038 858 4394 
Q 1294 4750 2059 4750 
Q 2388 4750 2728 4690 
Q 3069 4631 3425 4513 
z
" transform="scale(0.015625)"/>
       </defs>
       <use xlink:href="#DejaVuSans-56"/>
       <use xlink:href="#DejaVuSans-49" x="68.408203"/>
       <use xlink:href="#DejaVuSans-53" x="97.900391"/>
      </g>
     </g>
    </g>
    <g id="xtick_2">
     <g id="line2d_2">
      <g>
       <use xlink:href="#mf025320d31" x="109.929464" y="224.64" style="stroke: #000000; stroke-width: 0.8"/>
      </g>
     </g>
     <g id="text_2">
      <!-- SOM -->
      <g transform="translate(98.656113 238.22044)rotate(-330)scale(0.1 -0.1)">
       <defs>
        <path id="DejaVuSans-4f" d="M 2522 4238 
Q 1834 4238 1429 3725 
Q 1025 3213 1025 2328 
Q 1025 1447 1429 934 
Q 1834 422 2522 422 
Q 3209 422 3611 934 
Q 4013 1447 4013 2328 
Q 4013 3213 3611 3725 
Q 3209 4238 2522 4238 
z
M 2522 4750 
Q 3503 4750 4090 4092 
Q 4678 3434 4678 2328 
Q 4678 1225 4090 567 
Q 3503 -91 2522 -91 
Q 1538 -91 948 565 
Q 359 1222 359 2328 
Q 359 3434 948 4092 
Q 1538 4750 2522 4750 
z
" transform="scale(0.015625)"/>
        <path id="DejaVuSans-4d" d="M 628 4666 
L 1569 4666 
L 2759 1491 
L 3956 4666 
L 4897 4666 
L 4897 0 
L 4281 0 
L 4281 4097 
L 3078 897 
L 2444 897 
L 1241 4097 
L 1241 0 
L 628 0 
L 628 4666 
z
" transform="scale(0.015625)"/>
       </defs>
       <use xlink:href="#DejaVuSans-53"/>
       <use xlink:href="#DejaVuSans-4f" x="63.476562"/>
       <use xlink:href="#DejaVuSans-4d" x="142.1875"/>
      </g>
     </g>
    </g>
    <g id="xtick_3">
     <g id="line2d_3">
      <g>
       <use xlink:href="#mf025320d31" x="149.786607" y="224.64" style="stroke: #000000; stroke-width: 0.8"/>
      </g>
     </g>
     <g id="text_3">
      <!-- DATTN -->
      <g transform="translate(134.068787 238.22044)rotate(-330)scale(0.1 -0.1)">
       <defs>
        <path id="DejaVuSans-44" d="M 1259 4147 
L 1259 519 
L 2022 519 
Q 2988 519 3436 956 
Q 3884 1394 3884 2338 
Q 3884 3275 3436 3711 
Q 2988 4147 2022 4147 
L 1259 4147 
z
M 628 4666 
L 1925 4666 
Q 3281 4666 3915 4102 
Q 4550 3538 4550 2338 
Q 4550 1131 3912 565 
Q 3275 0 1925 0 
L 628 0 
L 628 4666 
z
" transform="scale(0.015625)"/>
        <path id="DejaVuSans-41" d="M 2188 4044 
L 1331 1722 
L 3047 1722 
L 2188 4044 
z
M 1831 4666 
L 2547 4666 
L 4325 0 
L 3669 0 
L 3244 1197 
L 1141 1197 
L 716 0 
L 50 0 
L 1831 4666 
z
" transform="scale(0.015625)"/>
        <path id="DejaVuSans-54" d="M -19 4666 
L 3928 4666 
L 3928 4134 
L 2272 4134 
L 2272 0 
L 1638 0 
L 1638 4134 
L -19 4134 
L -19 4666 
z
" transform="scale(0.015625)"/>
        <path id="DejaVuSans-4e" d="M 628 4666 
L 1478 4666 
L 3547 763 
L 3547 4666 
L 4159 4666 
L 4159 0 
L 3309 0 
L 1241 3903 
L 1241 0 
L 628 0 
L 628 4666 
z
" transform="scale(0.015625)"/>
       </defs>
       <use xlink:href="#DejaVuSans-44"/>
       <use xlink:href="#DejaVuSans-41" x="75.251953"/>
       <use xlink:href="#DejaVuSans-54" x="135.910156"/>
       <use xlink:href="#DejaVuSans-54" x="195.244141"/>
       <use xlink:href="#DejaVuSans-4e" x="256.328125"/>
      </g>
     </g>
    </g>
    <g id="xtick_4">
     <g id="line2d_4">
      <g>
       <use xlink:href="#mf025320d31" x="189.64375" y="224.64" style="stroke: #000000; stroke-width: 0.8"/>
      </g>
     </g>
     <g id="text_4">
      <!-- VATTN -->
      <g transform="translate(174.498318 238.22044)rotate(-330)scale(0.1 -0.1)">
       <use xlink:href="#DejaVuSans-56"/>
       <use xlink:href="#DejaVuSans-41" x="62.033203"/>
       <use xlink:href="#DejaVuSans-54" x="122.691406"/>
       <use xlink:href="#DejaVuSans-54" x="182.025391"/>
       <use xlink:href="#DejaVuSans-4e" x="243.109375"/>
      </g>
     </g>
    </g>
    <g id="xtick_5">
     <g id="line2d_5">
      <g>
       <use xlink:href="#mf025320d31" x="229.500893" y="224.64" style="stroke: #000000; stroke-width: 0.8"/>
      </g>
     </g>
     <g id="text_5">
      <!-- LIM -->
      <g transform="translate(220.695038 238.22044)rotate(-330)scale(0.1 -0.1)">
       <defs>
        <path id="DejaVuSans-4c" d="M 628 4666 
L 1259 4666 
L 1259 531 
L 3531 531 
L 3531 0 
L 628 0 
L 628 4666 
z
" transform="scale(0.015625)"/>
       </defs>
       <use xlink:href="#DejaVuSans-4c"/>
       <use xlink:href="#DejaVuSans-49" x="55.712891"/>
       <use xlink:href="#DejaVuSans-4d" x="85.205078"/>
      </g>
     </g>
    </g>
    <g id="xtick_6">
     <g id="line2d_6">
      <g>
       <use xlink:href="#mf025320d31" x="269.358036" y="224.64" style="stroke: #000000; stroke-width: 0.8"/>
      </g>
     </g>
     <g id="text_6">
      <!-- CONT -->
      <g transform="translate(255.661843 238.22044)rotate(-330)scale(0.1 -0.1)">
       <defs>
        <path id="DejaVuSans-43" d="M 4122 4306 
L 4122 3641 
Q 3803 3938 3442 4084 
Q 3081 4231 2675 4231 
Q 1875 4231 1450 3742 
Q 1025 3253 1025 2328 
Q 1025 1406 1450 917 
Q 1875 428 2675 428 
Q 3081 428 3442 575 
Q 3803 722 4122 1019 
L 4122 359 
Q 3791 134 3420 21 
Q 3050 -91 2638 -91 
Q 1578 -91 968 557 
Q 359 1206 359 2328 
Q 359 3453 968 4101 
Q 1578 4750 2638 4750 
Q 3056 4750 3426 4639 
Q 3797 4528 4122 4306 
z
" transform="scale(0.015625)"/>
       </defs>
       <use xlink:href="#DejaVuSans-43"/>
       <use xlink:href="#DejaVuSans-4f" x="69.824219"/>
       <use xlink:href="#DejaVuSans-4e" x="148.535156"/>
       <use xlink:href="#DejaVuSans-54" x="223.339844"/>
      </g>
     </g>
    </g>
    <g id="xtick_7">
     <g id="line2d_7">
      <g>
       <use xlink:href="#mf025320d31" x="309.215179" y="224.64" style="stroke: #000000; stroke-width: 0.8"/>
      </g>
     </g>
     <g id="text_7">
      <!-- DMN -->
      <g transform="translate(297.525729 238.22044)rotate(-330)scale(0.1 -0.1)">
       <use xlink:href="#DejaVuSans-44"/>
       <use xlink:href="#DejaVuSans-4d" x="77.001953"/>
       <use xlink:href="#DejaVuSans-4e" x="163.28125"/>
      </g>
     </g>
    </g>
    <g id="text_8">
     <!-- Intrinsic network -->
     <g transform="translate(147.789844 268.17619)scale(0.1 -0.1)">
      <defs>
       <path id="DejaVuSans-6e" d="M 3513 2113 
L 3513 0 
L 2938 0 
L 2938 2094 
Q 2938 2591 2744 2837 
Q 2550 3084 2163 3084 
Q 1697 3084 1428 2787 
Q 1159 2491 1159 1978 
L 1159 0 
L 581 0 
L 581 3500 
L 1159 3500 
L 1159 2956 
Q 1366 3272 1645 3428 
Q 1925 3584 2291 3584 
Q 2894 3584 3203 3211 
Q 3513 2838 3513 2113 
z
" transform="scale(0.015625)"/>
       <path id="DejaVuSans-74" d="M 1172 4494 
L 1172 3500 
L 2356 3500 
L 2356 3053 
L 1172 3053 
L 1172 1153 
Q 1172 725 1289 603 
Q 1406 481 1766 481 
L 2356 481 
L 2356 0 
L 1766 0 
Q 1100 0 847 248 
Q 594 497 594 1153 
L 594 3053 
L 172 3053 
L 172 3500 
L 594 3500 
L 594 4494 
L 1172 4494 
z
" transform="scale(0.015625)"/>
       <path id="DejaVuSans-72" d="M 2631 2963 
Q 2534 3019 2420 3045 
Q 2306 3072 2169 3072 
Q 1681 3072 1420 2755 
Q 1159 2438 1159 1844 
L 1159 0 
L 581 0 
L 581 3500 
L 1159 3500 
L 1159 2956 
Q 1341 3275 1631 3429 
Q 1922 3584 2338 3584 
Q 2397 3584 2469 3576 
Q 2541 3569 2628 3553 
L 2631 2963 
z
" transform="scale(0.015625)"/>
       <path id="DejaVuSans-69" d="M 603 3500 
L 1178 3500 
L 1178 0 
L 603 0 
L 603 3500 
z
M 603 4863 
L 1178 4863 
L 1178 4134 
L 603 4134 
L 603 4863 
z
" transform="scale(0.015625)"/>
       <path id="DejaVuSans-73" d="M 2834 3397 
L 2834 2853 
Q 2591 2978 2328 3040 
Q 2066 3103 1784 3103 
Q 1356 3103 1142 2972 
Q 928 2841 928 2578 
Q 928 2378 1081 2264 
Q 1234 2150 1697 2047 
L 1894 2003 
Q 2506 1872 2764 1633 
Q 3022 1394 3022 966 
Q 3022 478 2636 193 
Q 2250 -91 1575 -91 
Q 1294 -91 989 -36 
Q 684 19 347 128 
L 347 722 
Q 666 556 975 473 
Q 1284 391 1588 391 
Q 1994 391 2212 530 
Q 2431 669 2431 922 
Q 2431 1156 2273 1281 
Q 2116 1406 1581 1522 
L 1381 1569 
Q 847 1681 609 1914 
Q 372 2147 372 2553 
Q 372 3047 722 3315 
Q 1072 3584 1716 3584 
Q 2034 3584 2315 3537 
Q 2597 3491 2834 3397 
z
" transform="scale(0.015625)"/>
       <path id="DejaVuSans-63" d="M 3122 3366 
L 3122 2828 
Q 2878 2963 2633 3030 
Q 2388 3097 2138 3097 
Q 1578 3097 1268 2742 
Q 959 2388 959 1747 
Q 959 1106 1268 751 
Q 1578 397 2138 397 
Q 2388 397 2633 464 
Q 2878 531 3122 666 
L 3122 134 
Q 2881 22 2623 -34 
Q 2366 -91 2075 -91 
Q 1284 -91 818 406 
Q 353 903 353 1747 
Q 353 2603 823 3093 
Q 1294 3584 2113 3584 
Q 2378 3584 2631 3529 
Q 2884 3475 3122 3366 
z
" transform="scale(0.015625)"/>
       <path id="DejaVuSans-20" transform="scale(0.015625)"/>
       <path id="DejaVuSans-65" d="M 3597 1894 
L 3597 1613 
L 953 1613 
Q 991 1019 1311 708 
Q 1631 397 2203 397 
Q 2534 397 2845 478 
Q 3156 559 3463 722 
L 3463 178 
Q 3153 47 2828 -22 
Q 2503 -91 2169 -91 
Q 1331 -91 842 396 
Q 353 884 353 1716 
Q 353 2575 817 3079 
Q 1281 3584 2069 3584 
Q 2775 3584 3186 3129 
Q 3597 2675 3597 1894 
z
M 3022 2063 
Q 3016 2534 2758 2815 
Q 2500 3097 2075 3097 
Q 1594 3097 1305 2825 
Q 1016 2553 972 2059 
L 3022 2063 
z
" transform="scale(0.015625)"/>
       <path id="DejaVuSans-77" d="M 269 3500 
L 844 3500 
L 1563 769 
L 2278 3500 
L 2956 3500 
L 3675 769 
L 4391 3500 
L 4966 3500 
L 4050 0 
L 3372 0 
L 2619 2869 
L 1863 0 
L 1184 0 
L 269 3500 
z
" transform="scale(0.015625)"/>
       <path id="DejaVuSans-6f" d="M 1959 3097 
Q 1497 3097 1228 2736 
Q 959 2375 959 1747 
Q 959 1119 1226 758 
Q 1494 397 1959 397 
Q 2419 397 2687 759 
Q 2956 1122 2956 1747 
Q 2956 2369 2687 2733 
Q 2419 3097 1959 3097 
z
M 1959 3584 
Q 2709 3584 3137 3096 
Q 3566 2609 3566 1747 
Q 3566 888 3137 398 
Q 2709 -91 1959 -91 
Q 1206 -91 779 398 
Q 353 888 353 1747 
Q 353 2609 779 3096 
Q 1206 3584 1959 3584 
z
" transform="scale(0.015625)"/>
       <path id="DejaVuSans-6b" d="M 581 4863 
L 1159 4863 
L 1159 1991 
L 2875 3500 
L 3609 3500 
L 1753 1863 
L 3688 0 
L 2938 0 
L 1159 1709 
L 1159 0 
L 581 0 
L 581 4863 
z
" transform="scale(0.015625)"/>
      </defs>
      <use xlink:href="#DejaVuSans-49"/>
      <use xlink:href="#DejaVuSans-6e" x="29.492188"/>
      <use xlink:href="#DejaVuSans-74" x="92.871094"/>
      <use xlink:href="#DejaVuSans-72" x="132.080078"/>
      <use xlink:href="#DejaVuSans-69" x="173.193359"/>
      <use xlink:href="#DejaVuSans-6e" x="200.976562"/>
      <use xlink:href="#DejaVuSans-73" x="264.355469"/>
      <use xlink:href="#DejaVuSans-69" x="316.455078"/>
      <use xlink:href="#DejaVuSans-63" x="344.238281"/>
      <use xlink:href="#DejaVuSans-20" x="399.21875"/>
      <use xlink:href="#DejaVuSans-6e" x="431.005859"/>
      <use xlink:href="#DejaVuSans-65" x="494.384766"/>
      <use xlink:href="#DejaVuSans-74" x="555.908203"/>
      <use xlink:href="#DejaVuSans-77" x="595.117188"/>
      <use xlink:href="#DejaVuSans-6f" x="676.904297"/>
      <use xlink:href="#DejaVuSans-72" x="738.085938"/>
      <use xlink:href="#DejaVuSans-6b" x="779.199219"/>
     </g>
    </g>
   </g>
   <g id="matplotlib.axis_2">
    <g id="ytick_1">
     <g id="line2d_8">
      <defs>
       <path id="m82ed624119" d="M 0 0 
L -3.5 0 
" style="stroke: #000000; stroke-width: 0.8"/>
      </defs>
      <g>
       <use xlink:href="#m82ed624119" x="50.14375" y="203.975899" style="stroke: #000000; stroke-width: 0.8"/>
      </g>
     </g>
     <g id="text_9">
      <!-- 0.72 -->
      <g transform="translate(20.878125 207.775117)scale(0.1 -0.1)">
       <defs>
        <path id="DejaVuSans-30" d="M 2034 4250 
Q 1547 4250 1301 3770 
Q 1056 3291 1056 2328 
Q 1056 1369 1301 889 
Q 1547 409 2034 409 
Q 2525 409 2770 889 
Q 3016 1369 3016 2328 
Q 3016 3291 2770 3770 
Q 2525 4250 2034 4250 
z
M 2034 4750 
Q 2819 4750 3233 4129 
Q 3647 3509 3647 2328 
Q 3647 1150 3233 529 
Q 2819 -91 2034 -91 
Q 1250 -91 836 529 
Q 422 1150 422 2328 
Q 422 3509 836 4129 
Q 1250 4750 2034 4750 
z
" transform="scale(0.015625)"/>
        <path id="DejaVuSans-2e" d="M 684 794 
L 1344 794 
L 1344 0 
L 684 0 
L 684 794 
z
" transform="scale(0.015625)"/>
        <path id="DejaVuSans-37" d="M 525 4666 
L 3525 4666 
L 3525 4397 
L 1831 0 
L 1172 0 
L 2766 4134 
L 525 4134 
L 525 4666 
z
" transform="scale(0.015625)"/>
        <path id="DejaVuSans-32" d="M 1228 531 
L 3431 531 
L 3431 0 
L 469 0 
L 469 531 
Q 828 903 1448 1529 
Q 2069 2156 2228 2338 
Q 2531 2678 2651 2914 
Q 2772 3150 2772 3378 
Q 2772 3750 2511 3984 
Q 2250 4219 1831 4219 
Q 1534 4219 1204 4116 
Q 875 4013 500 3803 
L 500 4441 
Q 881 4594 1212 4672 
Q 1544 4750 1819 4750 
Q 2544 4750 2975 4387 
Q 3406 4025 3406 3419 
Q 3406 3131 3298 2873 
Q 3191 2616 2906 2266 
Q 2828 2175 2409 1742 
Q 1991 1309 1228 531 
z
" transform="scale(0.015625)"/>
       </defs>
       <use xlink:href="#DejaVuSans-30"/>
       <use xlink:href="#DejaVuSans-2e" x="63.623047"/>
       <use xlink:href="#DejaVuSans-37" x="95.410156"/>
       <use xlink:href="#DejaVuSans-32" x="159.033203"/>
      </g>
     </g>
    </g>
    <g id="ytick_2">
     <g id="line2d_9">
      <g>
       <use xlink:href="#m82ed624119" x="50.14375" y="175.109782" style="stroke: #000000; stroke-width: 0.8"/>
      </g>
     </g>
     <g id="text_10">
      <!-- 0.74 -->
      <g transform="translate(20.878125 178.909)scale(0.1 -0.1)">
       <defs>
        <path id="DejaVuSans-34" d="M 2419 4116 
L 825 1625 
L 2419 1625 
L 2419 4116 
z
M 2253 4666 
L 3047 4666 
L 3047 1625 
L 3713 1625 
L 3713 1100 
L 3047 1100 
L 3047 0 
L 2419 0 
L 2419 1100 
L 313 1100 
L 313 1709 
L 2253 4666 
z
" transform="scale(0.015625)"/>
       </defs>
       <use xlink:href="#DejaVuSans-30"/>
       <use xlink:href="#DejaVuSans-2e" x="63.623047"/>
       <use xlink:href="#DejaVuSans-37" x="95.410156"/>
       <use xlink:href="#DejaVuSans-34" x="159.033203"/>
      </g>
     </g>
    </g>
    <g id="ytick_3">
     <g id="line2d_10">
      <g>
       <use xlink:href="#m82ed624119" x="50.14375" y="146.243665" style="stroke: #000000; stroke-width: 0.8"/>
      </g>
     </g>
     <g id="text_11">
      <!-- 0.76 -->
      <g transform="translate(20.878125 150.042883)scale(0.1 -0.1)">
       <defs>
        <path id="DejaVuSans-36" d="M 2113 2584 
Q 1688 2584 1439 2293 
Q 1191 2003 1191 1497 
Q 1191 994 1439 701 
Q 1688 409 2113 409 
Q 2538 409 2786 701 
Q 3034 994 3034 1497 
Q 3034 2003 2786 2293 
Q 2538 2584 2113 2584 
z
M 3366 4563 
L 3366 3988 
Q 3128 4100 2886 4159 
Q 2644 4219 2406 4219 
Q 1781 4219 1451 3797 
Q 1122 3375 1075 2522 
Q 1259 2794 1537 2939 
Q 1816 3084 2150 3084 
Q 2853 3084 3261 2657 
Q 3669 2231 3669 1497 
Q 3669 778 3244 343 
Q 2819 -91 2113 -91 
Q 1303 -91 875 529 
Q 447 1150 447 2328 
Q 447 3434 972 4092 
Q 1497 4750 2381 4750 
Q 2619 4750 2861 4703 
Q 3103 4656 3366 4563 
z
" transform="scale(0.015625)"/>
       </defs>
       <use xlink:href="#DejaVuSans-30"/>
       <use xlink:href="#DejaVuSans-2e" x="63.623047"/>
       <use xlink:href="#DejaVuSans-37" x="95.410156"/>
       <use xlink:href="#DejaVuSans-36" x="159.033203"/>
      </g>
     </g>
    </g>
    <g id="ytick_4">
     <g id="line2d_11">
      <g>
       <use xlink:href="#m82ed624119" x="50.14375" y="117.377548" style="stroke: #000000; stroke-width: 0.8"/>
      </g>
     </g>
     <g id="text_12">
      <!-- 0.78 -->
      <g transform="translate(20.878125 121.176766)scale(0.1 -0.1)">
       <defs>
        <path id="DejaVuSans-38" d="M 2034 2216 
Q 1584 2216 1326 1975 
Q 1069 1734 1069 1313 
Q 1069 891 1326 650 
Q 1584 409 2034 409 
Q 2484 409 2743 651 
Q 3003 894 3003 1313 
Q 3003 1734 2745 1975 
Q 2488 2216 2034 2216 
z
M 1403 2484 
Q 997 2584 770 2862 
Q 544 3141 544 3541 
Q 544 4100 942 4425 
Q 1341 4750 2034 4750 
Q 2731 4750 3128 4425 
Q 3525 4100 3525 3541 
Q 3525 3141 3298 2862 
Q 3072 2584 2669 2484 
Q 3125 2378 3379 2068 
Q 3634 1759 3634 1313 
Q 3634 634 3220 271 
Q 2806 -91 2034 -91 
Q 1263 -91 848 271 
Q 434 634 434 1313 
Q 434 1759 690 2068 
Q 947 2378 1403 2484 
z
M 1172 3481 
Q 1172 3119 1398 2916 
Q 1625 2713 2034 2713 
Q 2441 2713 2670 2916 
Q 2900 3119 2900 3481 
Q 2900 3844 2670 4047 
Q 2441 4250 2034 4250 
Q 1625 4250 1398 4047 
Q 1172 3844 1172 3481 
z
" transform="scale(0.015625)"/>
       </defs>
       <use xlink:href="#DejaVuSans-30"/>
       <use xlink:href="#DejaVuSans-2e" x="63.623047"/>
       <use xlink:href="#DejaVuSans-37" x="95.410156"/>
       <use xlink:href="#DejaVuSans-38" x="159.033203"/>
      </g>
     </g>
    </g>
    <g id="ytick_5">
     <g id="line2d_12">
      <g>
       <use xlink:href="#m82ed624119" x="50.14375" y="88.51143" style="stroke: #000000; stroke-width: 0.8"/>
      </g>
     </g>
     <g id="text_13">
      <!-- 0.80 -->
      <g transform="translate(20.878125 92.310649)scale(0.1 -0.1)">
       <use xlink:href="#DejaVuSans-30"/>
       <use xlink:href="#DejaVuSans-2e" x="63.623047"/>
       <use xlink:href="#DejaVuSans-38" x="95.410156"/>
       <use xlink:href="#DejaVuSans-30" x="159.033203"/>
      </g>
     </g>
    </g>
    <g id="ytick_6">
     <g id="line2d_13">
      <g>
       <use xlink:href="#m82ed624119" x="50.14375" y="59.645313" style="stroke: #000000; stroke-width: 0.8"/>
      </g>
     </g>
     <g id="text_14">
      <!-- 0.82 -->
      <g transform="translate(20.878125 63.444532)scale(0.1 -0.1)">
       <use xlink:href="#DejaVuSans-30"/>
       <use xlink:href="#DejaVuSans-2e" x="63.623047"/>
       <use xlink:href="#DejaVuSans-38" x="95.410156"/>
       <use xlink:href="#DejaVuSans-32" x="159.033203"/>
      </g>
     </g>
    </g>
    <g id="ytick_7">
     <g id="line2d_14">
      <g>
       <use xlink:href="#m82ed624119" x="50.14375" y="30.779196" style="stroke: #000000; stroke-width: 0.8"/>
      </g>
     </g>
     <g id="text_15">
      <!-- 0.84 -->
      <g transform="translate(20.878125 34.578415)scale(0.1 -0.1)">
       <use xlink:href="#DejaVuSans-30"/>
       <use xlink:href="#DejaVuSans-2e" x="63.623047"/>
       <use xlink:href="#DejaVuSans-38" x="95.410156"/>
       <use xlink:href="#DejaVuSans-34" x="159.033203"/>
      </g>
     </g>
    </g>
    <g id="text_16">
     <!-- Participation coefficient -->
     <g transform="translate(14.798438 174.859844)rotate(-90)scale(0.1 -0.1)">
      <defs>
       <path id="DejaVuSans-50" d="M 1259 4147 
L 1259 2394 
L 2053 2394 
Q 2494 2394 2734 2622 
Q 2975 2850 2975 3272 
Q 2975 3691 2734 3919 
Q 2494 4147 2053 4147 
L 1259 4147 
z
M 628 4666 
L 2053 4666 
Q 2838 4666 3239 4311 
Q 3641 3956 3641 3272 
Q 3641 2581 3239 2228 
Q 2838 1875 2053 1875 
L 1259 1875 
L 1259 0 
L 628 0 
L 628 4666 
z
" transform="scale(0.015625)"/>
       <path id="DejaVuSans-61" d="M 2194 1759 
Q 1497 1759 1228 1600 
Q 959 1441 959 1056 
Q 959 750 1161 570 
Q 1363 391 1709 391 
Q 2188 391 2477 730 
Q 2766 1069 2766 1631 
L 2766 1759 
L 2194 1759 
z
M 3341 1997 
L 3341 0 
L 2766 0 
L 2766 531 
Q 2569 213 2275 61 
Q 1981 -91 1556 -91 
Q 1019 -91 701 211 
Q 384 513 384 1019 
Q 384 1609 779 1909 
Q 1175 2209 1959 2209 
L 2766 2209 
L 2766 2266 
Q 2766 2663 2505 2880 
Q 2244 3097 1772 3097 
Q 1472 3097 1187 3025 
Q 903 2953 641 2809 
L 641 3341 
Q 956 3463 1253 3523 
Q 1550 3584 1831 3584 
Q 2591 3584 2966 3190 
Q 3341 2797 3341 1997 
z
" transform="scale(0.015625)"/>
       <path id="DejaVuSans-70" d="M 1159 525 
L 1159 -1331 
L 581 -1331 
L 581 3500 
L 1159 3500 
L 1159 2969 
Q 1341 3281 1617 3432 
Q 1894 3584 2278 3584 
Q 2916 3584 3314 3078 
Q 3713 2572 3713 1747 
Q 3713 922 3314 415 
Q 2916 -91 2278 -91 
Q 1894 -91 1617 61 
Q 1341 213 1159 525 
z
M 3116 1747 
Q 3116 2381 2855 2742 
Q 2594 3103 2138 3103 
Q 1681 3103 1420 2742 
Q 1159 2381 1159 1747 
Q 1159 1113 1420 752 
Q 1681 391 2138 391 
Q 2594 391 2855 752 
Q 3116 1113 3116 1747 
z
" transform="scale(0.015625)"/>
       <path id="DejaVuSans-66" d="M 2375 4863 
L 2375 4384 
L 1825 4384 
Q 1516 4384 1395 4259 
Q 1275 4134 1275 3809 
L 1275 3500 
L 2222 3500 
L 2222 3053 
L 1275 3053 
L 1275 0 
L 697 0 
L 697 3053 
L 147 3053 
L 147 3500 
L 697 3500 
L 697 3744 
Q 697 4328 969 4595 
Q 1241 4863 1831 4863 
L 2375 4863 
z
" transform="scale(0.015625)"/>
      </defs>
      <use xlink:href="#DejaVuSans-50"/>
      <use xlink:href="#DejaVuSans-61" x="55.802734"/>
      <use xlink:href="#DejaVuSans-72" x="117.082031"/>
      <use xlink:href="#DejaVuSans-74" x="158.195312"/>
      <use xlink:href="#DejaVuSans-69" x="197.404297"/>
      <use xlink:href="#DejaVuSans-63" x="225.1875"/>
      <use xlink:href="#DejaVuSans-69" x="280.167969"/>
      <use xlink:href="#DejaVuSans-70" x="307.951172"/>
      <use xlink:href="#DejaVuSans-61" x="371.427734"/>
      <use xlink:href="#DejaVuSans-74" x="432.707031"/>
      <use xlink:href="#DejaVuSans-69" x="471.916016"/>
      <use xlink:href="#DejaVuSans-6f" x="499.699219"/>
      <use xlink:href="#DejaVuSans-6e" x="560.880859"/>
      <use xlink:href="#DejaVuSans-20" x="624.259766"/>
      <use xlink:href="#DejaVuSans-63" x="656.046875"/>
      <use xlink:href="#DejaVuSans-6f" x="711.027344"/>
      <use xlink:href="#DejaVuSans-65" x="772.208984"/>
      <use xlink:href="#DejaVuSans-66" x="833.732422"/>
      <use xlink:href="#DejaVuSans-66" x="868.9375"/>
      <use xlink:href="#DejaVuSans-69" x="904.142578"/>
      <use xlink:href="#DejaVuSans-63" x="931.925781"/>
      <use xlink:href="#DejaVuSans-69" x="986.90625"/>
      <use xlink:href="#DejaVuSans-65" x="1014.689453"/>
      <use xlink:href="#DejaVuSans-6e" x="1076.212891"/>
      <use xlink:href="#DejaVuSans-74" x="1139.591797"/>
     </g>
    </g>
   </g>
   <g id="line2d_15">
    <path d="M 64.701908 107.347025 
L 75.442734 107.347025 
" clip-path="url(#pdb5a3b0939)" style="fill: none; stroke-dasharray: 3.375,3.375; stroke-dashoffset: 0; stroke: #5c5c5c; stroke-width: 1.5"/>
   </g>
   <g id="line2d_16">
    <path d="M 63.987026 94.998025 
L 76.157617 94.998025 
" clip-path="url(#pdb5a3b0939)" style="fill: none; stroke-dasharray: 6.75,6.75; stroke-dashoffset: 0; stroke: #5c5c5c; stroke-width: 1.5"/>
   </g>
   <g id="line2d_17">
    <path d="M 65.951458 78.731236 
L 74.193185 78.731236 
" clip-path="url(#pdb5a3b0939)" style="fill: none; stroke-dasharray: 3.375,3.375; stroke-dashoffset: 0; stroke: #5c5c5c; stroke-width: 1.5"/>
   </g>
   <g id="line2d_18">
    <path d="M 106.67092 165.666779 
L 113.188008 165.666779 
" clip-path="url(#pdb5a3b0939)" style="fill: none; stroke-dasharray: 3.375,3.375; stroke-dashoffset: 0; stroke: #5c5c5c; stroke-width: 1.5"/>
   </g>
   <g id="line2d_19">
    <path d="M 106.797441 138.910827 
L 113.061487 138.910827 
" clip-path="url(#pdb5a3b0939)" style="fill: none; stroke-dasharray: 6.75,6.75; stroke-dashoffset: 0; stroke: #5c5c5c; stroke-width: 1.5"/>
   </g>
   <g id="line2d_20">
    <path d="M 106.997608 115.559754 
L 112.86132 115.559754 
" clip-path="url(#pdb5a3b0939)" style="fill: none; stroke-dasharray: 3.375,3.375; stroke-dashoffset: 0; stroke: #5c5c5c; stroke-width: 1.5"/>
   </g>
   <g id="line2d_21">
    <path d="M 141.292573 71.807969 
L 158.280641 71.807969 
" clip-path="url(#pdb5a3b0939)" style="fill: none; stroke-dasharray: 3.375,3.375; stroke-dashoffset: 0; stroke: #5c5c5c; stroke-width: 1.5"/>
   </g>
   <g id="line2d_22">
    <path d="M 138.895441 65.262303 
L 160.677773 65.262303 
" clip-path="url(#pdb5a3b0939)" style="fill: none; stroke-dasharray: 6.75,6.75; stroke-dashoffset: 0; stroke: #5c5c5c; stroke-width: 1.5"/>
   </g>
   <g id="line2d_23">
    <path d="M 139.996612 56.51122 
L 159.576602 56.51122 
" clip-path="url(#pdb5a3b0939)" style="fill: none; stroke-dasharray: 3.375,3.375; stroke-dashoffset: 0; stroke: #5c5c5c; stroke-width: 1.5"/>
   </g>
   <g id="line2d_24">
    <path d="M 180.090566 72.301483 
L 199.196934 72.301483 
" clip-path="url(#pdb5a3b0939)" style="fill: none; stroke-dasharray: 3.375,3.375; stroke-dashoffset: 0; stroke: #5c5c5c; stroke-width: 1.5"/>
   </g>
   <g id="line2d_25">
    <path d="M 177.117645 67.954354 
L 202.169855 67.954354 
" clip-path="url(#pdb5a3b0939)" style="fill: none; stroke-dasharray: 6.75,6.75; stroke-dashoffset: 0; stroke: #5c5c5c; stroke-width: 1.5"/>
   </g>
   <g id="line2d_26">
    <path d="M 179.510168 61.442844 
L 199.777332 61.442844 
" clip-path="url(#pdb5a3b0939)" style="fill: none; stroke-dasharray: 3.375,3.375; stroke-dashoffset: 0; stroke: #5c5c5c; stroke-width: 1.5"/>
   </g>
   <g id="line2d_27">
    <path d="M 223.18771 57.345309 
L 235.814076 57.345309 
" clip-path="url(#pdb5a3b0939)" style="fill: none; stroke-dasharray: 3.375,3.375; stroke-dashoffset: 0; stroke: #5c5c5c; stroke-width: 1.5"/>
   </g>
   <g id="line2d_28">
    <path d="M 221.87214 49.424861 
L 237.129646 49.424861 
" clip-path="url(#pdb5a3b0939)" style="fill: none; stroke-dasharray: 6.75,6.75; stroke-dashoffset: 0; stroke: #5c5c5c; stroke-width: 1.5"/>
   </g>
   <g id="line2d_29">
    <path d="M 222.34525 39.606233 
L 236.656535 39.606233 
" clip-path="url(#pdb5a3b0939)" style="fill: none; stroke-dasharray: 3.375,3.375; stroke-dashoffset: 0; stroke: #5c5c5c; stroke-width: 1.5"/>
   </g>
   <g id="line2d_30">
    <path d="M 255.520276 66.188986 
L 283.195795 66.188986 
" clip-path="url(#pdb5a3b0939)" style="fill: none; stroke-dasharray: 3.375,3.375; stroke-dashoffset: 0; stroke: #5c5c5c; stroke-width: 1.5"/>
   </g>
   <g id="line2d_31">
    <path d="M 254.010827 60.178556 
L 284.705245 60.178556 
" clip-path="url(#pdb5a3b0939)" style="fill: none; stroke-dasharray: 6.75,6.75; stroke-dashoffset: 0; stroke: #5c5c5c; stroke-width: 1.5"/>
   </g>
   <g id="line2d_32">
    <path d="M 254.832379 56.422991 
L 283.883693 56.422991 
" clip-path="url(#pdb5a3b0939)" style="fill: none; stroke-dasharray: 3.375,3.375; stroke-dashoffset: 0; stroke: #5c5c5c; stroke-width: 1.5"/>
   </g>
   <g id="line2d_33">
    <path d="M 303.145854 91.745592 
L 315.284504 91.745592 
" clip-path="url(#pdb5a3b0939)" style="fill: none; stroke-dasharray: 3.375,3.375; stroke-dashoffset: 0; stroke: #5c5c5c; stroke-width: 1.5"/>
   </g>
   <g id="line2d_34">
    <path d="M 301.007782 80.332489 
L 317.422576 80.332489 
" clip-path="url(#pdb5a3b0939)" style="fill: none; stroke-dasharray: 6.75,6.75; stroke-dashoffset: 0; stroke: #5c5c5c; stroke-width: 1.5"/>
   </g>
   <g id="line2d_35">
    <path d="M 301.723725 72.935441 
L 316.706632 72.935441 
" clip-path="url(#pdb5a3b0939)" style="fill: none; stroke-dasharray: 3.375,3.375; stroke-dashoffset: 0; stroke: #5c5c5c; stroke-width: 1.5"/>
   </g>
   <g id="patch_3">
    <path d="M 50.14375 224.64 
L 50.14375 7.2 
" style="fill: none; stroke: #000000; stroke-width: 0.8; stroke-linejoin: miter; stroke-linecap: square"/>
   </g>
   <g id="patch_4">
    <path d="M 329.14375 224.64 
L 329.14375 7.2 
" style="fill: none; stroke: #000000; stroke-width: 0.8; stroke-linejoin: miter; stroke-linecap: square"/>
   </g>
   <g id="patch_5">
    <path d="M 50.14375 224.64 
L 329.14375 224.64 
" style="fill: none; stroke: #000000; stroke-width: 0.8; stroke-linejoin: miter; stroke-linecap: square"/>
   </g>
   <g id="patch_6">
    <path d="M 50.14375 7.2 
L 329.14375 7.2 
" style="fill: none; stroke: #000000; stroke-width: 0.8; stroke-linejoin: miter; stroke-linecap: square"/>
   </g>
  </g>
 </g>
 <defs>
  <clipPath id="pdb5a3b0939">
   <rect x="50.14375" y="7.2" width="279" height="217.44"/>
  </clipPath>
 </defs>
</svg>
