<?xml version="1.0" encoding="utf-8" standalone="no"?>
<!DOCTYPE svg PUBLIC "-//W3C//DTD SVG 1.1//EN"
  "http://www.w3.org/Graphics/SVG/1.1/DTD/svg11.dtd">
<svg xmlns:xlink="http://www.w3.org/1999/xlink" width="288pt" height="288pt" viewBox="0 0 288 288" xmlns="http://www.w3.org/2000/svg" version="1.1">
 <metadata>
  <rdf:RDF xmlns:dc="http://purl.org/dc/elements/1.1/" xmlns:cc="http://creativecommons.org/ns#" xmlns:rdf="http://www.w3.org/1999/02/22-rdf-syntax-ns#">
   <cc:Work>
    <dc:type rdf:resource="http://purl.org/dc/dcmitype/StillImage"/>
    <dc:date>2023-04-16T22:46:13.593199</dc:date>
    <dc:format>image/svg+xml</dc:format>
    <dc:creator>
     <cc:Agent>
      <dc:title>Matplotlib v3.5.2, https://matplotlib.org/</dc:title>
     </cc:Agent>
    </dc:creator>
   </cc:Work>
  </rdf:RDF>
 </metadata>
 <defs>
  <style type="text/css">*{stroke-linejoin: round; stroke-linecap: butt}</style>
 </defs>
 <g id="figure_1">
  <g id="patch_1">
   <path d="M 0 288 
L 288 288 
L 288 0 
L 0 0 
L 0 288 
z
" style="fill: none"/>
  </g>
  <g id="axes_1">
   <g id="patch_2">
    <path d="M 43.05 219.852246 
L 275.797566 219.852246 
L 275.797566 13.3 
L 43.05 13.3 
L 43.05 219.852246 
z
" style="fill: none"/>
   </g>
   <g id="PathCollection_1">
    <defs>
     <path id="C0_0_41d0bccb69" d="M 0 1.5 
C 0.397805 1.5 0.77937 1.341951 1.06066 1.06066 
C 1.341951 0.77937 1.5 0.397805 1.5 -0 
C 1.5 -0.397805 1.341951 -0.77937 1.06066 -1.06066 
C 0.77937 -1.341951 0.397805 -1.5 0 -1.5 
C -0.397805 -1.5 -0.77937 -1.341951 -1.06066 -1.06066 
C -1.341951 -0.77937 -1.5 -0.397805 -1.5 0 
C -1.5 0.397805 -1.341951 0.77937 -1.06066 1.06066 
C -0.77937 1.341951 -0.397805 1.5 0 1.5 
z
"/>
    </defs>
    <g clip-path="url(#p762bbae0e5)">
     <use xlink:href="#C0_0_41d0bccb69" x="82.173552" y="177.404376" style="fill: #b3cde3"/>
    </g>
    <g clip-path="url(#p762bbae0e5)">
     <use xlink:href="#C0_0_41d0bccb69" x="86.580168" y="167.711615" style="fill: #b3cde3"/>
    </g>
    <g clip-path="url(#p762bbae0e5)">
     <use xlink:href="#C0_0_41d0bccb69" x="78.164683" y="176.575527" style="fill: #b3cde3"/>
    </g>
    <g clip-path="url(#p762bbae0e5)">
     <use xlink:href="#C0_0_41d0bccb69" x="87.695796" y="163.33098" style="fill: #b3cde3"/>
    </g>
    <g clip-path="url(#p762bbae0e5)">
     <use xlink:href="#C0_0_41d0bccb69" x="78.155627" y="181.100306" style="fill: #b3cde3"/>
    </g>
    <g clip-path="url(#p762bbae0e5)">
     <use xlink:href="#C0_0_41d0bccb69" x="77.110628" y="176.279801" style="fill: #b3cde3"/>
    </g>
    <g clip-path="url(#p762bbae0e5)">
     <use xlink:href="#C0_0_41d0bccb69" x="76.233393" y="173.136498" style="fill: #b3cde3"/>
    </g>
    <g clip-path="url(#p762bbae0e5)">
     <use xlink:href="#C0_0_41d0bccb69" x="88.97072" y="176.990781" style="fill: #b3cde3"/>
    </g>
    <g clip-path="url(#p762bbae0e5)">
     <use xlink:href="#C0_0_41d0bccb69" x="84.461781" y="173.097856" style="fill: #b3cde3"/>
    </g>
    <g clip-path="url(#p762bbae0e5)">
     <use xlink:href="#C0_0_41d0bccb69" x="85.933004" y="168.894252" style="fill: #b3cde3"/>
    </g>
    <g clip-path="url(#p762bbae0e5)">
     <use xlink:href="#C0_0_41d0bccb69" x="83.839476" y="165.838812" style="fill: #b3cde3"/>
    </g>
    <g clip-path="url(#p762bbae0e5)">
     <use xlink:href="#C0_0_41d0bccb69" x="87.196998" y="167.558208" style="fill: #b3cde3"/>
    </g>
    <g clip-path="url(#p762bbae0e5)">
     <use xlink:href="#C0_0_41d0bccb69" x="79.419615" y="176.589262" style="fill: #b3cde3"/>
    </g>
    <g clip-path="url(#p762bbae0e5)">
     <use xlink:href="#C0_0_41d0bccb69" x="82.229939" y="167.998303" style="fill: #b3cde3"/>
    </g>
    <g clip-path="url(#p762bbae0e5)">
     <use xlink:href="#C0_0_41d0bccb69" x="76.802763" y="176.449515" style="fill: #b3cde3"/>
    </g>
    <g clip-path="url(#p762bbae0e5)">
     <use xlink:href="#C0_0_41d0bccb69" x="83.563881" y="170.949743" style="fill: #b3cde3"/>
    </g>
    <g clip-path="url(#p762bbae0e5)">
     <use xlink:href="#C0_0_41d0bccb69" x="88.240259" y="167.284168" style="fill: #b3cde3"/>
    </g>
    <g clip-path="url(#p762bbae0e5)">
     <use xlink:href="#C0_0_41d0bccb69" x="79.731615" y="179.838643" style="fill: #b3cde3"/>
    </g>
    <g clip-path="url(#p762bbae0e5)">
     <use xlink:href="#C0_0_41d0bccb69" x="87.341629" y="162.949475" style="fill: #b3cde3"/>
    </g>
    <g clip-path="url(#p762bbae0e5)">
     <use xlink:href="#C0_0_41d0bccb69" x="75.65749" y="174.858345" style="fill: #b3cde3"/>
    </g>
    <g clip-path="url(#p762bbae0e5)">
     <use xlink:href="#C0_0_41d0bccb69" x="78.710628" y="174.559107" style="fill: #b3cde3"/>
    </g>
    <g clip-path="url(#p762bbae0e5)">
     <use xlink:href="#C0_0_41d0bccb69" x="75.726082" y="174.625588" style="fill: #b3cde3"/>
    </g>
    <g clip-path="url(#p762bbae0e5)">
     <use xlink:href="#C0_0_41d0bccb69" x="85.082183" y="178.254624" style="fill: #b3cde3"/>
    </g>
    <g clip-path="url(#p762bbae0e5)">
     <use xlink:href="#C0_0_41d0bccb69" x="79.850336" y="171.922851" style="fill: #b3cde3"/>
    </g>
    <g clip-path="url(#p762bbae0e5)">
     <use xlink:href="#C0_0_41d0bccb69" x="83.153693" y="176.231831" style="fill: #b3cde3"/>
    </g>
    <g clip-path="url(#p762bbae0e5)">
     <use xlink:href="#C0_0_41d0bccb69" x="77.073627" y="176.321882" style="fill: #b3cde3"/>
    </g>
    <g clip-path="url(#p762bbae0e5)">
     <use xlink:href="#C0_0_41d0bccb69" x="81.839929" y="178.217065" style="fill: #b3cde3"/>
    </g>
    <g clip-path="url(#p762bbae0e5)">
     <use xlink:href="#C0_0_41d0bccb69" x="82.95183" y="176.134322" style="fill: #b3cde3"/>
    </g>
    <g clip-path="url(#p762bbae0e5)">
     <use xlink:href="#C0_0_41d0bccb69" x="84.188774" y="159.507328" style="fill: #b3cde3"/>
    </g>
    <g clip-path="url(#p762bbae0e5)">
     <use xlink:href="#C0_0_41d0bccb69" x="85.083007" y="165.962248" style="fill: #b3cde3"/>
    </g>
    <g clip-path="url(#p762bbae0e5)">
     <use xlink:href="#C0_0_41d0bccb69" x="76.649133" y="167.555701" style="fill: #b3cde3"/>
    </g>
    <g clip-path="url(#p762bbae0e5)">
     <use xlink:href="#C0_0_41d0bccb69" x="74.449659" y="166.421899" style="fill: #b3cde3"/>
    </g>
    <g clip-path="url(#p762bbae0e5)">
     <use xlink:href="#C0_0_41d0bccb69" x="85.953247" y="172.871132" style="fill: #b3cde3"/>
    </g>
    <g clip-path="url(#p762bbae0e5)">
     <use xlink:href="#C0_0_41d0bccb69" x="74.117285" y="165.782203" style="fill: #b3cde3"/>
    </g>
    <g clip-path="url(#p762bbae0e5)">
     <use xlink:href="#C0_0_41d0bccb69" x="88.876469" y="177.064546" style="fill: #b3cde3"/>
    </g>
    <g clip-path="url(#p762bbae0e5)">
     <use xlink:href="#C0_0_41d0bccb69" x="78.407678" y="168.132915" style="fill: #b3cde3"/>
    </g>
    <g clip-path="url(#p762bbae0e5)">
     <use xlink:href="#C0_0_41d0bccb69" x="87.113687" y="174.804885" style="fill: #b3cde3"/>
    </g>
    <g clip-path="url(#p762bbae0e5)">
     <use xlink:href="#C0_0_41d0bccb69" x="83.711617" y="171.321842" style="fill: #b3cde3"/>
    </g>
    <g clip-path="url(#p762bbae0e5)">
     <use xlink:href="#C0_0_41d0bccb69" x="82.917154" y="168.478779" style="fill: #b3cde3"/>
    </g>
    <g clip-path="url(#p762bbae0e5)">
     <use xlink:href="#C0_0_41d0bccb69" x="78.363958" y="178.122949" style="fill: #b3cde3"/>
    </g>
    <g clip-path="url(#p762bbae0e5)">
     <use xlink:href="#C0_0_41d0bccb69" x="75.752152" y="177.431651" style="fill: #b3cde3"/>
    </g>
    <g clip-path="url(#p762bbae0e5)">
     <use xlink:href="#C0_0_41d0bccb69" x="84.114873" y="175.496517" style="fill: #b3cde3"/>
    </g>
    <g clip-path="url(#p762bbae0e5)">
     <use xlink:href="#C0_0_41d0bccb69" x="85.355018" y="173.497052" style="fill: #b3cde3"/>
    </g>
    <g clip-path="url(#p762bbae0e5)">
     <use xlink:href="#C0_0_41d0bccb69" x="79.12379" y="177.634704" style="fill: #b3cde3"/>
    </g>
    <g clip-path="url(#p762bbae0e5)">
     <use xlink:href="#C0_0_41d0bccb69" x="78.183658" y="172.873705" style="fill: #b3cde3"/>
    </g>
    <g clip-path="url(#p762bbae0e5)">
     <use xlink:href="#C0_0_41d0bccb69" x="74.443518" y="168.362106" style="fill: #b3cde3"/>
    </g>
    <g clip-path="url(#p762bbae0e5)">
     <use xlink:href="#C0_0_41d0bccb69" x="87.416736" y="173.628854" style="fill: #b3cde3"/>
    </g>
    <g clip-path="url(#p762bbae0e5)">
     <use xlink:href="#C0_0_41d0bccb69" x="77.502712" y="165.461676" style="fill: #b3cde3"/>
    </g>
    <g clip-path="url(#p762bbae0e5)">
     <use xlink:href="#C0_0_41d0bccb69" x="83.885589" y="177.020084" style="fill: #b3cde3"/>
    </g>
   </g>
   <g id="PathCollection_2">
    <defs>
     <path id="C1_0_f8c5cb9cb1" d="M 0 1.5 
C 0.397805 1.5 0.77937 1.341951 1.06066 1.06066 
C 1.341951 0.77937 1.5 0.397805 1.5 -0 
C 1.5 -0.397805 1.341951 -0.77937 1.06066 -1.06066 
C 0.77937 -1.341951 0.397805 -1.5 0 -1.5 
C -0.397805 -1.5 -0.77937 -1.341951 -1.06066 -1.06066 
C -1.341951 -0.77937 -1.5 -0.397805 -1.5 0 
C -1.5 0.397805 -1.341951 0.77937 -1.06066 1.06066 
C -0.77937 1.341951 -0.397805 1.5 0 1.5 
z
"/>
    </defs>
    <g clip-path="url(#p762bbae0e5)">
     <use xlink:href="#C1_0_f8c5cb9cb1" x="162.412981" y="81.17887" style="fill: #b3cde3"/>
    </g>
    <g clip-path="url(#p762bbae0e5)">
     <use xlink:href="#C1_0_f8c5cb9cb1" x="153.055818" y="60.626131" style="fill: #b3cde3"/>
    </g>
    <g clip-path="url(#p762bbae0e5)">
     <use xlink:href="#C1_0_f8c5cb9cb1" x="161.021552" y="66.865006" style="fill: #b3cde3"/>
    </g>
    <g clip-path="url(#p762bbae0e5)">
     <use xlink:href="#C1_0_f8c5cb9cb1" x="154.92814" y="77.498583" style="fill: #b3cde3"/>
    </g>
    <g clip-path="url(#p762bbae0e5)">
     <use xlink:href="#C1_0_f8c5cb9cb1" x="161.065243" y="112.127888" style="fill: #b3cde3"/>
    </g>
    <g clip-path="url(#p762bbae0e5)">
     <use xlink:href="#C1_0_f8c5cb9cb1" x="160.866432" y="64.176248" style="fill: #b3cde3"/>
    </g>
    <g clip-path="url(#p762bbae0e5)">
     <use xlink:href="#C1_0_f8c5cb9cb1" x="161.715772" y="75.555961" style="fill: #b3cde3"/>
    </g>
    <g clip-path="url(#p762bbae0e5)">
     <use xlink:href="#C1_0_f8c5cb9cb1" x="160.862398" y="69.368801" style="fill: #b3cde3"/>
    </g>
    <g clip-path="url(#p762bbae0e5)">
     <use xlink:href="#C1_0_f8c5cb9cb1" x="161.872962" y="73.703457" style="fill: #b3cde3"/>
    </g>
    <g clip-path="url(#p762bbae0e5)">
     <use xlink:href="#C1_0_f8c5cb9cb1" x="158.786283" y="69.305925" style="fill: #b3cde3"/>
    </g>
    <g clip-path="url(#p762bbae0e5)">
     <use xlink:href="#C1_0_f8c5cb9cb1" x="156.68112" y="82.594208" style="fill: #b3cde3"/>
    </g>
    <g clip-path="url(#p762bbae0e5)">
     <use xlink:href="#C1_0_f8c5cb9cb1" x="153.193228" y="74.761377" style="fill: #b3cde3"/>
    </g>
    <g clip-path="url(#p762bbae0e5)">
     <use xlink:href="#C1_0_f8c5cb9cb1" x="155.786927" y="79.605323" style="fill: #b3cde3"/>
    </g>
    <g clip-path="url(#p762bbae0e5)">
     <use xlink:href="#C1_0_f8c5cb9cb1" x="164.553222" y="115.17557" style="fill: #b3cde3"/>
    </g>
    <g clip-path="url(#p762bbae0e5)">
     <use xlink:href="#C1_0_f8c5cb9cb1" x="158.744663" y="78.125929" style="fill: #b3cde3"/>
    </g>
    <g clip-path="url(#p762bbae0e5)">
     <use xlink:href="#C1_0_f8c5cb9cb1" x="157.108378" y="70.030057" style="fill: #b3cde3"/>
    </g>
    <g clip-path="url(#p762bbae0e5)">
     <use xlink:href="#C1_0_f8c5cb9cb1" x="160.065503" y="79.19955" style="fill: #b3cde3"/>
    </g>
    <g clip-path="url(#p762bbae0e5)">
     <use xlink:href="#C1_0_f8c5cb9cb1" x="157.453854" y="63.962541" style="fill: #b3cde3"/>
    </g>
    <g clip-path="url(#p762bbae0e5)">
     <use xlink:href="#C1_0_f8c5cb9cb1" x="152.158202" y="81.327659" style="fill: #b3cde3"/>
    </g>
    <g clip-path="url(#p762bbae0e5)">
     <use xlink:href="#C1_0_f8c5cb9cb1" x="163.204444" y="76.048992" style="fill: #b3cde3"/>
    </g>
    <g clip-path="url(#p762bbae0e5)">
     <use xlink:href="#C1_0_f8c5cb9cb1" x="153.541938" y="81.459899" style="fill: #b3cde3"/>
    </g>
    <g clip-path="url(#p762bbae0e5)">
     <use xlink:href="#C1_0_f8c5cb9cb1" x="162.227403" y="79.738616" style="fill: #b3cde3"/>
    </g>
    <g clip-path="url(#p762bbae0e5)">
     <use xlink:href="#C1_0_f8c5cb9cb1" x="156.854867" y="74.685689" style="fill: #b3cde3"/>
    </g>
    <g clip-path="url(#p762bbae0e5)">
     <use xlink:href="#C1_0_f8c5cb9cb1" x="163.267305" y="82.453708" style="fill: #b3cde3"/>
    </g>
    <g clip-path="url(#p762bbae0e5)">
     <use xlink:href="#C1_0_f8c5cb9cb1" x="161.283619" y="79.82579" style="fill: #b3cde3"/>
    </g>
    <g clip-path="url(#p762bbae0e5)">
     <use xlink:href="#C1_0_f8c5cb9cb1" x="160.146522" y="75.945084" style="fill: #b3cde3"/>
    </g>
    <g clip-path="url(#p762bbae0e5)">
     <use xlink:href="#C1_0_f8c5cb9cb1" x="163.862438" y="74.946184" style="fill: #b3cde3"/>
    </g>
    <g clip-path="url(#p762bbae0e5)">
     <use xlink:href="#C1_0_f8c5cb9cb1" x="166.007608" y="68.477636" style="fill: #b3cde3"/>
    </g>
    <g clip-path="url(#p762bbae0e5)">
     <use xlink:href="#C1_0_f8c5cb9cb1" x="163.372723" y="90.155543" style="fill: #b3cde3"/>
    </g>
    <g clip-path="url(#p762bbae0e5)">
     <use xlink:href="#C1_0_f8c5cb9cb1" x="159.28196" y="89.824869" style="fill: #b3cde3"/>
    </g>
    <g clip-path="url(#p762bbae0e5)">
     <use xlink:href="#C1_0_f8c5cb9cb1" x="153.702551" y="97.664906" style="fill: #b3cde3"/>
    </g>
    <g clip-path="url(#p762bbae0e5)">
     <use xlink:href="#C1_0_f8c5cb9cb1" x="161.341707" y="67.32414" style="fill: #b3cde3"/>
    </g>
    <g clip-path="url(#p762bbae0e5)">
     <use xlink:href="#C1_0_f8c5cb9cb1" x="159.893964" y="74.395015" style="fill: #b3cde3"/>
    </g>
    <g clip-path="url(#p762bbae0e5)">
     <use xlink:href="#C1_0_f8c5cb9cb1" x="165.733475" y="79.682859" style="fill: #b3cde3"/>
    </g>
    <g clip-path="url(#p762bbae0e5)">
     <use xlink:href="#C1_0_f8c5cb9cb1" x="158.555565" y="73.622202" style="fill: #b3cde3"/>
    </g>
    <g clip-path="url(#p762bbae0e5)">
     <use xlink:href="#C1_0_f8c5cb9cb1" x="161.476793" y="64.925704" style="fill: #b3cde3"/>
    </g>
    <g clip-path="url(#p762bbae0e5)">
     <use xlink:href="#C1_0_f8c5cb9cb1" x="166.211212" y="69.609777" style="fill: #b3cde3"/>
    </g>
    <g clip-path="url(#p762bbae0e5)">
     <use xlink:href="#C1_0_f8c5cb9cb1" x="158.191825" y="76.699946" style="fill: #b3cde3"/>
    </g>
    <g clip-path="url(#p762bbae0e5)">
     <use xlink:href="#C1_0_f8c5cb9cb1" x="162.983976" y="76.191709" style="fill: #b3cde3"/>
    </g>
    <g clip-path="url(#p762bbae0e5)">
     <use xlink:href="#C1_0_f8c5cb9cb1" x="151.798882" y="79.257056" style="fill: #b3cde3"/>
    </g>
    <g clip-path="url(#p762bbae0e5)">
     <use xlink:href="#C1_0_f8c5cb9cb1" x="151.871171" y="99.619613" style="fill: #b3cde3"/>
    </g>
    <g clip-path="url(#p762bbae0e5)">
     <use xlink:href="#C1_0_f8c5cb9cb1" x="153.866097" y="89.690304" style="fill: #b3cde3"/>
    </g>
    <g clip-path="url(#p762bbae0e5)">
     <use xlink:href="#C1_0_f8c5cb9cb1" x="163.100571" y="70.489954" style="fill: #b3cde3"/>
    </g>
    <g clip-path="url(#p762bbae0e5)">
     <use xlink:href="#C1_0_f8c5cb9cb1" x="161.915993" y="72.912963" style="fill: #b3cde3"/>
    </g>
    <g clip-path="url(#p762bbae0e5)">
     <use xlink:href="#C1_0_f8c5cb9cb1" x="153.882445" y="74.568277" style="fill: #b3cde3"/>
    </g>
    <g clip-path="url(#p762bbae0e5)">
     <use xlink:href="#C1_0_f8c5cb9cb1" x="160.942748" y="68.95017" style="fill: #b3cde3"/>
    </g>
    <g clip-path="url(#p762bbae0e5)">
     <use xlink:href="#C1_0_f8c5cb9cb1" x="158.818729" y="68.507628" style="fill: #b3cde3"/>
    </g>
    <g clip-path="url(#p762bbae0e5)">
     <use xlink:href="#C1_0_f8c5cb9cb1" x="158.929833" y="81.842126" style="fill: #b3cde3"/>
    </g>
    <g clip-path="url(#p762bbae0e5)">
     <use xlink:href="#C1_0_f8c5cb9cb1" x="154.832116" y="87.139183" style="fill: #b3cde3"/>
    </g>
   </g>
   <g id="PathCollection_3">
    <defs>
     <path id="C2_0_1c1978c152" d="M 0 1.5 
C 0.397805 1.5 0.77937 1.341951 1.06066 1.06066 
C 1.341951 0.77937 1.5 0.397805 1.5 -0 
C 1.5 -0.397805 1.341951 -0.77937 1.06066 -1.06066 
C 0.77937 -1.341951 0.397805 -1.5 0 -1.5 
C -0.397805 -1.5 -0.77937 -1.341951 -1.06066 -1.06066 
C -1.341951 -0.77937 -1.5 -0.397805 -1.5 0 
C -1.5 0.397805 -1.341951 0.77937 -1.06066 1.06066 
C -0.77937 1.341951 -0.397805 1.5 0 1.5 
z
"/>
    </defs>
    <g clip-path="url(#p762bbae0e5)">
     <use xlink:href="#C2_0_1c1978c152" x="240.003914" y="85.040199" style="fill: #ccebc5"/>
    </g>
    <g clip-path="url(#p762bbae0e5)">
     <use xlink:href="#C2_0_1c1978c152" x="233.823704" y="70.716235" style="fill: #ccebc5"/>
    </g>
    <g clip-path="url(#p762bbae0e5)">
     <use xlink:href="#C2_0_1c1978c152" x="238.998056" y="73.181932" style="fill: #ccebc5"/>
    </g>
    <g clip-path="url(#p762bbae0e5)">
     <use xlink:href="#C2_0_1c1978c152" x="236.477636" y="90.65389" style="fill: #ccebc5"/>
    </g>
    <g clip-path="url(#p762bbae0e5)">
     <use xlink:href="#C2_0_1c1978c152" x="237.586337" y="129.190619" style="fill: #ccebc5"/>
    </g>
    <g clip-path="url(#p762bbae0e5)">
     <use xlink:href="#C2_0_1c1978c152" x="238.406202" y="65.821044" style="fill: #ccebc5"/>
    </g>
    <g clip-path="url(#p762bbae0e5)">
     <use xlink:href="#C2_0_1c1978c152" x="243.740031" y="83.86395" style="fill: #ccebc5"/>
    </g>
    <g clip-path="url(#p762bbae0e5)">
     <use xlink:href="#C2_0_1c1978c152" x="244.422304" y="81.002425" style="fill: #ccebc5"/>
    </g>
    <g clip-path="url(#p762bbae0e5)">
     <use xlink:href="#C2_0_1c1978c152" x="234.115372" y="94.766428" style="fill: #ccebc5"/>
    </g>
    <g clip-path="url(#p762bbae0e5)">
     <use xlink:href="#C2_0_1c1978c152" x="230.040445" y="82.742118" style="fill: #ccebc5"/>
    </g>
    <g clip-path="url(#p762bbae0e5)">
     <use xlink:href="#C2_0_1c1978c152" x="231.943988" y="104.245881" style="fill: #ccebc5"/>
    </g>
    <g clip-path="url(#p762bbae0e5)">
     <use xlink:href="#C2_0_1c1978c152" x="240.671658" y="98.760374" style="fill: #ccebc5"/>
    </g>
    <g clip-path="url(#p762bbae0e5)">
     <use xlink:href="#C2_0_1c1978c152" x="230.925481" y="81.43415" style="fill: #ccebc5"/>
    </g>
    <g clip-path="url(#p762bbae0e5)">
     <use xlink:href="#C2_0_1c1978c152" x="238.849386" y="151.815524" style="fill: #ccebc5"/>
    </g>
    <g clip-path="url(#p762bbae0e5)">
     <use xlink:href="#C2_0_1c1978c152" x="230.347363" y="83.924678" style="fill: #ccebc5"/>
    </g>
    <g clip-path="url(#p762bbae0e5)">
     <use xlink:href="#C2_0_1c1978c152" x="234.869098" y="70.841318" style="fill: #ccebc5"/>
    </g>
    <g clip-path="url(#p762bbae0e5)">
     <use xlink:href="#C2_0_1c1978c152" x="234.738081" y="83.587289" style="fill: #ccebc5"/>
    </g>
    <g clip-path="url(#p762bbae0e5)">
     <use xlink:href="#C2_0_1c1978c152" x="234.680727" y="69.258504" style="fill: #ccebc5"/>
    </g>
    <g clip-path="url(#p762bbae0e5)">
     <use xlink:href="#C2_0_1c1978c152" x="241.196615" y="96.177767" style="fill: #ccebc5"/>
    </g>
    <g clip-path="url(#p762bbae0e5)">
     <use xlink:href="#C2_0_1c1978c152" x="233.34783" y="80.363017" style="fill: #ccebc5"/>
    </g>
    <g clip-path="url(#p762bbae0e5)">
     <use xlink:href="#C2_0_1c1978c152" x="233.94606" y="94.547189" style="fill: #ccebc5"/>
    </g>
    <g clip-path="url(#p762bbae0e5)">
     <use xlink:href="#C2_0_1c1978c152" x="234.405041" y="96.020829" style="fill: #ccebc5"/>
    </g>
    <g clip-path="url(#p762bbae0e5)">
     <use xlink:href="#C2_0_1c1978c152" x="231.738675" y="78.968106" style="fill: #ccebc5"/>
    </g>
    <g clip-path="url(#p762bbae0e5)">
     <use xlink:href="#C2_0_1c1978c152" x="238.703158" y="102.662061" style="fill: #ccebc5"/>
    </g>
    <g clip-path="url(#p762bbae0e5)">
     <use xlink:href="#C2_0_1c1978c152" x="233.763191" y="92.16667" style="fill: #ccebc5"/>
    </g>
    <g clip-path="url(#p762bbae0e5)">
     <use xlink:href="#C2_0_1c1978c152" x="237.028511" y="85.989801" style="fill: #ccebc5"/>
    </g>
    <g clip-path="url(#p762bbae0e5)">
     <use xlink:href="#C2_0_1c1978c152" x="243.679586" y="87.60931" style="fill: #ccebc5"/>
    </g>
    <g clip-path="url(#p762bbae0e5)">
     <use xlink:href="#C2_0_1c1978c152" x="232.336385" y="73.412185" style="fill: #ccebc5"/>
    </g>
    <g clip-path="url(#p762bbae0e5)">
     <use xlink:href="#C2_0_1c1978c152" x="240.034173" y="100.44495" style="fill: #ccebc5"/>
    </g>
    <g clip-path="url(#p762bbae0e5)">
     <use xlink:href="#C2_0_1c1978c152" x="231.064223" y="130.60375" style="fill: #ccebc5"/>
    </g>
    <g clip-path="url(#p762bbae0e5)">
     <use xlink:href="#C2_0_1c1978c152" x="236.404841" y="118.776869" style="fill: #ccebc5"/>
    </g>
    <g clip-path="url(#p762bbae0e5)">
     <use xlink:href="#C2_0_1c1978c152" x="244.454334" y="77.799464" style="fill: #ccebc5"/>
    </g>
    <g clip-path="url(#p762bbae0e5)">
     <use xlink:href="#C2_0_1c1978c152" x="241.721759" y="79.995202" style="fill: #ccebc5"/>
    </g>
    <g clip-path="url(#p762bbae0e5)">
     <use xlink:href="#C2_0_1c1978c152" x="236.276435" y="114.666309" style="fill: #ccebc5"/>
    </g>
    <g clip-path="url(#p762bbae0e5)">
     <use xlink:href="#C2_0_1c1978c152" x="230.064883" y="70.379291" style="fill: #ccebc5"/>
    </g>
    <g clip-path="url(#p762bbae0e5)">
     <use xlink:href="#C2_0_1c1978c152" x="240.731263" y="73.828076" style="fill: #ccebc5"/>
    </g>
    <g clip-path="url(#p762bbae0e5)">
     <use xlink:href="#C2_0_1c1978c152" x="238.482708" y="80.700042" style="fill: #ccebc5"/>
    </g>
    <g clip-path="url(#p762bbae0e5)">
     <use xlink:href="#C2_0_1c1978c152" x="234.887299" y="92.358113" style="fill: #ccebc5"/>
    </g>
    <g clip-path="url(#p762bbae0e5)">
     <use xlink:href="#C2_0_1c1978c152" x="229.617974" y="84.459054" style="fill: #ccebc5"/>
    </g>
    <g clip-path="url(#p762bbae0e5)">
     <use xlink:href="#C2_0_1c1978c152" x="244.588091" y="85.561585" style="fill: #ccebc5"/>
    </g>
    <g clip-path="url(#p762bbae0e5)">
     <use xlink:href="#C2_0_1c1978c152" x="238.107276" y="114.382786" style="fill: #ccebc5"/>
    </g>
    <g clip-path="url(#p762bbae0e5)">
     <use xlink:href="#C2_0_1c1978c152" x="231.386994" y="107.801947" style="fill: #ccebc5"/>
    </g>
    <g clip-path="url(#p762bbae0e5)">
     <use xlink:href="#C2_0_1c1978c152" x="229.765927" y="84.333579" style="fill: #ccebc5"/>
    </g>
    <g clip-path="url(#p762bbae0e5)">
     <use xlink:href="#C2_0_1c1978c152" x="231.929837" y="79.040234" style="fill: #ccebc5"/>
    </g>
    <g clip-path="url(#p762bbae0e5)">
     <use xlink:href="#C2_0_1c1978c152" x="231.461319" y="91.869356" style="fill: #ccebc5"/>
    </g>
    <g clip-path="url(#p762bbae0e5)">
     <use xlink:href="#C2_0_1c1978c152" x="231.77803" y="91.932973" style="fill: #ccebc5"/>
    </g>
    <g clip-path="url(#p762bbae0e5)">
     <use xlink:href="#C2_0_1c1978c152" x="230.900503" y="68.832578" style="fill: #ccebc5"/>
    </g>
    <g clip-path="url(#p762bbae0e5)">
     <use xlink:href="#C2_0_1c1978c152" x="240.591742" y="99.137315" style="fill: #ccebc5"/>
    </g>
    <g clip-path="url(#p762bbae0e5)">
     <use xlink:href="#C2_0_1c1978c152" x="230.667097" y="104.740299" style="fill: #ccebc5"/>
    </g>
   </g>
   <g id="patch_3">
    <path d="M 50.808252 176.575527 
L 112.87427 176.575527 
L 112.87427 167.998303 
L 50.808252 167.998303 
L 50.808252 176.575527 
z
" clip-path="url(#p762bbae0e5)" style="fill: #b9ccdd; stroke: #7a7a7a; stroke-width: 1.5; stroke-linejoin: miter"/>
   </g>
   <g id="patch_4">
    <path d="M 128.390774 81.327659 
L 190.456792 81.327659 
L 190.456792 70.030057 
L 128.390774 70.030057 
L 128.390774 81.327659 
z
" clip-path="url(#p762bbae0e5)" style="fill: #b9ccdd; stroke: #7a7a7a; stroke-width: 1.5; stroke-linejoin: miter"/>
   </g>
   <g id="patch_5">
    <path d="M 205.973296 98.760374 
L 268.039314 98.760374 
L 268.039314 79.995202 
L 205.973296 79.995202 
L 205.973296 98.760374 
z
" clip-path="url(#p762bbae0e5)" style="fill: #cfe6ca; stroke: #7a7a7a; stroke-width: 1.5; stroke-linejoin: miter"/>
   </g>
   <g id="matplotlib.axis_1">
    <g id="xtick_1">
     <g id="line2d_1">
      <defs>
       <path id="m49ad0bb5dc" d="M 0 0 
L 0 3.5 
" style="stroke: #000000; stroke-width: 0.8"/>
      </defs>
      <g>
       <use xlink:href="#m49ad0bb5dc" x="81.841261" y="219.852246" style="stroke: #000000; stroke-width: 0.8"/>
      </g>
     </g>
     <g id="text_1">
      <!-- SC-eFC dir -->
      <g transform="translate(57.840043 233.432686)rotate(-330)scale(0.1 -0.1)">
       <defs>
        <path id="DejaVuSans-53" d="M 3425 4513 
L 3425 3897 
Q 3066 4069 2747 4153 
Q 2428 4238 2131 4238 
Q 1616 4238 1336 4038 
Q 1056 3838 1056 3469 
Q 1056 3159 1242 3001 
Q 1428 2844 1947 2747 
L 2328 2669 
Q 3034 2534 3370 2195 
Q 3706 1856 3706 1288 
Q 3706 609 3251 259 
Q 2797 -91 1919 -91 
Q 1588 -91 1214 -16 
Q 841 59 441 206 
L 441 856 
Q 825 641 1194 531 
Q 1563 422 1919 422 
Q 2459 422 2753 634 
Q 3047 847 3047 1241 
Q 3047 1584 2836 1778 
Q 2625 1972 2144 2069 
L 1759 2144 
Q 1053 2284 737 2584 
Q 422 2884 422 3419 
Q 422 4038 858 4394 
Q 1294 4750 2059 4750 
Q 2388 4750 2728 4690 
Q 3069 4631 3425 4513 
z
" transform="scale(0.015625)"/>
        <path id="DejaVuSans-43" d="M 4122 4306 
L 4122 3641 
Q 3803 3938 3442 4084 
Q 3081 4231 2675 4231 
Q 1875 4231 1450 3742 
Q 1025 3253 1025 2328 
Q 1025 1406 1450 917 
Q 1875 428 2675 428 
Q 3081 428 3442 575 
Q 3803 722 4122 1019 
L 4122 359 
Q 3791 134 3420 21 
Q 3050 -91 2638 -91 
Q 1578 -91 968 557 
Q 359 1206 359 2328 
Q 359 3453 968 4101 
Q 1578 4750 2638 4750 
Q 3056 4750 3426 4639 
Q 3797 4528 4122 4306 
z
" transform="scale(0.015625)"/>
        <path id="DejaVuSans-2d" d="M 313 2009 
L 1997 2009 
L 1997 1497 
L 313 1497 
L 313 2009 
z
" transform="scale(0.015625)"/>
        <path id="DejaVuSans-65" d="M 3597 1894 
L 3597 1613 
L 953 1613 
Q 991 1019 1311 708 
Q 1631 397 2203 397 
Q 2534 397 2845 478 
Q 3156 559 3463 722 
L 3463 178 
Q 3153 47 2828 -22 
Q 2503 -91 2169 -91 
Q 1331 -91 842 396 
Q 353 884 353 1716 
Q 353 2575 817 3079 
Q 1281 3584 2069 3584 
Q 2775 3584 3186 3129 
Q 3597 2675 3597 1894 
z
M 3022 2063 
Q 3016 2534 2758 2815 
Q 2500 3097 2075 3097 
Q 1594 3097 1305 2825 
Q 1016 2553 972 2059 
L 3022 2063 
z
" transform="scale(0.015625)"/>
        <path id="DejaVuSans-46" d="M 628 4666 
L 3309 4666 
L 3309 4134 
L 1259 4134 
L 1259 2759 
L 3109 2759 
L 3109 2228 
L 1259 2228 
L 1259 0 
L 628 0 
L 628 4666 
z
" transform="scale(0.015625)"/>
        <path id="DejaVuSans-20" transform="scale(0.015625)"/>
        <path id="DejaVuSans-64" d="M 2906 2969 
L 2906 4863 
L 3481 4863 
L 3481 0 
L 2906 0 
L 2906 525 
Q 2725 213 2448 61 
Q 2172 -91 1784 -91 
Q 1150 -91 751 415 
Q 353 922 353 1747 
Q 353 2572 751 3078 
Q 1150 3584 1784 3584 
Q 2172 3584 2448 3432 
Q 2725 3281 2906 2969 
z
M 947 1747 
Q 947 1113 1208 752 
Q 1469 391 1925 391 
Q 2381 391 2643 752 
Q 2906 1113 2906 1747 
Q 2906 2381 2643 2742 
Q 2381 3103 1925 3103 
Q 1469 3103 1208 2742 
Q 947 2381 947 1747 
z
" transform="scale(0.015625)"/>
        <path id="DejaVuSans-69" d="M 603 3500 
L 1178 3500 
L 1178 0 
L 603 0 
L 603 3500 
z
M 603 4863 
L 1178 4863 
L 1178 4134 
L 603 4134 
L 603 4863 
z
" transform="scale(0.015625)"/>
        <path id="DejaVuSans-72" d="M 2631 2963 
Q 2534 3019 2420 3045 
Q 2306 3072 2169 3072 
Q 1681 3072 1420 2755 
Q 1159 2438 1159 1844 
L 1159 0 
L 581 0 
L 581 3500 
L 1159 3500 
L 1159 2956 
Q 1341 3275 1631 3429 
Q 1922 3584 2338 3584 
Q 2397 3584 2469 3576 
Q 2541 3569 2628 3553 
L 2631 2963 
z
" transform="scale(0.015625)"/>
       </defs>
       <use xlink:href="#DejaVuSans-53"/>
       <use xlink:href="#DejaVuSans-43" x="63.476562"/>
       <use xlink:href="#DejaVuSans-2d" x="133.300781"/>
       <use xlink:href="#DejaVuSans-65" x="169.384766"/>
       <use xlink:href="#DejaVuSans-46" x="230.908203"/>
       <use xlink:href="#DejaVuSans-43" x="288.427734"/>
       <use xlink:href="#DejaVuSans-20" x="358.251953"/>
       <use xlink:href="#DejaVuSans-64" x="390.039062"/>
       <use xlink:href="#DejaVuSans-69" x="453.515625"/>
       <use xlink:href="#DejaVuSans-72" x="481.298828"/>
      </g>
     </g>
    </g>
    <g id="xtick_2">
     <g id="line2d_2">
      <g>
       <use xlink:href="#m49ad0bb5dc" x="159.423783" y="219.852246" style="stroke: #000000; stroke-width: 0.8"/>
      </g>
     </g>
     <g id="text_2">
      <!-- predFC-eFC dir -->
      <g transform="translate(125.836069 233.432686)rotate(-330)scale(0.1 -0.1)">
       <defs>
        <path id="DejaVuSans-70" d="M 1159 525 
L 1159 -1331 
L 581 -1331 
L 581 3500 
L 1159 3500 
L 1159 2969 
Q 1341 3281 1617 3432 
Q 1894 3584 2278 3584 
Q 2916 3584 3314 3078 
Q 3713 2572 3713 1747 
Q 3713 922 3314 415 
Q 2916 -91 2278 -91 
Q 1894 -91 1617 61 
Q 1341 213 1159 525 
z
M 3116 1747 
Q 3116 2381 2855 2742 
Q 2594 3103 2138 3103 
Q 1681 3103 1420 2742 
Q 1159 2381 1159 1747 
Q 1159 1113 1420 752 
Q 1681 391 2138 391 
Q 2594 391 2855 752 
Q 3116 1113 3116 1747 
z
" transform="scale(0.015625)"/>
       </defs>
       <use xlink:href="#DejaVuSans-70"/>
       <use xlink:href="#DejaVuSans-72" x="63.476562"/>
       <use xlink:href="#DejaVuSans-65" x="102.339844"/>
       <use xlink:href="#DejaVuSans-64" x="163.863281"/>
       <use xlink:href="#DejaVuSans-46" x="227.339844"/>
       <use xlink:href="#DejaVuSans-43" x="284.859375"/>
       <use xlink:href="#DejaVuSans-2d" x="354.683594"/>
       <use xlink:href="#DejaVuSans-65" x="390.767578"/>
       <use xlink:href="#DejaVuSans-46" x="452.291016"/>
       <use xlink:href="#DejaVuSans-43" x="509.810547"/>
       <use xlink:href="#DejaVuSans-20" x="579.634766"/>
       <use xlink:href="#DejaVuSans-64" x="611.421875"/>
       <use xlink:href="#DejaVuSans-69" x="674.898438"/>
       <use xlink:href="#DejaVuSans-72" x="702.681641"/>
      </g>
     </g>
    </g>
    <g id="xtick_3">
     <g id="line2d_3">
      <g>
       <use xlink:href="#m49ad0bb5dc" x="237.006305" y="219.852246" style="stroke: #000000; stroke-width: 0.8"/>
      </g>
     </g>
     <g id="text_3">
      <!-- predFC-eFC indir -->
      <g transform="translate(199.47141 233.432686)rotate(-330)scale(0.1 -0.1)">
       <defs>
        <path id="DejaVuSans-6e" d="M 3513 2113 
L 3513 0 
L 2938 0 
L 2938 2094 
Q 2938 2591 2744 2837 
Q 2550 3084 2163 3084 
Q 1697 3084 1428 2787 
Q 1159 2491 1159 1978 
L 1159 0 
L 581 0 
L 581 3500 
L 1159 3500 
L 1159 2956 
Q 1366 3272 1645 3428 
Q 1925 3584 2291 3584 
Q 2894 3584 3203 3211 
Q 3513 2838 3513 2113 
z
" transform="scale(0.015625)"/>
       </defs>
       <use xlink:href="#DejaVuSans-70"/>
       <use xlink:href="#DejaVuSans-72" x="63.476562"/>
       <use xlink:href="#DejaVuSans-65" x="102.339844"/>
       <use xlink:href="#DejaVuSans-64" x="163.863281"/>
       <use xlink:href="#DejaVuSans-46" x="227.339844"/>
       <use xlink:href="#DejaVuSans-43" x="284.859375"/>
       <use xlink:href="#DejaVuSans-2d" x="354.683594"/>
       <use xlink:href="#DejaVuSans-65" x="390.767578"/>
       <use xlink:href="#DejaVuSans-46" x="452.291016"/>
       <use xlink:href="#DejaVuSans-43" x="509.810547"/>
       <use xlink:href="#DejaVuSans-20" x="579.634766"/>
       <use xlink:href="#DejaVuSans-69" x="611.421875"/>
       <use xlink:href="#DejaVuSans-6e" x="639.205078"/>
       <use xlink:href="#DejaVuSans-64" x="702.583984"/>
       <use xlink:href="#DejaVuSans-69" x="766.060547"/>
       <use xlink:href="#DejaVuSans-72" x="793.84375"/>
      </g>
     </g>
    </g>
   </g>
   <g id="matplotlib.axis_2">
    <g id="ytick_1">
     <g id="line2d_4">
      <defs>
       <path id="m00b84c0e16" d="M 0 0 
L -3.5 0 
" style="stroke: #000000; stroke-width: 0.8"/>
      </defs>
      <g>
       <use xlink:href="#m00b84c0e16" x="43.05" y="219.852246" style="stroke: #000000; stroke-width: 0.8"/>
      </g>
     </g>
     <g id="text_4">
      <!-- 0.0 -->
      <g transform="translate(24.917812 222.511699)scale(0.07 -0.07)">
       <defs>
        <path id="DejaVuSans-30" d="M 2034 4250 
Q 1547 4250 1301 3770 
Q 1056 3291 1056 2328 
Q 1056 1369 1301 889 
Q 1547 409 2034 409 
Q 2525 409 2770 889 
Q 3016 1369 3016 2328 
Q 3016 3291 2770 3770 
Q 2525 4250 2034 4250 
z
M 2034 4750 
Q 2819 4750 3233 4129 
Q 3647 3509 3647 2328 
Q 3647 1150 3233 529 
Q 2819 -91 2034 -91 
Q 1250 -91 836 529 
Q 422 1150 422 2328 
Q 422 3509 836 4129 
Q 1250 4750 2034 4750 
z
" transform="scale(0.015625)"/>
        <path id="DejaVuSans-2e" d="M 684 794 
L 1344 794 
L 1344 0 
L 684 0 
L 684 794 
z
" transform="scale(0.015625)"/>
       </defs>
       <use xlink:href="#DejaVuSans-30"/>
       <use xlink:href="#DejaVuSans-2e" x="63.623047"/>
       <use xlink:href="#DejaVuSans-30" x="95.410156"/>
      </g>
     </g>
    </g>
    <g id="ytick_2">
     <g id="line2d_5">
      <g>
       <use xlink:href="#m00b84c0e16" x="43.05" y="178.541797" style="stroke: #000000; stroke-width: 0.8"/>
      </g>
     </g>
     <g id="text_5">
      <!-- 0.2 -->
      <g transform="translate(24.917812 181.20125)scale(0.07 -0.07)">
       <defs>
        <path id="DejaVuSans-32" d="M 1228 531 
L 3431 531 
L 3431 0 
L 469 0 
L 469 531 
Q 828 903 1448 1529 
Q 2069 2156 2228 2338 
Q 2531 2678 2651 2914 
Q 2772 3150 2772 3378 
Q 2772 3750 2511 3984 
Q 2250 4219 1831 4219 
Q 1534 4219 1204 4116 
Q 875 4013 500 3803 
L 500 4441 
Q 881 4594 1212 4672 
Q 1544 4750 1819 4750 
Q 2544 4750 2975 4387 
Q 3406 4025 3406 3419 
Q 3406 3131 3298 2873 
Q 3191 2616 2906 2266 
Q 2828 2175 2409 1742 
Q 1991 1309 1228 531 
z
" transform="scale(0.015625)"/>
       </defs>
       <use xlink:href="#DejaVuSans-30"/>
       <use xlink:href="#DejaVuSans-2e" x="63.623047"/>
       <use xlink:href="#DejaVuSans-32" x="95.410156"/>
      </g>
     </g>
    </g>
    <g id="ytick_3">
     <g id="line2d_6">
      <g>
       <use xlink:href="#m00b84c0e16" x="43.05" y="137.231348" style="stroke: #000000; stroke-width: 0.8"/>
      </g>
     </g>
     <g id="text_6">
      <!-- 0.4 -->
      <g transform="translate(24.917812 139.890801)scale(0.07 -0.07)">
       <defs>
        <path id="DejaVuSans-34" d="M 2419 4116 
L 825 1625 
L 2419 1625 
L 2419 4116 
z
M 2253 4666 
L 3047 4666 
L 3047 1625 
L 3713 1625 
L 3713 1100 
L 3047 1100 
L 3047 0 
L 2419 0 
L 2419 1100 
L 313 1100 
L 313 1709 
L 2253 4666 
z
" transform="scale(0.015625)"/>
       </defs>
       <use xlink:href="#DejaVuSans-30"/>
       <use xlink:href="#DejaVuSans-2e" x="63.623047"/>
       <use xlink:href="#DejaVuSans-34" x="95.410156"/>
      </g>
     </g>
    </g>
    <g id="ytick_4">
     <g id="line2d_7">
      <g>
       <use xlink:href="#m00b84c0e16" x="43.05" y="95.920898" style="stroke: #000000; stroke-width: 0.8"/>
      </g>
     </g>
     <g id="text_7">
      <!-- 0.6 -->
      <g transform="translate(24.917812 98.580352)scale(0.07 -0.07)">
       <defs>
        <path id="DejaVuSans-36" d="M 2113 2584 
Q 1688 2584 1439 2293 
Q 1191 2003 1191 1497 
Q 1191 994 1439 701 
Q 1688 409 2113 409 
Q 2538 409 2786 701 
Q 3034 994 3034 1497 
Q 3034 2003 2786 2293 
Q 2538 2584 2113 2584 
z
M 3366 4563 
L 3366 3988 
Q 3128 4100 2886 4159 
Q 2644 4219 2406 4219 
Q 1781 4219 1451 3797 
Q 1122 3375 1075 2522 
Q 1259 2794 1537 2939 
Q 1816 3084 2150 3084 
Q 2853 3084 3261 2657 
Q 3669 2231 3669 1497 
Q 3669 778 3244 343 
Q 2819 -91 2113 -91 
Q 1303 -91 875 529 
Q 447 1150 447 2328 
Q 447 3434 972 4092 
Q 1497 4750 2381 4750 
Q 2619 4750 2861 4703 
Q 3103 4656 3366 4563 
z
" transform="scale(0.015625)"/>
       </defs>
       <use xlink:href="#DejaVuSans-30"/>
       <use xlink:href="#DejaVuSans-2e" x="63.623047"/>
       <use xlink:href="#DejaVuSans-36" x="95.410156"/>
      </g>
     </g>
    </g>
    <g id="ytick_5">
     <g id="line2d_8">
      <g>
       <use xlink:href="#m00b84c0e16" x="43.05" y="54.610449" style="stroke: #000000; stroke-width: 0.8"/>
      </g>
     </g>
     <g id="text_8">
      <!-- 0.8 -->
      <g transform="translate(24.917812 57.269902)scale(0.07 -0.07)">
       <defs>
        <path id="DejaVuSans-38" d="M 2034 2216 
Q 1584 2216 1326 1975 
Q 1069 1734 1069 1313 
Q 1069 891 1326 650 
Q 1584 409 2034 409 
Q 2484 409 2743 651 
Q 3003 894 3003 1313 
Q 3003 1734 2745 1975 
Q 2488 2216 2034 2216 
z
M 1403 2484 
Q 997 2584 770 2862 
Q 544 3141 544 3541 
Q 544 4100 942 4425 
Q 1341 4750 2034 4750 
Q 2731 4750 3128 4425 
Q 3525 4100 3525 3541 
Q 3525 3141 3298 2862 
Q 3072 2584 2669 2484 
Q 3125 2378 3379 2068 
Q 3634 1759 3634 1313 
Q 3634 634 3220 271 
Q 2806 -91 2034 -91 
Q 1263 -91 848 271 
Q 434 634 434 1313 
Q 434 1759 690 2068 
Q 947 2378 1403 2484 
z
M 1172 3481 
Q 1172 3119 1398 2916 
Q 1625 2713 2034 2713 
Q 2441 2713 2670 2916 
Q 2900 3119 2900 3481 
Q 2900 3844 2670 4047 
Q 2441 4250 2034 4250 
Q 1625 4250 1398 4047 
Q 1172 3844 1172 3481 
z
" transform="scale(0.015625)"/>
       </defs>
       <use xlink:href="#DejaVuSans-30"/>
       <use xlink:href="#DejaVuSans-2e" x="63.623047"/>
       <use xlink:href="#DejaVuSans-38" x="95.410156"/>
      </g>
     </g>
    </g>
    <g id="ytick_6">
     <g id="line2d_9">
      <g>
       <use xlink:href="#m00b84c0e16" x="43.05" y="13.3" style="stroke: #000000; stroke-width: 0.8"/>
      </g>
     </g>
     <g id="text_9">
      <!-- 1.0 -->
      <g transform="translate(24.917812 15.959453)scale(0.07 -0.07)">
       <defs>
        <path id="DejaVuSans-31" d="M 794 531 
L 1825 531 
L 1825 4091 
L 703 3866 
L 703 4441 
L 1819 4666 
L 2450 4666 
L 2450 531 
L 3481 531 
L 3481 0 
L 794 0 
L 794 531 
z
" transform="scale(0.015625)"/>
       </defs>
       <use xlink:href="#DejaVuSans-31"/>
       <use xlink:href="#DejaVuSans-2e" x="63.623047"/>
       <use xlink:href="#DejaVuSans-30" x="95.410156"/>
      </g>
     </g>
    </g>
    <g id="text_10">
     <!-- Correlation -->
     <g transform="translate(18.838125 144.144873)rotate(-90)scale(0.1 -0.1)">
      <defs>
       <path id="DejaVuSans-6f" d="M 1959 3097 
Q 1497 3097 1228 2736 
Q 959 2375 959 1747 
Q 959 1119 1226 758 
Q 1494 397 1959 397 
Q 2419 397 2687 759 
Q 2956 1122 2956 1747 
Q 2956 2369 2687 2733 
Q 2419 3097 1959 3097 
z
M 1959 3584 
Q 2709 3584 3137 3096 
Q 3566 2609 3566 1747 
Q 3566 888 3137 398 
Q 2709 -91 1959 -91 
Q 1206 -91 779 398 
Q 353 888 353 1747 
Q 353 2609 779 3096 
Q 1206 3584 1959 3584 
z
" transform="scale(0.015625)"/>
       <path id="DejaVuSans-6c" d="M 603 4863 
L 1178 4863 
L 1178 0 
L 603 0 
L 603 4863 
z
" transform="scale(0.015625)"/>
       <path id="DejaVuSans-61" d="M 2194 1759 
Q 1497 1759 1228 1600 
Q 959 1441 959 1056 
Q 959 750 1161 570 
Q 1363 391 1709 391 
Q 2188 391 2477 730 
Q 2766 1069 2766 1631 
L 2766 1759 
L 2194 1759 
z
M 3341 1997 
L 3341 0 
L 2766 0 
L 2766 531 
Q 2569 213 2275 61 
Q 1981 -91 1556 -91 
Q 1019 -91 701 211 
Q 384 513 384 1019 
Q 384 1609 779 1909 
Q 1175 2209 1959 2209 
L 2766 2209 
L 2766 2266 
Q 2766 2663 2505 2880 
Q 2244 3097 1772 3097 
Q 1472 3097 1187 3025 
Q 903 2953 641 2809 
L 641 3341 
Q 956 3463 1253 3523 
Q 1550 3584 1831 3584 
Q 2591 3584 2966 3190 
Q 3341 2797 3341 1997 
z
" transform="scale(0.015625)"/>
       <path id="DejaVuSans-74" d="M 1172 4494 
L 1172 3500 
L 2356 3500 
L 2356 3053 
L 1172 3053 
L 1172 1153 
Q 1172 725 1289 603 
Q 1406 481 1766 481 
L 2356 481 
L 2356 0 
L 1766 0 
Q 1100 0 847 248 
Q 594 497 594 1153 
L 594 3053 
L 172 3053 
L 172 3500 
L 594 3500 
L 594 4494 
L 1172 4494 
z
" transform="scale(0.015625)"/>
      </defs>
      <use xlink:href="#DejaVuSans-43"/>
      <use xlink:href="#DejaVuSans-6f" x="69.824219"/>
      <use xlink:href="#DejaVuSans-72" x="131.005859"/>
      <use xlink:href="#DejaVuSans-72" x="170.369141"/>
      <use xlink:href="#DejaVuSans-65" x="209.232422"/>
      <use xlink:href="#DejaVuSans-6c" x="270.755859"/>
      <use xlink:href="#DejaVuSans-61" x="298.539062"/>
      <use xlink:href="#DejaVuSans-74" x="359.818359"/>
      <use xlink:href="#DejaVuSans-69" x="399.027344"/>
      <use xlink:href="#DejaVuSans-6f" x="426.810547"/>
      <use xlink:href="#DejaVuSans-6e" x="487.992188"/>
     </g>
    </g>
   </g>
   <g id="line2d_10">
    <path d="M 81.841261 176.575527 
L 81.841261 178.254624 
" clip-path="url(#p762bbae0e5)" style="fill: none; stroke: #7a7a7a; stroke-width: 1.5; stroke-linecap: square"/>
   </g>
   <g id="line2d_11">
    <path d="M 81.841261 167.998303 
L 81.841261 163.33098 
" clip-path="url(#p762bbae0e5)" style="fill: none; stroke: #7a7a7a; stroke-width: 1.5; stroke-linecap: square"/>
   </g>
   <g id="line2d_12">
    <path d="M 66.324757 178.254624 
L 97.357765 178.254624 
" clip-path="url(#p762bbae0e5)" style="fill: none; stroke: #7a7a7a; stroke-width: 1.5; stroke-linecap: square"/>
   </g>
   <g id="line2d_13">
    <path d="M 66.324757 163.33098 
L 97.357765 163.33098 
" clip-path="url(#p762bbae0e5)" style="fill: none; stroke: #7a7a7a; stroke-width: 1.5; stroke-linecap: square"/>
   </g>
   <g id="line2d_14">
    <path d="M 159.423783 81.327659 
L 159.423783 99.619613 
" clip-path="url(#p762bbae0e5)" style="fill: none; stroke: #7a7a7a; stroke-width: 1.5; stroke-linecap: square"/>
   </g>
   <g id="line2d_15">
    <path d="M 159.423783 70.030057 
L 159.423783 64.176248 
" clip-path="url(#p762bbae0e5)" style="fill: none; stroke: #7a7a7a; stroke-width: 1.5; stroke-linecap: square"/>
   </g>
   <g id="line2d_16">
    <path d="M 143.907279 99.619613 
L 174.940287 99.619613 
" clip-path="url(#p762bbae0e5)" style="fill: none; stroke: #7a7a7a; stroke-width: 1.5; stroke-linecap: square"/>
   </g>
   <g id="line2d_17">
    <path d="M 143.907279 64.176248 
L 174.940287 64.176248 
" clip-path="url(#p762bbae0e5)" style="fill: none; stroke: #7a7a7a; stroke-width: 1.5; stroke-linecap: square"/>
   </g>
   <g id="line2d_18">
    <path d="M 237.006305 98.760374 
L 237.006305 129.190619 
" clip-path="url(#p762bbae0e5)" style="fill: none; stroke: #7a7a7a; stroke-width: 1.5; stroke-linecap: square"/>
   </g>
   <g id="line2d_19">
    <path d="M 237.006305 79.995202 
L 237.006305 69.258504 
" clip-path="url(#p762bbae0e5)" style="fill: none; stroke: #7a7a7a; stroke-width: 1.5; stroke-linecap: square"/>
   </g>
   <g id="line2d_20">
    <path d="M 221.489801 129.190619 
L 252.522809 129.190619 
" clip-path="url(#p762bbae0e5)" style="fill: none; stroke: #7a7a7a; stroke-width: 1.5; stroke-linecap: square"/>
   </g>
   <g id="line2d_21">
    <path d="M 221.489801 69.258504 
L 252.522809 69.258504 
" clip-path="url(#p762bbae0e5)" style="fill: none; stroke: #7a7a7a; stroke-width: 1.5; stroke-linecap: square"/>
   </g>
   <g id="line2d_22">
    <path d="M 50.808252 173.497052 
L 112.87427 173.497052 
" clip-path="url(#p762bbae0e5)" style="fill: none; stroke: #7a7a7a; stroke-width: 1.5; stroke-linecap: square"/>
   </g>
   <g id="line2d_23">
    <path d="M 128.390774 76.048992 
L 190.456792 76.048992 
" clip-path="url(#p762bbae0e5)" style="fill: none; stroke: #7a7a7a; stroke-width: 1.5; stroke-linecap: square"/>
   </g>
   <g id="line2d_24">
    <path d="M 205.973296 85.561585 
L 268.039314 85.561585 
" clip-path="url(#p762bbae0e5)" style="fill: none; stroke: #7a7a7a; stroke-width: 1.5; stroke-linecap: square"/>
   </g>
   <g id="patch_6">
    <path d="M 43.05 219.852246 
L 43.05 13.3 
" style="fill: none; stroke: #000000; stroke-width: 0.8; stroke-linejoin: miter; stroke-linecap: square"/>
   </g>
   <g id="patch_7">
    <path d="M 43.05 219.852246 
L 275.797566 219.852246 
" style="fill: none; stroke: #000000; stroke-width: 0.8; stroke-linejoin: miter; stroke-linecap: square"/>
   </g>
  </g>
 </g>
 <defs>
  <clipPath id="p762bbae0e5">
   <rect x="43.05" y="13.3" width="232.747566" height="206.552246"/>
  </clipPath>
 </defs>
</svg>
