<?xml version="1.0" encoding="utf-8" standalone="no"?>
<!DOCTYPE svg PUBLIC "-//W3C//DTD SVG 1.1//EN"
  "http://www.w3.org/Graphics/SVG/1.1/DTD/svg11.dtd">
<svg xmlns:xlink="http://www.w3.org/1999/xlink" width="336.34375pt" height="277.455877pt" viewBox="0 0 336.34375 277.455877" xmlns="http://www.w3.org/2000/svg" version="1.1">
 <metadata>
  <rdf:RDF xmlns:dc="http://purl.org/dc/elements/1.1/" xmlns:cc="http://creativecommons.org/ns#" xmlns:rdf="http://www.w3.org/1999/02/22-rdf-syntax-ns#">
   <cc:Work>
    <dc:type rdf:resource="http://purl.org/dc/dcmitype/StillImage"/>
    <dc:date>2023-04-19T15:33:24.427068</dc:date>
    <dc:format>image/svg+xml</dc:format>
    <dc:creator>
     <cc:Agent>
      <dc:title>Matplotlib v3.5.2, https://matplotlib.org/</dc:title>
     </cc:Agent>
    </dc:creator>
   </cc:Work>
  </rdf:RDF>
 </metadata>
 <defs>
  <style type="text/css">*{stroke-linejoin: round; stroke-linecap: butt}</style>
 </defs>
 <g id="figure_1">
  <g id="patch_1">
   <path d="M 0 277.455877 
L 336.34375 277.455877 
L 336.34375 0 
L 0 0 
L 0 277.455877 
z
" style="fill: none"/>
  </g>
  <g id="axes_1">
   <g id="patch_2">
    <path d="M 50.14375 224.64 
L 329.14375 224.64 
L 329.14375 7.2 
L 50.14375 7.2 
L 50.14375 224.64 
z
" style="fill: none"/>
   </g>
   <g id="PolyCollection_1">
    <defs>
     <path id="m374e760e77" d="M 70.161457 -62.699513 
L 69.983186 -62.699513 
L 69.956606 -64.689428 
L 69.923961 -66.679343 
L 69.884426 -68.669258 
L 69.837203 -70.659173 
L 69.781559 -72.649087 
L 69.716864 -74.639002 
L 69.642625 -76.628917 
L 69.558514 -78.618832 
L 69.464396 -80.608746 
L 69.360336 -82.598661 
L 69.246605 -84.588576 
L 69.12366 -86.578491 
L 68.992125 -88.568405 
L 68.852753 -90.55832 
L 68.706378 -92.548235 
L 68.55387 -94.53815 
L 68.396081 -96.528065 
L 68.233798 -98.517979 
L 68.067705 -100.507894 
L 67.89836 -102.497809 
L 67.726182 -104.487724 
L 67.551467 -106.477638 
L 67.374421 -108.467553 
L 67.195211 -110.457468 
L 67.014045 -112.447383 
L 66.831256 -114.437298 
L 66.647401 -116.427212 
L 66.463358 -118.417127 
L 66.280403 -120.407042 
L 66.100276 -122.396957 
L 65.925198 -124.386871 
L 65.757849 -126.376786 
L 65.601294 -128.366701 
L 65.458851 -130.356616 
L 65.333906 -132.34653 
L 65.229688 -134.336445 
L 65.149011 -136.32636 
L 65.094008 -138.316275 
L 65.065878 -140.30619 
L 65.064675 -142.296104 
L 65.089148 -144.286019 
L 65.136674 -146.275934 
L 65.203278 -148.265849 
L 65.283754 -150.255763 
L 65.371892 -152.245678 
L 65.460784 -154.235593 
L 65.543199 -156.225508 
L 65.612008 -158.215422 
L 65.660604 -160.205337 
L 65.683316 -162.195252 
L 65.675758 -164.185167 
L 65.635105 -166.175082 
L 65.560268 -168.164996 
L 65.451956 -170.154911 
L 65.312627 -172.144826 
L 65.146326 -174.134741 
L 64.958438 -176.124655 
L 64.755362 -178.11457 
L 64.544152 -180.104485 
L 64.332131 -182.0944 
L 64.126527 -184.084314 
L 63.934138 -186.074229 
L 63.76107 -188.064144 
L 63.612531 -190.054059 
L 63.49272 -192.043974 
L 63.404788 -194.033888 
L 63.350871 -196.023803 
L 63.332181 -198.013718 
L 63.34914 -200.003633 
L 63.401531 -201.993547 
L 63.488642 -203.983462 
L 63.609396 -205.973377 
L 63.762449 -207.963292 
L 63.946242 -209.953206 
L 64.159007 -211.943121 
L 64.39875 -213.933036 
L 64.663192 -215.922951 
L 64.949714 -217.912866 
L 65.255298 -219.90278 
L 65.576498 -221.892695 
L 65.909445 -223.88261 
L 66.249896 -225.872525 
L 66.593326 -227.862439 
L 66.935066 -229.852354 
L 67.270466 -231.842269 
L 67.595079 -233.832184 
L 67.904836 -235.822099 
L 68.196217 -237.812013 
L 68.466374 -239.801928 
L 68.713224 -241.791843 
L 68.935483 -243.781758 
L 69.132665 -245.771672 
L 69.30502 -247.761587 
L 69.453446 -249.751502 
L 69.579371 -251.741417 
L 69.684621 -253.731331 
L 69.771283 -255.721246 
L 69.841582 -257.711161 
L 69.897759 -259.701076 
L 70.246883 -259.701076 
L 70.246883 -259.701076 
L 70.303061 -257.711161 
L 70.37336 -255.721246 
L 70.460022 -253.731331 
L 70.565272 -251.741417 
L 70.691196 -249.751502 
L 70.839622 -247.761587 
L 71.011978 -245.771672 
L 71.20916 -243.781758 
L 71.431419 -241.791843 
L 71.678268 -239.801928 
L 71.948425 -237.812013 
L 72.239806 -235.822099 
L 72.549564 -233.832184 
L 72.874177 -231.842269 
L 73.209577 -229.852354 
L 73.551317 -227.862439 
L 73.894747 -225.872525 
L 74.235197 -223.88261 
L 74.568145 -221.892695 
L 74.889345 -219.90278 
L 75.194929 -217.912866 
L 75.48145 -215.922951 
L 75.745893 -213.933036 
L 75.985636 -211.943121 
L 76.198401 -209.953206 
L 76.382194 -207.963292 
L 76.535247 -205.973377 
L 76.656001 -203.983462 
L 76.743112 -201.993547 
L 76.795502 -200.003633 
L 76.812462 -198.013718 
L 76.793772 -196.023803 
L 76.739855 -194.033888 
L 76.651923 -192.043974 
L 76.532112 -190.054059 
L 76.383573 -188.064144 
L 76.210505 -186.074229 
L 76.018116 -184.084314 
L 75.812511 -182.0944 
L 75.600491 -180.104485 
L 75.389281 -178.11457 
L 75.186205 -176.124655 
L 74.998316 -174.134741 
L 74.832016 -172.144826 
L 74.692687 -170.154911 
L 74.584375 -168.164996 
L 74.509538 -166.175082 
L 74.468885 -164.185167 
L 74.461327 -162.195252 
L 74.484039 -160.205337 
L 74.532635 -158.215422 
L 74.601444 -156.225508 
L 74.683859 -154.235593 
L 74.772751 -152.245678 
L 74.860889 -150.255763 
L 74.941365 -148.265849 
L 75.007969 -146.275934 
L 75.055495 -144.286019 
L 75.079968 -142.296104 
L 75.078765 -140.30619 
L 75.050635 -138.316275 
L 74.995632 -136.32636 
L 74.914955 -134.336445 
L 74.810737 -132.34653 
L 74.685792 -130.356616 
L 74.543349 -128.366701 
L 74.386794 -126.376786 
L 74.219445 -124.386871 
L 74.044367 -122.396957 
L 73.86424 -120.407042 
L 73.681285 -118.417127 
L 73.497242 -116.427212 
L 73.313387 -114.437298 
L 73.130598 -112.447383 
L 72.949432 -110.457468 
L 72.770222 -108.467553 
L 72.593176 -106.477638 
L 72.418461 -104.487724 
L 72.246283 -102.497809 
L 72.076938 -100.507894 
L 71.910845 -98.517979 
L 71.748562 -96.528065 
L 71.590772 -94.53815 
L 71.438265 -92.548235 
L 71.29189 -90.55832 
L 71.152517 -88.568405 
L 71.020983 -86.578491 
L 70.898038 -84.588576 
L 70.784307 -82.598661 
L 70.680247 -80.608746 
L 70.586129 -78.618832 
L 70.502018 -76.628917 
L 70.427778 -74.639002 
L 70.363084 -72.649087 
L 70.30744 -70.659173 
L 70.260217 -68.669258 
L 70.220682 -66.679343 
L 70.188037 -64.689428 
L 70.161457 -62.699513 
z
" style="stroke: #5c5c5c; stroke-width: 1.5"/>
    </defs>
    <g clip-path="url(#p0430b884d0)">
     <use xlink:href="#m374e760e77" x="0" y="277.455877" style="fill: #cb6d67; stroke: #5c5c5c; stroke-width: 1.5"/>
    </g>
   </g>
   <g id="PolyCollection_2">
    <defs>
     <path id="m47c58422bf" d="M 110.068109 -139.886943 
L 109.79082 -139.886943 
L 109.739285 -141.103966 
L 109.673822 -142.32099 
L 109.592619 -143.538013 
L 109.494258 -144.755036 
L 109.377903 -145.972059 
L 109.243454 -147.189082 
L 109.091651 -148.406106 
L 108.924073 -149.623129 
L 108.743038 -150.840152 
L 108.551388 -152.057175 
L 108.352174 -153.274198 
L 108.14829 -154.491222 
L 107.942085 -155.708245 
L 107.735033 -156.925268 
L 107.527503 -158.142291 
L 107.318669 -159.359315 
L 107.106589 -160.576338 
L 106.888433 -161.793361 
L 106.660828 -163.010384 
L 106.420271 -164.227407 
L 106.163538 -165.444431 
L 105.888034 -166.661454 
L 105.592042 -167.878477 
L 105.274844 -169.0955 
L 104.93673 -170.312523 
L 104.57891 -171.529547 
L 104.203373 -172.74657 
L 103.812738 -173.963593 
L 103.410126 -175.180616 
L 102.999065 -176.397639 
L 102.583439 -177.614663 
L 102.167435 -178.831686 
L 101.755485 -180.048709 
L 101.352146 -181.265732 
L 100.961915 -182.482755 
L 100.588971 -183.699779 
L 100.236874 -184.916802 
L 99.908258 -186.133825 
L 99.604595 -187.350848 
L 99.326078 -188.567872 
L 99.071665 -189.784895 
L 98.839319 -191.001918 
L 98.626401 -192.218941 
L 98.430177 -193.435964 
L 98.248337 -194.652988 
L 98.079453 -195.870011 
L 97.923275 -197.087034 
L 97.780825 -198.304057 
L 97.654282 -199.52108 
L 97.546686 -200.738104 
L 97.461555 -201.955127 
L 97.402496 -203.17215 
L 97.372898 -204.389173 
L 97.375778 -205.606196 
L 97.413782 -206.82322 
L 97.489305 -208.040243 
L 97.60468 -209.257266 
L 97.762307 -210.474289 
L 97.964678 -211.691312 
L 98.21422 -212.908336 
L 98.512958 -214.125359 
L 98.862058 -215.342382 
L 99.261317 -216.559405 
L 99.708724 -217.776428 
L 100.200179 -218.993452 
L 100.729457 -220.210475 
L 101.28842 -221.427498 
L 101.867478 -222.644521 
L 102.456214 -223.861545 
L 103.044083 -225.078568 
L 103.621102 -226.295591 
L 104.178431 -227.512614 
L 104.708797 -228.729637 
L 105.206739 -229.946661 
L 105.668679 -231.163684 
L 106.092841 -232.380707 
L 106.479074 -233.59773 
L 106.828587 -234.814753 
L 107.143661 -236.031777 
L 107.427344 -237.2488 
L 107.683137 -238.465823 
L 107.914712 -239.682846 
L 108.125635 -240.899869 
L 108.319146 -242.116893 
L 108.497969 -243.333916 
L 108.664203 -244.550939 
L 108.819275 -245.767962 
L 108.963971 -246.984985 
L 109.098528 -248.202009 
L 109.222785 -249.419032 
L 109.336352 -250.636055 
L 109.438791 -251.853078 
L 109.529765 -253.070102 
L 109.609161 -254.287125 
L 109.677155 -255.504148 
L 109.73423 -256.721171 
L 109.781152 -257.938194 
L 109.818907 -259.155218 
L 109.848628 -260.372241 
L 110.010301 -260.372241 
L 110.010301 -260.372241 
L 110.040022 -259.155218 
L 110.077777 -257.938194 
L 110.124698 -256.721171 
L 110.181774 -255.504148 
L 110.249768 -254.287125 
L 110.329164 -253.070102 
L 110.420138 -251.853078 
L 110.522576 -250.636055 
L 110.636144 -249.419032 
L 110.7604 -248.202009 
L 110.894958 -246.984985 
L 111.039653 -245.767962 
L 111.194726 -244.550939 
L 111.36096 -243.333916 
L 111.539783 -242.116893 
L 111.733293 -240.899869 
L 111.944217 -239.682846 
L 112.175791 -238.465823 
L 112.431585 -237.2488 
L 112.715267 -236.031777 
L 113.030342 -234.814753 
L 113.379855 -233.59773 
L 113.766087 -232.380707 
L 114.19025 -231.163684 
L 114.652189 -229.946661 
L 115.150131 -228.729637 
L 115.680497 -227.512614 
L 116.237826 -226.295591 
L 116.814846 -225.078568 
L 117.402715 -223.861545 
L 117.99145 -222.644521 
L 118.570509 -221.427498 
L 119.129472 -220.210475 
L 119.658749 -218.993452 
L 120.150205 -217.776428 
L 120.597612 -216.559405 
L 120.996871 -215.342382 
L 121.345971 -214.125359 
L 121.644709 -212.908336 
L 121.89425 -211.691312 
L 122.096622 -210.474289 
L 122.254249 -209.257266 
L 122.369623 -208.040243 
L 122.445147 -206.82322 
L 122.48315 -205.606196 
L 122.486031 -204.389173 
L 122.456433 -203.17215 
L 122.397374 -201.955127 
L 122.312243 -200.738104 
L 122.204647 -199.52108 
L 122.078103 -198.304057 
L 121.935653 -197.087034 
L 121.779475 -195.870011 
L 121.610591 -194.652988 
L 121.428752 -193.435964 
L 121.232527 -192.218941 
L 121.01961 -191.001918 
L 120.787264 -189.784895 
L 120.532851 -188.567872 
L 120.254333 -187.350848 
L 119.950671 -186.133825 
L 119.622055 -184.916802 
L 119.269957 -183.699779 
L 118.897014 -182.482755 
L 118.506783 -181.265732 
L 118.103443 -180.048709 
L 117.691493 -178.831686 
L 117.27549 -177.614663 
L 116.859863 -176.397639 
L 116.448803 -175.180616 
L 116.046191 -173.963593 
L 115.655556 -172.74657 
L 115.280019 -171.529547 
L 114.922198 -170.312523 
L 114.584085 -169.0955 
L 114.266887 -167.878477 
L 113.970894 -166.661454 
L 113.69539 -165.444431 
L 113.438657 -164.227407 
L 113.198101 -163.010384 
L 112.970496 -161.793361 
L 112.752339 -160.576338 
L 112.540259 -159.359315 
L 112.331426 -158.142291 
L 112.123895 -156.925268 
L 111.916844 -155.708245 
L 111.710639 -154.491222 
L 111.506754 -153.274198 
L 111.307541 -152.057175 
L 111.115891 -150.840152 
L 110.934856 -149.623129 
L 110.767278 -148.406106 
L 110.615475 -147.189082 
L 110.481026 -145.972059 
L 110.36467 -144.755036 
L 110.266309 -143.538013 
L 110.185106 -142.32099 
L 110.119643 -141.103966 
L 110.068109 -139.886943 
z
" style="stroke: #5c5c5c; stroke-width: 1.5"/>
    </defs>
    <g clip-path="url(#p0430b884d0)">
     <use xlink:href="#m47c58422bf" x="0" y="277.455877" style="fill: #cbc267; stroke: #5c5c5c; stroke-width: 1.5"/>
    </g>
   </g>
   <g id="PolyCollection_3">
    <defs>
     <path id="m5e8eb0ef07" d="M 149.915944 -115.592411 
L 149.657271 -115.592411 
L 149.621657 -116.918486 
L 149.579058 -118.244561 
L 149.528909 -119.570636 
L 149.470801 -120.896711 
L 149.404508 -122.222786 
L 149.330016 -123.54886 
L 149.247518 -124.874935 
L 149.157393 -126.20101 
L 149.060155 -127.527085 
L 148.956369 -128.85316 
L 148.846551 -130.179235 
L 148.731048 -131.50531 
L 148.609912 -132.831385 
L 148.482797 -134.15746 
L 148.348869 -135.483535 
L 148.20677 -136.80961 
L 148.054641 -138.135685 
L 147.890201 -139.46176 
L 147.710905 -140.787835 
L 147.51415 -142.11391 
L 147.297535 -143.439985 
L 147.059143 -144.76606 
L 146.797814 -146.092134 
L 146.513392 -147.418209 
L 146.206909 -148.744284 
L 145.880683 -150.070359 
L 145.538322 -151.396434 
L 145.184621 -152.722509 
L 144.825358 -154.048584 
L 144.467013 -155.374659 
L 144.116419 -156.700734 
L 143.780388 -158.026809 
L 143.465333 -159.352884 
L 143.176918 -160.678959 
L 142.919767 -162.005034 
L 142.697237 -163.331109 
L 142.511279 -164.657184 
L 142.362384 -165.983259 
L 142.2496 -167.309334 
L 142.170634 -168.635409 
L 142.121999 -169.961483 
L 142.099218 -171.287558 
L 142.097048 -172.613633 
L 142.109728 -173.939708 
L 142.131235 -175.265783 
L 142.155537 -176.591858 
L 142.176828 -177.917933 
L 142.189756 -179.244008 
L 142.189613 -180.570083 
L 142.172501 -181.896158 
L 142.135452 -183.222233 
L 142.076515 -184.548308 
L 141.994787 -185.874383 
L 141.890413 -187.200458 
L 141.764534 -188.526533 
L 141.619202 -189.852608 
L 141.457272 -191.178683 
L 141.282262 -192.504757 
L 141.098217 -193.830832 
L 140.90956 -195.156907 
L 140.720964 -196.482982 
L 140.537229 -197.809057 
L 140.363193 -199.135132 
L 140.203659 -200.461207 
L 140.063342 -201.787282 
L 139.946847 -203.113357 
L 139.858637 -204.439432 
L 139.803017 -205.765507 
L 139.784092 -207.091582 
L 139.805712 -208.417657 
L 139.871374 -209.743732 
L 139.984099 -211.069807 
L 140.146274 -212.395882 
L 140.359465 -213.721957 
L 140.624234 -215.048031 
L 140.939954 -216.374106 
L 141.304675 -217.700181 
L 141.715034 -219.026256 
L 142.166244 -220.352331 
L 142.652177 -221.678406 
L 143.16553 -223.004481 
L 143.698079 -224.330556 
L 144.241 -225.656631 
L 144.785246 -226.982706 
L 145.321932 -228.308781 
L 145.842711 -229.634856 
L 146.340118 -230.960931 
L 146.807842 -232.287006 
L 147.240916 -233.613081 
L 147.635826 -234.939156 
L 147.990521 -236.265231 
L 148.304344 -237.591305 
L 148.577889 -238.91738 
L 148.812816 -240.243455 
L 149.011621 -241.56953 
L 149.177407 -242.895605 
L 149.313654 -244.22168 
L 149.424006 -245.547755 
L 149.5121 -246.87383 
L 150.061114 -246.87383 
L 150.061114 -246.87383 
L 150.149208 -245.547755 
L 150.259561 -244.22168 
L 150.395807 -242.895605 
L 150.561593 -241.56953 
L 150.760398 -240.243455 
L 150.995325 -238.91738 
L 151.268871 -237.591305 
L 151.582693 -236.265231 
L 151.937389 -234.939156 
L 152.332299 -233.613081 
L 152.765373 -232.287006 
L 153.233096 -230.960931 
L 153.730503 -229.634856 
L 154.251283 -228.308781 
L 154.787968 -226.982706 
L 155.332214 -225.656631 
L 155.875136 -224.330556 
L 156.407684 -223.004481 
L 156.921037 -221.678406 
L 157.40697 -220.352331 
L 157.858181 -219.026256 
L 158.268539 -217.700181 
L 158.63326 -216.374106 
L 158.948981 -215.048031 
L 159.213749 -213.721957 
L 159.42694 -212.395882 
L 159.589115 -211.069807 
L 159.701841 -209.743732 
L 159.767502 -208.417657 
L 159.789122 -207.091582 
L 159.770198 -205.765507 
L 159.714577 -204.439432 
L 159.626367 -203.113357 
L 159.509872 -201.787282 
L 159.369556 -200.461207 
L 159.210021 -199.135132 
L 159.035985 -197.809057 
L 158.852251 -196.482982 
L 158.663654 -195.156907 
L 158.474997 -193.830832 
L 158.290952 -192.504757 
L 158.115942 -191.178683 
L 157.954012 -189.852608 
L 157.808681 -188.526533 
L 157.682801 -187.200458 
L 157.578427 -185.874383 
L 157.4967 -184.548308 
L 157.437762 -183.222233 
L 157.400714 -181.896158 
L 157.383601 -180.570083 
L 157.383459 -179.244008 
L 157.396386 -177.917933 
L 157.417677 -176.591858 
L 157.441979 -175.265783 
L 157.463486 -173.939708 
L 157.476166 -172.613633 
L 157.473996 -171.287558 
L 157.451215 -169.961483 
L 157.402581 -168.635409 
L 157.323614 -167.309334 
L 157.210831 -165.983259 
L 157.061935 -164.657184 
L 156.875977 -163.331109 
L 156.653447 -162.005034 
L 156.396296 -160.678959 
L 156.107881 -159.352884 
L 155.792826 -158.026809 
L 155.456795 -156.700734 
L 155.106202 -155.374659 
L 154.747856 -154.048584 
L 154.388593 -152.722509 
L 154.034892 -151.396434 
L 153.692531 -150.070359 
L 153.366305 -148.744284 
L 153.059822 -147.418209 
L 152.7754 -146.092134 
L 152.514071 -144.76606 
L 152.275679 -143.439985 
L 152.059064 -142.11391 
L 151.862309 -140.787835 
L 151.683013 -139.46176 
L 151.518574 -138.135685 
L 151.366444 -136.80961 
L 151.224346 -135.483535 
L 151.090417 -134.15746 
L 150.963302 -132.831385 
L 150.842167 -131.50531 
L 150.726663 -130.179235 
L 150.616845 -128.85316 
L 150.513059 -127.527085 
L 150.415821 -126.20101 
L 150.325696 -124.874935 
L 150.243198 -123.54886 
L 150.168706 -122.222786 
L 150.102413 -120.896711 
L 150.044305 -119.570636 
L 149.994157 -118.244561 
L 149.951557 -116.918486 
L 149.915944 -115.592411 
z
" style="stroke: #5c5c5c; stroke-width: 1.5"/>
    </defs>
    <g clip-path="url(#p0430b884d0)">
     <use xlink:href="#m5e8eb0ef07" x="0" y="277.455877" style="fill: #7ecb67; stroke: #5c5c5c; stroke-width: 1.5"/>
    </g>
   </g>
   <g id="PolyCollection_4">
    <defs>
     <path id="m6e32266ca4" d="M 189.712195 -96.517973 
L 189.575305 -96.517973 
L 189.55503 -98.115702 
L 189.530307 -99.71343 
L 189.500596 -101.311158 
L 189.465389 -102.908886 
L 189.42421 -104.506615 
L 189.376626 -106.104343 
L 189.322232 -107.702071 
L 189.260637 -109.2998 
L 189.191432 -110.897528 
L 189.114158 -112.495256 
L 189.028261 -114.092984 
L 188.93306 -115.690713 
L 188.827718 -117.288441 
L 188.711231 -118.886169 
L 188.582442 -120.483897 
L 188.440078 -122.081626 
L 188.282811 -123.679354 
L 188.10934 -125.277082 
L 187.91849 -126.874811 
L 187.70931 -128.472539 
L 187.481163 -130.070267 
L 187.233801 -131.667995 
L 186.967405 -133.265724 
L 186.682603 -134.863452 
L 186.380444 -136.46118 
L 186.062356 -138.058909 
L 185.730089 -139.656637 
L 185.385648 -141.254365 
L 185.031247 -142.852093 
L 184.669283 -144.449822 
L 184.302342 -146.04755 
L 183.933238 -147.645278 
L 183.565074 -149.243006 
L 183.20132 -150.840735 
L 182.845873 -152.438463 
L 182.503102 -154.036191 
L 182.177823 -155.63392 
L 181.875228 -157.231648 
L 181.600722 -158.829376 
L 181.359698 -160.427104 
L 181.157245 -162.024833 
L 180.997828 -163.622561 
L 180.88495 -165.220289 
L 180.820844 -166.818018 
L 180.806228 -168.415746 
L 180.840132 -170.013474 
L 180.919846 -171.611202 
L 181.040965 -173.208931 
L 181.197555 -174.806659 
L 181.382415 -176.404387 
L 181.587415 -178.002115 
L 181.803892 -179.599844 
L 182.023073 -181.197572 
L 182.236502 -182.7953 
L 182.43644 -184.393029 
L 182.616232 -185.990757 
L 182.77061 -187.588485 
L 182.895921 -189.186213 
L 182.990281 -190.783942 
L 183.053634 -192.38167 
L 183.087721 -193.979398 
L 183.095953 -195.577127 
L 183.083208 -197.174855 
L 183.055542 -198.772583 
L 183.019853 -200.370311 
L 182.983506 -201.96804 
L 182.953943 -203.565768 
L 182.938316 -205.163496 
L 182.943152 -206.761224 
L 182.974073 -208.358953 
L 183.035595 -209.956681 
L 183.130987 -211.554409 
L 183.262215 -213.152138 
L 183.429944 -214.749866 
L 183.633591 -216.347594 
L 183.871427 -217.945322 
L 184.140694 -219.543051 
L 184.437751 -221.140779 
L 184.758222 -222.738507 
L 185.097161 -224.336235 
L 185.449211 -225.933964 
L 185.808784 -227.531692 
L 186.170228 -229.12942 
L 186.528017 -230.727149 
L 186.87692 -232.324877 
L 187.212173 -233.922605 
L 187.529623 -235.520333 
L 187.825852 -237.118062 
L 188.098259 -238.71579 
L 188.345103 -240.313518 
L 188.565501 -241.911247 
L 188.75938 -243.508975 
L 188.927399 -245.106703 
L 189.070832 -246.704431 
L 189.191437 -248.30216 
L 189.291316 -249.899888 
L 189.372776 -251.497616 
L 189.438202 -253.095344 
L 189.489946 -254.693073 
L 189.797554 -254.693073 
L 189.797554 -254.693073 
L 189.849298 -253.095344 
L 189.914724 -251.497616 
L 189.996184 -249.899888 
L 190.096063 -248.30216 
L 190.216668 -246.704431 
L 190.360101 -245.106703 
L 190.52812 -243.508975 
L 190.721999 -241.911247 
L 190.942397 -240.313518 
L 191.189241 -238.71579 
L 191.461648 -237.118062 
L 191.757877 -235.520333 
L 192.075327 -233.922605 
L 192.41058 -232.324877 
L 192.759483 -230.727149 
L 193.117272 -229.12942 
L 193.478716 -227.531692 
L 193.838289 -225.933964 
L 194.190339 -224.336235 
L 194.529278 -222.738507 
L 194.849749 -221.140779 
L 195.146806 -219.543051 
L 195.416073 -217.945322 
L 195.653909 -216.347594 
L 195.857556 -214.749866 
L 196.025285 -213.152138 
L 196.156513 -211.554409 
L 196.251905 -209.956681 
L 196.313427 -208.358953 
L 196.344348 -206.761224 
L 196.349184 -205.163496 
L 196.333557 -203.565768 
L 196.303994 -201.96804 
L 196.267647 -200.370311 
L 196.231958 -198.772583 
L 196.204292 -197.174855 
L 196.191547 -195.577127 
L 196.199779 -193.979398 
L 196.233866 -192.38167 
L 196.297219 -190.783942 
L 196.391579 -189.186213 
L 196.51689 -187.588485 
L 196.671268 -185.990757 
L 196.85106 -184.393029 
L 197.050998 -182.7953 
L 197.264427 -181.197572 
L 197.483608 -179.599844 
L 197.700085 -178.002115 
L 197.905085 -176.404387 
L 198.089945 -174.806659 
L 198.246535 -173.208931 
L 198.367654 -171.611202 
L 198.447368 -170.013474 
L 198.481272 -168.415746 
L 198.466656 -166.818018 
L 198.40255 -165.220289 
L 198.289672 -163.622561 
L 198.130255 -162.024833 
L 197.927802 -160.427104 
L 197.686778 -158.829376 
L 197.412272 -157.231648 
L 197.109677 -155.63392 
L 196.784398 -154.036191 
L 196.441627 -152.438463 
L 196.08618 -150.840735 
L 195.722426 -149.243006 
L 195.354262 -147.645278 
L 194.985158 -146.04755 
L 194.618217 -144.449822 
L 194.256253 -142.852093 
L 193.901852 -141.254365 
L 193.557411 -139.656637 
L 193.225144 -138.058909 
L 192.907056 -136.46118 
L 192.604897 -134.863452 
L 192.320095 -133.265724 
L 192.053699 -131.667995 
L 191.806337 -130.070267 
L 191.57819 -128.472539 
L 191.36901 -126.874811 
L 191.17816 -125.277082 
L 191.004689 -123.679354 
L 190.847422 -122.081626 
L 190.705058 -120.483897 
L 190.576269 -118.886169 
L 190.459782 -117.288441 
L 190.35444 -115.690713 
L 190.259239 -114.092984 
L 190.173342 -112.495256 
L 190.096068 -110.897528 
L 190.026863 -109.2998 
L 189.965268 -107.702071 
L 189.910874 -106.104343 
L 189.86329 -104.506615 
L 189.822111 -102.908886 
L 189.786904 -101.311158 
L 189.757193 -99.71343 
L 189.73247 -98.115702 
L 189.712195 -96.517973 
z
" style="stroke: #5c5c5c; stroke-width: 1.5"/>
    </defs>
    <g clip-path="url(#p0430b884d0)">
     <use xlink:href="#m6e32266ca4" x="0" y="277.455877" style="fill: #67cba6; stroke: #5c5c5c; stroke-width: 1.5"/>
    </g>
   </g>
   <g id="PolyCollection_5">
    <defs>
     <path id="m05970ec468" d="M 229.816817 -64.797529 
L 229.184968 -64.797529 
L 229.086449 -66.23977 
L 228.964309 -67.68201 
L 228.815091 -69.124251 
L 228.635406 -70.566492 
L 228.422085 -72.008732 
L 228.172323 -73.450973 
L 227.88383 -74.893214 
L 227.554948 -76.335454 
L 227.184753 -77.777695 
L 226.773113 -79.219936 
L 226.320709 -80.662176 
L 225.829026 -82.104417 
L 225.300311 -83.546657 
L 224.737525 -84.988898 
L 224.14429 -86.431139 
L 223.52486 -87.873379 
L 222.884103 -89.31562 
L 222.227523 -90.757861 
L 221.561302 -92.200101 
L 220.892342 -93.642342 
L 220.228308 -95.084583 
L 219.577628 -96.526823 
L 218.949431 -97.969064 
L 218.353407 -99.411304 
L 217.799577 -100.853545 
L 217.297973 -102.295786 
L 216.858246 -103.738026 
L 216.489225 -105.180267 
L 216.198474 -106.622508 
L 215.991881 -108.064748 
L 215.873323 -109.506989 
L 215.844448 -110.94923 
L 215.904589 -112.39147 
L 216.05082 -113.833711 
L 216.278155 -115.275951 
L 216.579857 -116.718192 
L 216.947832 -118.160433 
L 217.373066 -119.602673 
L 217.846062 -121.044914 
L 218.357248 -122.487155 
L 218.897313 -123.929395 
L 219.457471 -125.371636 
L 220.029638 -126.813877 
L 220.606516 -128.256117 
L 221.181625 -129.698358 
L 221.749267 -131.140598 
L 222.304475 -132.582839 
L 222.842938 -134.02508 
L 223.360941 -135.46732 
L 223.855306 -136.909561 
L 224.323364 -138.351802 
L 224.762934 -139.794042 
L 225.172321 -141.236283 
L 225.550315 -142.678524 
L 225.896198 -144.120764 
L 226.209735 -145.563005 
L 226.491168 -147.005245 
L 226.74119 -148.447486 
L 226.960912 -149.889727 
L 227.151821 -151.331967 
L 227.315731 -152.774208 
L 227.454725 -154.216449 
L 227.571092 -155.658689 
L 227.667263 -157.10093 
L 227.745744 -158.543171 
L 227.809042 -159.985411 
L 227.859607 -161.427652 
L 227.899765 -162.869892 
L 227.931673 -164.312133 
L 227.957288 -165.754374 
L 227.978354 -167.196614 
L 227.996405 -168.638855 
L 228.012793 -170.081096 
L 228.028721 -171.523336 
L 228.045292 -172.965577 
L 228.063544 -174.407818 
L 228.084477 -175.850058 
L 228.109063 -177.292299 
L 228.138234 -178.734539 
L 228.172838 -180.17678 
L 228.213588 -181.619021 
L 228.260997 -183.061261 
L 228.315311 -184.503502 
L 228.376455 -185.945743 
L 228.444002 -187.387983 
L 228.517173 -188.830224 
L 228.59486 -190.272465 
L 228.675687 -191.714705 
L 228.758092 -193.156946 
L 228.84043 -194.599186 
L 228.921071 -196.041427 
L 228.998502 -197.483668 
L 229.071413 -198.925908 
L 229.138756 -200.368149 
L 229.199781 -201.81039 
L 229.254052 -203.25263 
L 229.301429 -204.694871 
L 229.342035 -206.137112 
L 229.376214 -207.579352 
L 229.625572 -207.579352 
L 229.625572 -207.579352 
L 229.659751 -206.137112 
L 229.700357 -204.694871 
L 229.747734 -203.25263 
L 229.802005 -201.81039 
L 229.86303 -200.368149 
L 229.930372 -198.925908 
L 230.003283 -197.483668 
L 230.080715 -196.041427 
L 230.161356 -194.599186 
L 230.243694 -193.156946 
L 230.326099 -191.714705 
L 230.406926 -190.272465 
L 230.484612 -188.830224 
L 230.557783 -187.387983 
L 230.625331 -185.945743 
L 230.686475 -184.503502 
L 230.740788 -183.061261 
L 230.788197 -181.619021 
L 230.828948 -180.17678 
L 230.863552 -178.734539 
L 230.892722 -177.292299 
L 230.917309 -175.850058 
L 230.938242 -174.407818 
L 230.956494 -172.965577 
L 230.973065 -171.523336 
L 230.988993 -170.081096 
L 231.00538 -168.638855 
L 231.023431 -167.196614 
L 231.044497 -165.754374 
L 231.070113 -164.312133 
L 231.102021 -162.869892 
L 231.142179 -161.427652 
L 231.192743 -159.985411 
L 231.256042 -158.543171 
L 231.334523 -157.10093 
L 231.430694 -155.658689 
L 231.547061 -154.216449 
L 231.686054 -152.774208 
L 231.849964 -151.331967 
L 232.040874 -149.889727 
L 232.260596 -148.447486 
L 232.510617 -147.005245 
L 232.79205 -145.563005 
L 233.105588 -144.120764 
L 233.45147 -142.678524 
L 233.829465 -141.236283 
L 234.238852 -139.794042 
L 234.678422 -138.351802 
L 235.14648 -136.909561 
L 235.640845 -135.46732 
L 236.158847 -134.02508 
L 236.697311 -132.582839 
L 237.252519 -131.140598 
L 237.820161 -129.698358 
L 238.395269 -128.256117 
L 238.972148 -126.813877 
L 239.544314 -125.371636 
L 240.104473 -123.929395 
L 240.644538 -122.487155 
L 241.155723 -121.044914 
L 241.62872 -119.602673 
L 242.053954 -118.160433 
L 242.421929 -116.718192 
L 242.72363 -115.275951 
L 242.950965 -113.833711 
L 243.097197 -112.39147 
L 243.157338 -110.94923 
L 243.128463 -109.506989 
L 243.009905 -108.064748 
L 242.803312 -106.622508 
L 242.51256 -105.180267 
L 242.14354 -103.738026 
L 241.703812 -102.295786 
L 241.202209 -100.853545 
L 240.648379 -99.411304 
L 240.052355 -97.969064 
L 239.424157 -96.526823 
L 238.773478 -95.084583 
L 238.109444 -93.642342 
L 237.440484 -92.200101 
L 236.774262 -90.757861 
L 236.117683 -89.31562 
L 235.476926 -87.873379 
L 234.857495 -86.431139 
L 234.264261 -84.988898 
L 233.701475 -83.546657 
L 233.17276 -82.104417 
L 232.681076 -80.662176 
L 232.228673 -79.219936 
L 231.817032 -77.777695 
L 231.446838 -76.335454 
L 231.117956 -74.893214 
L 230.829462 -73.450973 
L 230.579701 -72.008732 
L 230.36638 -70.566492 
L 230.186695 -69.124251 
L 230.037476 -67.68201 
L 229.915336 -66.23977 
L 229.816817 -64.797529 
z
" style="stroke: #5c5c5c; stroke-width: 1.5"/>
    </defs>
    <g clip-path="url(#p0430b884d0)">
     <use xlink:href="#m05970ec468" x="0" y="277.455877" style="fill: #679acb; stroke: #5c5c5c; stroke-width: 1.5"/>
    </g>
   </g>
   <g id="PolyCollection_6">
    <defs>
     <path id="m15386b51f5" d="M 269.485236 -77.003113 
L 269.230836 -77.003113 
L 269.180681 -78.579953 
L 269.117092 -80.156793 
L 269.039012 -81.733633 
L 268.946203 -83.310472 
L 268.839467 -84.887312 
L 268.720749 -86.464152 
L 268.593085 -88.040992 
L 268.46036 -89.617831 
L 268.326876 -91.194671 
L 268.196787 -92.771511 
L 268.073468 -94.348351 
L 267.958915 -95.925191 
L 267.853292 -97.50203 
L 267.754673 -99.07887 
L 267.659042 -100.65571 
L 267.560511 -102.23255 
L 267.451712 -103.809389 
L 267.324268 -105.386229 
L 267.16926 -106.963069 
L 266.977628 -108.539909 
L 266.740475 -110.116748 
L 266.449283 -111.693588 
L 266.096109 -113.270428 
L 265.673808 -114.847268 
L 265.17636 -116.424107 
L 264.599322 -118.000947 
L 263.940428 -119.577787 
L 263.200274 -121.154627 
L 262.383034 -122.731467 
L 261.497095 -124.308306 
L 260.555509 -125.885146 
L 259.576145 -127.461986 
L 258.581461 -129.038826 
L 257.597851 -130.615665 
L 256.654534 -132.192505 
L 255.782065 -133.769345 
L 255.010543 -135.346185 
L 254.367682 -136.923024 
L 253.876942 -138.499864 
L 253.555917 -140.076704 
L 253.415179 -141.653544 
L 253.457712 -143.230383 
L 253.679007 -144.807223 
L 254.067769 -146.384063 
L 254.607121 -147.960903 
L 255.276103 -149.537742 
L 256.051239 -151.114582 
L 256.90796 -152.691422 
L 257.821749 -154.268262 
L 258.768958 -155.845102 
L 259.727319 -157.421941 
L 260.676269 -158.998781 
L 261.597209 -160.575621 
L 262.473794 -162.152461 
L 263.292305 -163.7293 
L 264.042063 -165.30614 
L 264.715815 -166.88298 
L 265.30996 -168.45982 
L 265.824536 -170.036659 
L 266.262894 -171.613499 
L 266.631096 -173.190339 
L 266.937095 -174.767179 
L 267.189826 -176.344018 
L 267.39833 -177.920858 
L 267.571026 -179.497698 
L 267.715201 -181.074538 
L 267.836743 -182.651378 
L 267.940105 -184.228217 
L 268.028445 -185.805057 
L 268.103886 -187.381897 
L 268.167838 -188.958737 
L 268.221305 -190.535576 
L 268.26516 -192.112416 
L 268.300331 -193.689256 
L 268.327915 -195.266096 
L 268.349204 -196.842935 
L 268.365659 -198.419775 
L 268.378851 -199.996615 
L 268.39039 -201.573455 
L 268.401884 -203.150294 
L 268.414902 -204.727134 
L 268.430963 -206.303974 
L 268.451502 -207.880814 
L 268.477824 -209.457654 
L 268.511005 -211.034493 
L 268.551771 -212.611333 
L 268.600367 -214.188173 
L 268.656445 -215.765013 
L 268.719013 -217.341852 
L 268.786476 -218.918692 
L 268.856757 -220.495532 
L 268.927505 -222.072372 
L 268.996333 -223.649211 
L 269.061067 -225.226051 
L 269.119949 -226.802891 
L 269.171767 -228.379731 
L 269.215904 -229.95657 
L 269.252306 -231.53341 
L 269.281387 -233.11025 
L 269.434685 -233.11025 
L 269.434685 -233.11025 
L 269.463766 -231.53341 
L 269.500167 -229.95657 
L 269.544304 -228.379731 
L 269.596122 -226.802891 
L 269.655004 -225.226051 
L 269.719739 -223.649211 
L 269.788567 -222.072372 
L 269.859314 -220.495532 
L 269.929596 -218.918692 
L 269.997059 -217.341852 
L 270.059627 -215.765013 
L 270.115704 -214.188173 
L 270.1643 -212.611333 
L 270.205067 -211.034493 
L 270.238247 -209.457654 
L 270.264569 -207.880814 
L 270.285109 -206.303974 
L 270.301169 -204.727134 
L 270.314188 -203.150294 
L 270.325681 -201.573455 
L 270.337221 -199.996615 
L 270.350412 -198.419775 
L 270.366868 -196.842935 
L 270.388157 -195.266096 
L 270.41574 -193.689256 
L 270.450911 -192.112416 
L 270.494766 -190.535576 
L 270.548234 -188.958737 
L 270.612185 -187.381897 
L 270.687627 -185.805057 
L 270.775966 -184.228217 
L 270.879328 -182.651378 
L 271.000871 -181.074538 
L 271.145046 -179.497698 
L 271.317742 -177.920858 
L 271.526246 -176.344018 
L 271.778977 -174.767179 
L 272.084975 -173.190339 
L 272.453177 -171.613499 
L 272.891535 -170.036659 
L 273.406111 -168.45982 
L 274.000257 -166.88298 
L 274.674008 -165.30614 
L 275.423766 -163.7293 
L 276.242277 -162.152461 
L 277.118863 -160.575621 
L 278.039803 -158.998781 
L 278.988752 -157.421941 
L 279.947113 -155.845102 
L 280.894322 -154.268262 
L 281.808112 -152.691422 
L 282.664832 -151.114582 
L 283.439968 -149.537742 
L 284.108951 -147.960903 
L 284.648302 -146.384063 
L 285.037064 -144.807223 
L 285.258359 -143.230383 
L 285.300893 -141.653544 
L 285.160155 -140.076704 
L 284.83913 -138.499864 
L 284.348389 -136.923024 
L 283.705528 -135.346185 
L 282.934006 -133.769345 
L 282.061537 -132.192505 
L 281.118221 -130.615665 
L 280.13461 -129.038826 
L 279.139927 -127.461986 
L 278.160562 -125.885146 
L 277.218976 -124.308306 
L 276.333038 -122.731467 
L 275.515797 -121.154627 
L 274.775643 -119.577787 
L 274.116749 -118.000947 
L 273.539712 -116.424107 
L 273.042263 -114.847268 
L 272.619963 -113.270428 
L 272.266788 -111.693588 
L 271.975596 -110.116748 
L 271.738443 -108.539909 
L 271.546812 -106.963069 
L 271.391804 -105.386229 
L 271.264359 -103.809389 
L 271.15556 -102.23255 
L 271.057029 -100.65571 
L 270.961398 -99.07887 
L 270.86278 -97.50203 
L 270.757156 -95.925191 
L 270.642604 -94.348351 
L 270.519284 -92.771511 
L 270.389196 -91.194671 
L 270.255712 -89.617831 
L 270.122986 -88.040992 
L 269.995323 -86.464152 
L 269.876605 -84.887312 
L 269.769869 -83.310472 
L 269.67706 -81.733633 
L 269.59898 -80.156793 
L 269.535391 -78.579953 
L 269.485236 -77.003113 
z
" style="stroke: #5c5c5c; stroke-width: 1.5"/>
    </defs>
    <g clip-path="url(#p0430b884d0)">
     <use xlink:href="#m15386b51f5" x="0" y="277.455877" style="fill: #8a67cb; stroke: #5c5c5c; stroke-width: 1.5"/>
    </g>
   </g>
   <g id="PolyCollection_7">
    <defs>
     <path id="m3aa4072a97" d="M 309.256802 -80.084178 
L 309.173555 -80.084178 
L 309.158077 -81.722185 
L 309.13855 -83.360191 
L 309.114509 -84.998198 
L 309.085591 -86.636205 
L 309.051548 -88.274211 
L 309.012238 -89.912218 
L 308.967585 -91.550225 
L 308.917509 -93.188231 
L 308.86184 -94.826238 
L 308.800222 -96.464244 
L 308.732037 -98.102251 
L 308.65636 -99.740258 
L 308.571957 -101.378264 
L 308.477347 -103.016271 
L 308.370899 -104.654278 
L 308.250965 -106.292284 
L 308.116013 -107.930291 
L 307.964741 -109.568298 
L 307.796146 -111.206304 
L 307.609551 -112.844311 
L 307.404576 -114.482318 
L 307.181094 -116.120324 
L 306.939171 -117.758331 
L 306.679039 -119.396338 
L 306.401097 -121.034344 
L 306.10595 -122.672351 
L 305.794483 -124.310357 
L 305.467934 -125.948364 
L 305.127959 -127.586371 
L 304.776649 -129.224377 
L 304.416519 -130.862384 
L 304.05045 -132.500391 
L 303.681621 -134.138397 
L 303.313449 -135.776404 
L 302.949553 -137.414411 
L 302.593757 -139.052417 
L 302.250111 -140.690424 
L 301.922907 -142.328431 
L 301.616629 -143.966437 
L 301.335826 -145.604444 
L 301.084844 -147.242451 
L 300.867452 -148.880457 
L 300.686371 -150.518464 
L 300.542791 -152.156471 
L 300.435954 -153.794477 
L 300.362923 -155.432484 
L 300.31859 -157.07049 
L 300.296013 -158.708497 
L 300.287056 -160.346504 
L 300.283298 -161.98451 
L 300.277093 -163.622517 
L 300.262658 -165.260524 
L 300.236997 -166.89853 
L 300.200529 -168.536537 
L 300.157284 -170.174544 
L 300.11461 -171.81255 
L 300.082407 -173.450557 
L 300.07197 -175.088564 
L 300.094604 -176.72657 
L 300.160215 -178.364577 
L 300.276059 -180.002584 
L 300.445867 -181.64059 
L 300.669424 -183.278597 
L 300.942676 -184.916603 
L 301.258304 -186.55461 
L 301.606662 -188.192617 
L 301.976918 -189.830623 
L 302.358225 -191.46863 
L 302.740767 -193.106637 
L 303.116558 -194.744643 
L 303.47992 -196.38265 
L 303.827645 -198.020657 
L 304.158837 -199.658663 
L 304.474533 -201.29667 
L 304.777143 -202.934677 
L 305.069829 -204.572683 
L 305.355873 -206.21069 
L 305.638125 -207.848697 
L 305.918571 -209.486703 
L 306.19807 -211.12471 
L 306.476262 -212.762717 
L 306.751649 -214.400723 
L 307.021815 -216.03873 
L 307.283748 -217.676736 
L 307.534198 -219.314743 
L 307.770034 -220.95275 
L 307.988543 -222.590756 
L 308.187648 -224.228763 
L 308.366025 -225.86677 
L 308.523139 -227.504776 
L 308.659192 -229.142783 
L 308.77502 -230.78079 
L 308.87196 -232.418796 
L 308.951709 -234.056803 
L 309.016178 -235.69481 
L 309.067373 -237.332816 
L 309.107291 -238.970823 
L 309.137835 -240.60883 
L 309.160756 -242.246836 
L 309.269602 -242.246836 
L 309.269602 -242.246836 
L 309.292522 -240.60883 
L 309.323066 -238.970823 
L 309.362984 -237.332816 
L 309.414179 -235.69481 
L 309.478648 -234.056803 
L 309.558397 -232.418796 
L 309.655337 -230.78079 
L 309.771165 -229.142783 
L 309.907218 -227.504776 
L 310.064332 -225.86677 
L 310.24271 -224.228763 
L 310.441814 -222.590756 
L 310.660323 -220.95275 
L 310.896159 -219.314743 
L 311.146609 -217.676736 
L 311.408542 -216.03873 
L 311.678708 -214.400723 
L 311.954095 -212.762717 
L 312.232287 -211.12471 
L 312.511786 -209.486703 
L 312.792232 -207.848697 
L 313.074484 -206.21069 
L 313.360528 -204.572683 
L 313.653214 -202.934677 
L 313.955825 -201.29667 
L 314.27152 -199.658663 
L 314.602713 -198.020657 
L 314.950437 -196.38265 
L 315.313799 -194.744643 
L 315.68959 -193.106637 
L 316.072132 -191.46863 
L 316.453439 -189.830623 
L 316.823695 -188.192617 
L 317.172053 -186.55461 
L 317.487681 -184.916603 
L 317.760933 -183.278597 
L 317.98449 -181.64059 
L 318.154298 -180.002584 
L 318.270142 -178.364577 
L 318.335753 -176.72657 
L 318.358388 -175.088564 
L 318.34795 -173.450557 
L 318.315747 -171.81255 
L 318.273073 -170.174544 
L 318.229828 -168.536537 
L 318.19336 -166.89853 
L 318.167699 -165.260524 
L 318.153264 -163.622517 
L 318.147059 -161.98451 
L 318.143301 -160.346504 
L 318.134344 -158.708497 
L 318.111768 -157.07049 
L 318.067435 -155.432484 
L 317.994403 -153.794477 
L 317.887567 -152.156471 
L 317.743986 -150.518464 
L 317.562906 -148.880457 
L 317.345514 -147.242451 
L 317.094532 -145.604444 
L 316.813728 -143.966437 
L 316.50745 -142.328431 
L 316.180246 -140.690424 
L 315.836601 -139.052417 
L 315.480804 -137.414411 
L 315.116908 -135.776404 
L 314.748736 -134.138397 
L 314.379907 -132.500391 
L 314.013838 -130.862384 
L 313.653708 -129.224377 
L 313.302398 -127.586371 
L 312.962423 -125.948364 
L 312.635875 -124.310357 
L 312.324407 -122.672351 
L 312.02926 -121.034344 
L 311.751318 -119.396338 
L 311.491186 -117.758331 
L 311.249263 -116.120324 
L 311.025781 -114.482318 
L 310.820806 -112.844311 
L 310.634211 -111.206304 
L 310.465616 -109.568298 
L 310.314344 -107.930291 
L 310.179392 -106.292284 
L 310.059458 -104.654278 
L 309.95301 -103.016271 
L 309.8584 -101.378264 
L 309.773997 -99.740258 
L 309.69832 -98.102251 
L 309.630135 -96.464244 
L 309.568517 -94.826238 
L 309.512848 -93.188231 
L 309.462772 -91.550225 
L 309.418119 -89.912218 
L 309.378809 -88.274211 
L 309.344767 -86.636205 
L 309.315848 -84.998198 
L 309.291807 -83.360191 
L 309.27228 -81.722185 
L 309.256802 -80.084178 
z
" style="stroke: #5c5c5c; stroke-width: 1.5"/>
    </defs>
    <g clip-path="url(#p0430b884d0)">
     <use xlink:href="#m3aa4072a97" x="0" y="277.455877" style="fill: #cb67b7; stroke: #5c5c5c; stroke-width: 1.5"/>
    </g>
   </g>
   <g id="matplotlib.axis_1">
    <g id="xtick_1">
     <g id="line2d_1">
      <defs>
       <path id="mdbed89fe0c" d="M 0 0 
L 0 3.5 
" style="stroke: #000000; stroke-width: 0.8"/>
      </defs>
      <g>
       <use xlink:href="#mdbed89fe0c" x="70.072321" y="224.64" style="stroke: #000000; stroke-width: 0.8"/>
      </g>
     </g>
     <g id="text_1">
      <!-- VIS -->
      <g transform="translate(61.704215 238.22044)rotate(-330)scale(0.1 -0.1)">
       <defs>
        <path id="DejaVuSans-56" d="M 1831 0 
L 50 4666 
L 709 4666 
L 2188 738 
L 3669 4666 
L 4325 4666 
L 2547 0 
L 1831 0 
z
" transform="scale(0.015625)"/>
        <path id="DejaVuSans-49" d="M 628 4666 
L 1259 4666 
L 1259 0 
L 628 0 
L 628 4666 
z
" transform="scale(0.015625)"/>
        <path id="DejaVuSans-53" d="M 3425 4513 
L 3425 3897 
Q 3066 4069 2747 4153 
Q 2428 4238 2131 4238 
Q 1616 4238 1336 4038 
Q 1056 3838 1056 3469 
Q 1056 3159 1242 3001 
Q 1428 2844 1947 2747 
L 2328 2669 
Q 3034 2534 3370 2195 
Q 3706 1856 3706 1288 
Q 3706 609 3251 259 
Q 2797 -91 1919 -91 
Q 1588 -91 1214 -16 
Q 841 59 441 206 
L 441 856 
Q 825 641 1194 531 
Q 1563 422 1919 422 
Q 2459 422 2753 634 
Q 3047 847 3047 1241 
Q 3047 1584 2836 1778 
Q 2625 1972 2144 2069 
L 1759 2144 
Q 1053 2284 737 2584 
Q 422 2884 422 3419 
Q 422 4038 858 4394 
Q 1294 4750 2059 4750 
Q 2388 4750 2728 4690 
Q 3069 4631 3425 4513 
z
" transform="scale(0.015625)"/>
       </defs>
       <use xlink:href="#DejaVuSans-56"/>
       <use xlink:href="#DejaVuSans-49" x="68.408203"/>
       <use xlink:href="#DejaVuSans-53" x="97.900391"/>
      </g>
     </g>
    </g>
    <g id="xtick_2">
     <g id="line2d_2">
      <g>
       <use xlink:href="#mdbed89fe0c" x="109.929464" y="224.64" style="stroke: #000000; stroke-width: 0.8"/>
      </g>
     </g>
     <g id="text_2">
      <!-- SOM -->
      <g transform="translate(98.656113 238.22044)rotate(-330)scale(0.1 -0.1)">
       <defs>
        <path id="DejaVuSans-4f" d="M 2522 4238 
Q 1834 4238 1429 3725 
Q 1025 3213 1025 2328 
Q 1025 1447 1429 934 
Q 1834 422 2522 422 
Q 3209 422 3611 934 
Q 4013 1447 4013 2328 
Q 4013 3213 3611 3725 
Q 3209 4238 2522 4238 
z
M 2522 4750 
Q 3503 4750 4090 4092 
Q 4678 3434 4678 2328 
Q 4678 1225 4090 567 
Q 3503 -91 2522 -91 
Q 1538 -91 948 565 
Q 359 1222 359 2328 
Q 359 3434 948 4092 
Q 1538 4750 2522 4750 
z
" transform="scale(0.015625)"/>
        <path id="DejaVuSans-4d" d="M 628 4666 
L 1569 4666 
L 2759 1491 
L 3956 4666 
L 4897 4666 
L 4897 0 
L 4281 0 
L 4281 4097 
L 3078 897 
L 2444 897 
L 1241 4097 
L 1241 0 
L 628 0 
L 628 4666 
z
" transform="scale(0.015625)"/>
       </defs>
       <use xlink:href="#DejaVuSans-53"/>
       <use xlink:href="#DejaVuSans-4f" x="63.476562"/>
       <use xlink:href="#DejaVuSans-4d" x="142.1875"/>
      </g>
     </g>
    </g>
    <g id="xtick_3">
     <g id="line2d_3">
      <g>
       <use xlink:href="#mdbed89fe0c" x="149.786607" y="224.64" style="stroke: #000000; stroke-width: 0.8"/>
      </g>
     </g>
     <g id="text_3">
      <!-- DATTN -->
      <g transform="translate(134.068787 238.22044)rotate(-330)scale(0.1 -0.1)">
       <defs>
        <path id="DejaVuSans-44" d="M 1259 4147 
L 1259 519 
L 2022 519 
Q 2988 519 3436 956 
Q 3884 1394 3884 2338 
Q 3884 3275 3436 3711 
Q 2988 4147 2022 4147 
L 1259 4147 
z
M 628 4666 
L 1925 4666 
Q 3281 4666 3915 4102 
Q 4550 3538 4550 2338 
Q 4550 1131 3912 565 
Q 3275 0 1925 0 
L 628 0 
L 628 4666 
z
" transform="scale(0.015625)"/>
        <path id="DejaVuSans-41" d="M 2188 4044 
L 1331 1722 
L 3047 1722 
L 2188 4044 
z
M 1831 4666 
L 2547 4666 
L 4325 0 
L 3669 0 
L 3244 1197 
L 1141 1197 
L 716 0 
L 50 0 
L 1831 4666 
z
" transform="scale(0.015625)"/>
        <path id="DejaVuSans-54" d="M -19 4666 
L 3928 4666 
L 3928 4134 
L 2272 4134 
L 2272 0 
L 1638 0 
L 1638 4134 
L -19 4134 
L -19 4666 
z
" transform="scale(0.015625)"/>
        <path id="DejaVuSans-4e" d="M 628 4666 
L 1478 4666 
L 3547 763 
L 3547 4666 
L 4159 4666 
L 4159 0 
L 3309 0 
L 1241 3903 
L 1241 0 
L 628 0 
L 628 4666 
z
" transform="scale(0.015625)"/>
       </defs>
       <use xlink:href="#DejaVuSans-44"/>
       <use xlink:href="#DejaVuSans-41" x="75.251953"/>
       <use xlink:href="#DejaVuSans-54" x="135.910156"/>
       <use xlink:href="#DejaVuSans-54" x="195.244141"/>
       <use xlink:href="#DejaVuSans-4e" x="256.328125"/>
      </g>
     </g>
    </g>
    <g id="xtick_4">
     <g id="line2d_4">
      <g>
       <use xlink:href="#mdbed89fe0c" x="189.64375" y="224.64" style="stroke: #000000; stroke-width: 0.8"/>
      </g>
     </g>
     <g id="text_4">
      <!-- VATTN -->
      <g transform="translate(174.498318 238.22044)rotate(-330)scale(0.1 -0.1)">
       <use xlink:href="#DejaVuSans-56"/>
       <use xlink:href="#DejaVuSans-41" x="62.033203"/>
       <use xlink:href="#DejaVuSans-54" x="122.691406"/>
       <use xlink:href="#DejaVuSans-54" x="182.025391"/>
       <use xlink:href="#DejaVuSans-4e" x="243.109375"/>
      </g>
     </g>
    </g>
    <g id="xtick_5">
     <g id="line2d_5">
      <g>
       <use xlink:href="#mdbed89fe0c" x="229.500893" y="224.64" style="stroke: #000000; stroke-width: 0.8"/>
      </g>
     </g>
     <g id="text_5">
      <!-- LIM -->
      <g transform="translate(220.695038 238.22044)rotate(-330)scale(0.1 -0.1)">
       <defs>
        <path id="DejaVuSans-4c" d="M 628 4666 
L 1259 4666 
L 1259 531 
L 3531 531 
L 3531 0 
L 628 0 
L 628 4666 
z
" transform="scale(0.015625)"/>
       </defs>
       <use xlink:href="#DejaVuSans-4c"/>
       <use xlink:href="#DejaVuSans-49" x="55.712891"/>
       <use xlink:href="#DejaVuSans-4d" x="85.205078"/>
      </g>
     </g>
    </g>
    <g id="xtick_6">
     <g id="line2d_6">
      <g>
       <use xlink:href="#mdbed89fe0c" x="269.358036" y="224.64" style="stroke: #000000; stroke-width: 0.8"/>
      </g>
     </g>
     <g id="text_6">
      <!-- CONT -->
      <g transform="translate(255.661843 238.22044)rotate(-330)scale(0.1 -0.1)">
       <defs>
        <path id="DejaVuSans-43" d="M 4122 4306 
L 4122 3641 
Q 3803 3938 3442 4084 
Q 3081 4231 2675 4231 
Q 1875 4231 1450 3742 
Q 1025 3253 1025 2328 
Q 1025 1406 1450 917 
Q 1875 428 2675 428 
Q 3081 428 3442 575 
Q 3803 722 4122 1019 
L 4122 359 
Q 3791 134 3420 21 
Q 3050 -91 2638 -91 
Q 1578 -91 968 557 
Q 359 1206 359 2328 
Q 359 3453 968 4101 
Q 1578 4750 2638 4750 
Q 3056 4750 3426 4639 
Q 3797 4528 4122 4306 
z
" transform="scale(0.015625)"/>
       </defs>
       <use xlink:href="#DejaVuSans-43"/>
       <use xlink:href="#DejaVuSans-4f" x="69.824219"/>
       <use xlink:href="#DejaVuSans-4e" x="148.535156"/>
       <use xlink:href="#DejaVuSans-54" x="223.339844"/>
      </g>
     </g>
    </g>
    <g id="xtick_7">
     <g id="line2d_7">
      <g>
       <use xlink:href="#mdbed89fe0c" x="309.215179" y="224.64" style="stroke: #000000; stroke-width: 0.8"/>
      </g>
     </g>
     <g id="text_7">
      <!-- DMN -->
      <g transform="translate(297.525729 238.22044)rotate(-330)scale(0.1 -0.1)">
       <use xlink:href="#DejaVuSans-44"/>
       <use xlink:href="#DejaVuSans-4d" x="77.001953"/>
       <use xlink:href="#DejaVuSans-4e" x="163.28125"/>
      </g>
     </g>
    </g>
    <g id="text_8">
     <!-- Intrinsic network -->
     <g transform="translate(147.789844 268.17619)scale(0.1 -0.1)">
      <defs>
       <path id="DejaVuSans-6e" d="M 3513 2113 
L 3513 0 
L 2938 0 
L 2938 2094 
Q 2938 2591 2744 2837 
Q 2550 3084 2163 3084 
Q 1697 3084 1428 2787 
Q 1159 2491 1159 1978 
L 1159 0 
L 581 0 
L 581 3500 
L 1159 3500 
L 1159 2956 
Q 1366 3272 1645 3428 
Q 1925 3584 2291 3584 
Q 2894 3584 3203 3211 
Q 3513 2838 3513 2113 
z
" transform="scale(0.015625)"/>
       <path id="DejaVuSans-74" d="M 1172 4494 
L 1172 3500 
L 2356 3500 
L 2356 3053 
L 1172 3053 
L 1172 1153 
Q 1172 725 1289 603 
Q 1406 481 1766 481 
L 2356 481 
L 2356 0 
L 1766 0 
Q 1100 0 847 248 
Q 594 497 594 1153 
L 594 3053 
L 172 3053 
L 172 3500 
L 594 3500 
L 594 4494 
L 1172 4494 
z
" transform="scale(0.015625)"/>
       <path id="DejaVuSans-72" d="M 2631 2963 
Q 2534 3019 2420 3045 
Q 2306 3072 2169 3072 
Q 1681 3072 1420 2755 
Q 1159 2438 1159 1844 
L 1159 0 
L 581 0 
L 581 3500 
L 1159 3500 
L 1159 2956 
Q 1341 3275 1631 3429 
Q 1922 3584 2338 3584 
Q 2397 3584 2469 3576 
Q 2541 3569 2628 3553 
L 2631 2963 
z
" transform="scale(0.015625)"/>
       <path id="DejaVuSans-69" d="M 603 3500 
L 1178 3500 
L 1178 0 
L 603 0 
L 603 3500 
z
M 603 4863 
L 1178 4863 
L 1178 4134 
L 603 4134 
L 603 4863 
z
" transform="scale(0.015625)"/>
       <path id="DejaVuSans-73" d="M 2834 3397 
L 2834 2853 
Q 2591 2978 2328 3040 
Q 2066 3103 1784 3103 
Q 1356 3103 1142 2972 
Q 928 2841 928 2578 
Q 928 2378 1081 2264 
Q 1234 2150 1697 2047 
L 1894 2003 
Q 2506 1872 2764 1633 
Q 3022 1394 3022 966 
Q 3022 478 2636 193 
Q 2250 -91 1575 -91 
Q 1294 -91 989 -36 
Q 684 19 347 128 
L 347 722 
Q 666 556 975 473 
Q 1284 391 1588 391 
Q 1994 391 2212 530 
Q 2431 669 2431 922 
Q 2431 1156 2273 1281 
Q 2116 1406 1581 1522 
L 1381 1569 
Q 847 1681 609 1914 
Q 372 2147 372 2553 
Q 372 3047 722 3315 
Q 1072 3584 1716 3584 
Q 2034 3584 2315 3537 
Q 2597 3491 2834 3397 
z
" transform="scale(0.015625)"/>
       <path id="DejaVuSans-63" d="M 3122 3366 
L 3122 2828 
Q 2878 2963 2633 3030 
Q 2388 3097 2138 3097 
Q 1578 3097 1268 2742 
Q 959 2388 959 1747 
Q 959 1106 1268 751 
Q 1578 397 2138 397 
Q 2388 397 2633 464 
Q 2878 531 3122 666 
L 3122 134 
Q 2881 22 2623 -34 
Q 2366 -91 2075 -91 
Q 1284 -91 818 406 
Q 353 903 353 1747 
Q 353 2603 823 3093 
Q 1294 3584 2113 3584 
Q 2378 3584 2631 3529 
Q 2884 3475 3122 3366 
z
" transform="scale(0.015625)"/>
       <path id="DejaVuSans-20" transform="scale(0.015625)"/>
       <path id="DejaVuSans-65" d="M 3597 1894 
L 3597 1613 
L 953 1613 
Q 991 1019 1311 708 
Q 1631 397 2203 397 
Q 2534 397 2845 478 
Q 3156 559 3463 722 
L 3463 178 
Q 3153 47 2828 -22 
Q 2503 -91 2169 -91 
Q 1331 -91 842 396 
Q 353 884 353 1716 
Q 353 2575 817 3079 
Q 1281 3584 2069 3584 
Q 2775 3584 3186 3129 
Q 3597 2675 3597 1894 
z
M 3022 2063 
Q 3016 2534 2758 2815 
Q 2500 3097 2075 3097 
Q 1594 3097 1305 2825 
Q 1016 2553 972 2059 
L 3022 2063 
z
" transform="scale(0.015625)"/>
       <path id="DejaVuSans-77" d="M 269 3500 
L 844 3500 
L 1563 769 
L 2278 3500 
L 2956 3500 
L 3675 769 
L 4391 3500 
L 4966 3500 
L 4050 0 
L 3372 0 
L 2619 2869 
L 1863 0 
L 1184 0 
L 269 3500 
z
" transform="scale(0.015625)"/>
       <path id="DejaVuSans-6f" d="M 1959 3097 
Q 1497 3097 1228 2736 
Q 959 2375 959 1747 
Q 959 1119 1226 758 
Q 1494 397 1959 397 
Q 2419 397 2687 759 
Q 2956 1122 2956 1747 
Q 2956 2369 2687 2733 
Q 2419 3097 1959 3097 
z
M 1959 3584 
Q 2709 3584 3137 3096 
Q 3566 2609 3566 1747 
Q 3566 888 3137 398 
Q 2709 -91 1959 -91 
Q 1206 -91 779 398 
Q 353 888 353 1747 
Q 353 2609 779 3096 
Q 1206 3584 1959 3584 
z
" transform="scale(0.015625)"/>
       <path id="DejaVuSans-6b" d="M 581 4863 
L 1159 4863 
L 1159 1991 
L 2875 3500 
L 3609 3500 
L 1753 1863 
L 3688 0 
L 2938 0 
L 1159 1709 
L 1159 0 
L 581 0 
L 581 4863 
z
" transform="scale(0.015625)"/>
      </defs>
      <use xlink:href="#DejaVuSans-49"/>
      <use xlink:href="#DejaVuSans-6e" x="29.492188"/>
      <use xlink:href="#DejaVuSans-74" x="92.871094"/>
      <use xlink:href="#DejaVuSans-72" x="132.080078"/>
      <use xlink:href="#DejaVuSans-69" x="173.193359"/>
      <use xlink:href="#DejaVuSans-6e" x="200.976562"/>
      <use xlink:href="#DejaVuSans-73" x="264.355469"/>
      <use xlink:href="#DejaVuSans-69" x="316.455078"/>
      <use xlink:href="#DejaVuSans-63" x="344.238281"/>
      <use xlink:href="#DejaVuSans-20" x="399.21875"/>
      <use xlink:href="#DejaVuSans-6e" x="431.005859"/>
      <use xlink:href="#DejaVuSans-65" x="494.384766"/>
      <use xlink:href="#DejaVuSans-74" x="555.908203"/>
      <use xlink:href="#DejaVuSans-77" x="595.117188"/>
      <use xlink:href="#DejaVuSans-6f" x="676.904297"/>
      <use xlink:href="#DejaVuSans-72" x="738.085938"/>
      <use xlink:href="#DejaVuSans-6b" x="779.199219"/>
     </g>
    </g>
   </g>
   <g id="matplotlib.axis_2">
    <g id="ytick_1">
     <g id="line2d_8">
      <defs>
       <path id="mb752c80194" d="M 0 0 
L -3.5 0 
" style="stroke: #000000; stroke-width: 0.8"/>
      </defs>
      <g>
       <use xlink:href="#mb752c80194" x="50.14375" y="200.748834" style="stroke: #000000; stroke-width: 0.8"/>
      </g>
     </g>
     <g id="text_9">
      <!-- 0.02 -->
      <g transform="translate(20.878125 204.548053)scale(0.1 -0.1)">
       <defs>
        <path id="DejaVuSans-30" d="M 2034 4250 
Q 1547 4250 1301 3770 
Q 1056 3291 1056 2328 
Q 1056 1369 1301 889 
Q 1547 409 2034 409 
Q 2525 409 2770 889 
Q 3016 1369 3016 2328 
Q 3016 3291 2770 3770 
Q 2525 4250 2034 4250 
z
M 2034 4750 
Q 2819 4750 3233 4129 
Q 3647 3509 3647 2328 
Q 3647 1150 3233 529 
Q 2819 -91 2034 -91 
Q 1250 -91 836 529 
Q 422 1150 422 2328 
Q 422 3509 836 4129 
Q 1250 4750 2034 4750 
z
" transform="scale(0.015625)"/>
        <path id="DejaVuSans-2e" d="M 684 794 
L 1344 794 
L 1344 0 
L 684 0 
L 684 794 
z
" transform="scale(0.015625)"/>
        <path id="DejaVuSans-32" d="M 1228 531 
L 3431 531 
L 3431 0 
L 469 0 
L 469 531 
Q 828 903 1448 1529 
Q 2069 2156 2228 2338 
Q 2531 2678 2651 2914 
Q 2772 3150 2772 3378 
Q 2772 3750 2511 3984 
Q 2250 4219 1831 4219 
Q 1534 4219 1204 4116 
Q 875 4013 500 3803 
L 500 4441 
Q 881 4594 1212 4672 
Q 1544 4750 1819 4750 
Q 2544 4750 2975 4387 
Q 3406 4025 3406 3419 
Q 3406 3131 3298 2873 
Q 3191 2616 2906 2266 
Q 2828 2175 2409 1742 
Q 1991 1309 1228 531 
z
" transform="scale(0.015625)"/>
       </defs>
       <use xlink:href="#DejaVuSans-30"/>
       <use xlink:href="#DejaVuSans-2e" x="63.623047"/>
       <use xlink:href="#DejaVuSans-30" x="95.410156"/>
       <use xlink:href="#DejaVuSans-32" x="159.033203"/>
      </g>
     </g>
    </g>
    <g id="ytick_2">
     <g id="line2d_9">
      <g>
       <use xlink:href="#mb752c80194" x="50.14375" y="171.664965" style="stroke: #000000; stroke-width: 0.8"/>
      </g>
     </g>
     <g id="text_10">
      <!-- 0.04 -->
      <g transform="translate(20.878125 175.464184)scale(0.1 -0.1)">
       <defs>
        <path id="DejaVuSans-34" d="M 2419 4116 
L 825 1625 
L 2419 1625 
L 2419 4116 
z
M 2253 4666 
L 3047 4666 
L 3047 1625 
L 3713 1625 
L 3713 1100 
L 3047 1100 
L 3047 0 
L 2419 0 
L 2419 1100 
L 313 1100 
L 313 1709 
L 2253 4666 
z
" transform="scale(0.015625)"/>
       </defs>
       <use xlink:href="#DejaVuSans-30"/>
       <use xlink:href="#DejaVuSans-2e" x="63.623047"/>
       <use xlink:href="#DejaVuSans-30" x="95.410156"/>
       <use xlink:href="#DejaVuSans-34" x="159.033203"/>
      </g>
     </g>
    </g>
    <g id="ytick_3">
     <g id="line2d_10">
      <g>
       <use xlink:href="#mb752c80194" x="50.14375" y="142.581096" style="stroke: #000000; stroke-width: 0.8"/>
      </g>
     </g>
     <g id="text_11">
      <!-- 0.06 -->
      <g transform="translate(20.878125 146.380315)scale(0.1 -0.1)">
       <defs>
        <path id="DejaVuSans-36" d="M 2113 2584 
Q 1688 2584 1439 2293 
Q 1191 2003 1191 1497 
Q 1191 994 1439 701 
Q 1688 409 2113 409 
Q 2538 409 2786 701 
Q 3034 994 3034 1497 
Q 3034 2003 2786 2293 
Q 2538 2584 2113 2584 
z
M 3366 4563 
L 3366 3988 
Q 3128 4100 2886 4159 
Q 2644 4219 2406 4219 
Q 1781 4219 1451 3797 
Q 1122 3375 1075 2522 
Q 1259 2794 1537 2939 
Q 1816 3084 2150 3084 
Q 2853 3084 3261 2657 
Q 3669 2231 3669 1497 
Q 3669 778 3244 343 
Q 2819 -91 2113 -91 
Q 1303 -91 875 529 
Q 447 1150 447 2328 
Q 447 3434 972 4092 
Q 1497 4750 2381 4750 
Q 2619 4750 2861 4703 
Q 3103 4656 3366 4563 
z
" transform="scale(0.015625)"/>
       </defs>
       <use xlink:href="#DejaVuSans-30"/>
       <use xlink:href="#DejaVuSans-2e" x="63.623047"/>
       <use xlink:href="#DejaVuSans-30" x="95.410156"/>
       <use xlink:href="#DejaVuSans-36" x="159.033203"/>
      </g>
     </g>
    </g>
    <g id="ytick_4">
     <g id="line2d_11">
      <g>
       <use xlink:href="#mb752c80194" x="50.14375" y="113.497227" style="stroke: #000000; stroke-width: 0.8"/>
      </g>
     </g>
     <g id="text_12">
      <!-- 0.08 -->
      <g transform="translate(20.878125 117.296446)scale(0.1 -0.1)">
       <defs>
        <path id="DejaVuSans-38" d="M 2034 2216 
Q 1584 2216 1326 1975 
Q 1069 1734 1069 1313 
Q 1069 891 1326 650 
Q 1584 409 2034 409 
Q 2484 409 2743 651 
Q 3003 894 3003 1313 
Q 3003 1734 2745 1975 
Q 2488 2216 2034 2216 
z
M 1403 2484 
Q 997 2584 770 2862 
Q 544 3141 544 3541 
Q 544 4100 942 4425 
Q 1341 4750 2034 4750 
Q 2731 4750 3128 4425 
Q 3525 4100 3525 3541 
Q 3525 3141 3298 2862 
Q 3072 2584 2669 2484 
Q 3125 2378 3379 2068 
Q 3634 1759 3634 1313 
Q 3634 634 3220 271 
Q 2806 -91 2034 -91 
Q 1263 -91 848 271 
Q 434 634 434 1313 
Q 434 1759 690 2068 
Q 947 2378 1403 2484 
z
M 1172 3481 
Q 1172 3119 1398 2916 
Q 1625 2713 2034 2713 
Q 2441 2713 2670 2916 
Q 2900 3119 2900 3481 
Q 2900 3844 2670 4047 
Q 2441 4250 2034 4250 
Q 1625 4250 1398 4047 
Q 1172 3844 1172 3481 
z
" transform="scale(0.015625)"/>
       </defs>
       <use xlink:href="#DejaVuSans-30"/>
       <use xlink:href="#DejaVuSans-2e" x="63.623047"/>
       <use xlink:href="#DejaVuSans-30" x="95.410156"/>
       <use xlink:href="#DejaVuSans-38" x="159.033203"/>
      </g>
     </g>
    </g>
    <g id="ytick_5">
     <g id="line2d_12">
      <g>
       <use xlink:href="#mb752c80194" x="50.14375" y="84.413358" style="stroke: #000000; stroke-width: 0.8"/>
      </g>
     </g>
     <g id="text_13">
      <!-- 0.10 -->
      <g transform="translate(20.878125 88.212577)scale(0.1 -0.1)">
       <defs>
        <path id="DejaVuSans-31" d="M 794 531 
L 1825 531 
L 1825 4091 
L 703 3866 
L 703 4441 
L 1819 4666 
L 2450 4666 
L 2450 531 
L 3481 531 
L 3481 0 
L 794 0 
L 794 531 
z
" transform="scale(0.015625)"/>
       </defs>
       <use xlink:href="#DejaVuSans-30"/>
       <use xlink:href="#DejaVuSans-2e" x="63.623047"/>
       <use xlink:href="#DejaVuSans-31" x="95.410156"/>
       <use xlink:href="#DejaVuSans-30" x="159.033203"/>
      </g>
     </g>
    </g>
    <g id="ytick_6">
     <g id="line2d_13">
      <g>
       <use xlink:href="#mb752c80194" x="50.14375" y="55.329489" style="stroke: #000000; stroke-width: 0.8"/>
      </g>
     </g>
     <g id="text_14">
      <!-- 0.12 -->
      <g transform="translate(20.878125 59.128708)scale(0.1 -0.1)">
       <use xlink:href="#DejaVuSans-30"/>
       <use xlink:href="#DejaVuSans-2e" x="63.623047"/>
       <use xlink:href="#DejaVuSans-31" x="95.410156"/>
       <use xlink:href="#DejaVuSans-32" x="159.033203"/>
      </g>
     </g>
    </g>
    <g id="ytick_7">
     <g id="line2d_14">
      <g>
       <use xlink:href="#mb752c80194" x="50.14375" y="26.24562" style="stroke: #000000; stroke-width: 0.8"/>
      </g>
     </g>
     <g id="text_15">
      <!-- 0.14 -->
      <g transform="translate(20.878125 30.044839)scale(0.1 -0.1)">
       <use xlink:href="#DejaVuSans-30"/>
       <use xlink:href="#DejaVuSans-2e" x="63.623047"/>
       <use xlink:href="#DejaVuSans-31" x="95.410156"/>
       <use xlink:href="#DejaVuSans-34" x="159.033203"/>
      </g>
     </g>
    </g>
    <g id="text_16">
     <!-- Cluster coefficient -->
     <g transform="translate(14.798438 161.393437)rotate(-90)scale(0.1 -0.1)">
      <defs>
       <path id="DejaVuSans-6c" d="M 603 4863 
L 1178 4863 
L 1178 0 
L 603 0 
L 603 4863 
z
" transform="scale(0.015625)"/>
       <path id="DejaVuSans-75" d="M 544 1381 
L 544 3500 
L 1119 3500 
L 1119 1403 
Q 1119 906 1312 657 
Q 1506 409 1894 409 
Q 2359 409 2629 706 
Q 2900 1003 2900 1516 
L 2900 3500 
L 3475 3500 
L 3475 0 
L 2900 0 
L 2900 538 
Q 2691 219 2414 64 
Q 2138 -91 1772 -91 
Q 1169 -91 856 284 
Q 544 659 544 1381 
z
M 1991 3584 
L 1991 3584 
z
" transform="scale(0.015625)"/>
       <path id="DejaVuSans-66" d="M 2375 4863 
L 2375 4384 
L 1825 4384 
Q 1516 4384 1395 4259 
Q 1275 4134 1275 3809 
L 1275 3500 
L 2222 3500 
L 2222 3053 
L 1275 3053 
L 1275 0 
L 697 0 
L 697 3053 
L 147 3053 
L 147 3500 
L 697 3500 
L 697 3744 
Q 697 4328 969 4595 
Q 1241 4863 1831 4863 
L 2375 4863 
z
" transform="scale(0.015625)"/>
      </defs>
      <use xlink:href="#DejaVuSans-43"/>
      <use xlink:href="#DejaVuSans-6c" x="69.824219"/>
      <use xlink:href="#DejaVuSans-75" x="97.607422"/>
      <use xlink:href="#DejaVuSans-73" x="160.986328"/>
      <use xlink:href="#DejaVuSans-74" x="213.085938"/>
      <use xlink:href="#DejaVuSans-65" x="252.294922"/>
      <use xlink:href="#DejaVuSans-72" x="313.818359"/>
      <use xlink:href="#DejaVuSans-20" x="354.931641"/>
      <use xlink:href="#DejaVuSans-63" x="386.71875"/>
      <use xlink:href="#DejaVuSans-6f" x="441.699219"/>
      <use xlink:href="#DejaVuSans-65" x="502.880859"/>
      <use xlink:href="#DejaVuSans-66" x="564.404297"/>
      <use xlink:href="#DejaVuSans-66" x="599.609375"/>
      <use xlink:href="#DejaVuSans-69" x="634.814453"/>
      <use xlink:href="#DejaVuSans-63" x="662.597656"/>
      <use xlink:href="#DejaVuSans-69" x="717.578125"/>
      <use xlink:href="#DejaVuSans-65" x="745.361328"/>
      <use xlink:href="#DejaVuSans-6e" x="806.884766"/>
      <use xlink:href="#DejaVuSans-74" x="870.263672"/>
     </g>
    </g>
   </g>
   <g id="line2d_15">
    <path d="M 65.114751 135.923424 
L 75.029892 135.923424 
" clip-path="url(#p0430b884d0)" style="fill: none; stroke-dasharray: 3.375,3.375; stroke-dashoffset: 0; stroke: #5c5c5c; stroke-width: 1.5"/>
   </g>
   <g id="line2d_16">
    <path d="M 64.599434 96.914096 
L 75.545209 96.914096 
" clip-path="url(#p0430b884d0)" style="fill: none; stroke-dasharray: 6.75,6.75; stroke-dashoffset: 0; stroke: #5c5c5c; stroke-width: 1.5"/>
   </g>
   <g id="line2d_17">
    <path d="M 63.468239 75.817481 
L 76.676404 75.817481 
" clip-path="url(#p0430b884d0)" style="fill: none; stroke-dasharray: 3.375,3.375; stroke-dashoffset: 0; stroke: #5c5c5c; stroke-width: 1.5"/>
   </g>
   <g id="line2d_18">
    <path d="M 99.707844 89.865328 
L 120.151085 89.865328 
" clip-path="url(#p0430b884d0)" style="fill: none; stroke-dasharray: 3.375,3.375; stroke-dashoffset: 0; stroke: #5c5c5c; stroke-width: 1.5"/>
   </g>
   <g id="line2d_19">
    <path d="M 97.586234 75.876199 
L 122.272695 75.876199 
" clip-path="url(#p0430b884d0)" style="fill: none; stroke-dasharray: 6.75,6.75; stroke-dashoffset: 0; stroke: #5c5c5c; stroke-width: 1.5"/>
   </g>
   <g id="line2d_20">
    <path d="M 98.972732 62.237378 
L 120.886197 62.237378 
" clip-path="url(#p0430b884d0)" style="fill: none; stroke-dasharray: 3.375,3.375; stroke-dashoffset: 0; stroke: #5c5c5c; stroke-width: 1.5"/>
   </g>
   <g id="line2d_21">
    <path d="M 142.176092 105.967544 
L 157.397122 105.967544 
" clip-path="url(#p0430b884d0)" style="fill: none; stroke-dasharray: 3.375,3.375; stroke-dashoffset: 0; stroke: #5c5c5c; stroke-width: 1.5"/>
   </g>
   <g id="line2d_22">
    <path d="M 141.367306 84.361998 
L 158.205908 84.361998 
" clip-path="url(#p0430b884d0)" style="fill: none; stroke-dasharray: 6.75,6.75; stroke-dashoffset: 0; stroke: #5c5c5c; stroke-width: 1.5"/>
   </g>
   <g id="line2d_23">
    <path d="M 139.970526 67.267763 
L 159.602688 67.267763 
" clip-path="url(#p0430b884d0)" style="fill: none; stroke-dasharray: 3.375,3.375; stroke-dashoffset: 0; stroke: #5c5c5c; stroke-width: 1.5"/>
   </g>
   <g id="line2d_24">
    <path d="M 181.084287 113.357032 
L 198.203213 113.357032 
" clip-path="url(#p0430b884d0)" style="fill: none; stroke-dasharray: 3.375,3.375; stroke-dashoffset: 0; stroke: #5c5c5c; stroke-width: 1.5"/>
   </g>
   <g id="line2d_25">
    <path d="M 181.465029 101.104111 
L 197.822471 101.104111 
" clip-path="url(#p0430b884d0)" style="fill: none; stroke-dasharray: 6.75,6.75; stroke-dashoffset: 0; stroke: #5c5c5c; stroke-width: 1.5"/>
   </g>
   <g id="line2d_26">
    <path d="M 183.005371 72.916005 
L 196.282129 72.916005 
" clip-path="url(#p0430b884d0)" style="fill: none; stroke-dasharray: 3.375,3.375; stroke-dashoffset: 0; stroke: #5c5c5c; stroke-width: 1.5"/>
   </g>
   <g id="line2d_27">
    <path d="M 216.619342 172.118004 
L 242.382444 172.118004 
" clip-path="url(#p0430b884d0)" style="fill: none; stroke-dasharray: 3.375,3.375; stroke-dashoffset: 0; stroke: #5c5c5c; stroke-width: 1.5"/>
   </g>
   <g id="line2d_28">
    <path d="M 216.040552 164.777135 
L 242.961234 164.777135 
" clip-path="url(#p0430b884d0)" style="fill: none; stroke-dasharray: 6.75,6.75; stroke-dashoffset: 0; stroke: #5c5c5c; stroke-width: 1.5"/>
   </g>
   <g id="line2d_29">
    <path d="M 220.12435 151.352657 
L 238.877435 151.352657 
" clip-path="url(#p0430b884d0)" style="fill: none; stroke-dasharray: 3.375,3.375; stroke-dashoffset: 0; stroke: #5c5c5c; stroke-width: 1.5"/>
   </g>
   <g id="line2d_30">
    <path d="M 255.917825 144.107128 
L 282.798246 144.107128 
" clip-path="url(#p0430b884d0)" style="fill: none; stroke-dasharray: 3.375,3.375; stroke-dashoffset: 0; stroke: #5c5c5c; stroke-width: 1.5"/>
   </g>
   <g id="line2d_31">
    <path d="M 253.616716 135.007062 
L 285.099356 135.007062 
" clip-path="url(#p0430b884d0)" style="fill: none; stroke-dasharray: 6.75,6.75; stroke-dashoffset: 0; stroke: #5c5c5c; stroke-width: 1.5"/>
   </g>
   <g id="line2d_32">
    <path d="M 256.184307 125.69255 
L 282.531764 125.69255 
" clip-path="url(#p0430b884d0)" style="fill: none; stroke-dasharray: 3.375,3.375; stroke-dashoffset: 0; stroke: #5c5c5c; stroke-width: 1.5"/>
   </g>
   <g id="line2d_33">
    <path d="M 301.166147 129.984871 
L 317.26421 129.984871 
" clip-path="url(#p0430b884d0)" style="fill: none; stroke-dasharray: 3.375,3.375; stroke-dashoffset: 0; stroke: #5c5c5c; stroke-width: 1.5"/>
   </g>
   <g id="line2d_34">
    <path d="M 300.326779 111.232255 
L 318.103578 111.232255 
" clip-path="url(#p0430b884d0)" style="fill: none; stroke-dasharray: 6.75,6.75; stroke-dashoffset: 0; stroke: #5c5c5c; stroke-width: 1.5"/>
   </g>
   <g id="line2d_35">
    <path d="M 300.754882 93.91071 
L 317.675475 93.91071 
" clip-path="url(#p0430b884d0)" style="fill: none; stroke-dasharray: 3.375,3.375; stroke-dashoffset: 0; stroke: #5c5c5c; stroke-width: 1.5"/>
   </g>
   <g id="patch_3">
    <path d="M 50.14375 224.64 
L 50.14375 7.2 
" style="fill: none; stroke: #000000; stroke-width: 0.8; stroke-linejoin: miter; stroke-linecap: square"/>
   </g>
   <g id="patch_4">
    <path d="M 329.14375 224.64 
L 329.14375 7.2 
" style="fill: none; stroke: #000000; stroke-width: 0.8; stroke-linejoin: miter; stroke-linecap: square"/>
   </g>
   <g id="patch_5">
    <path d="M 50.14375 224.64 
L 329.14375 224.64 
" style="fill: none; stroke: #000000; stroke-width: 0.8; stroke-linejoin: miter; stroke-linecap: square"/>
   </g>
   <g id="patch_6">
    <path d="M 50.14375 7.2 
L 329.14375 7.2 
" style="fill: none; stroke: #000000; stroke-width: 0.8; stroke-linejoin: miter; stroke-linecap: square"/>
   </g>
  </g>
 </g>
 <defs>
  <clipPath id="p0430b884d0">
   <rect x="50.14375" y="7.2" width="279" height="217.44"/>
  </clipPath>
 </defs>
</svg>
