<?xml version="1.0" encoding="utf-8" standalone="no"?>
<!DOCTYPE svg PUBLIC "-//W3C//DTD SVG 1.1//EN"
  "http://www.w3.org/Graphics/SVG/1.1/DTD/svg11.dtd">
<svg xmlns:xlink="http://www.w3.org/1999/xlink" width="329.98125pt" height="277.455877pt" viewBox="0 0 329.98125 277.455877" xmlns="http://www.w3.org/2000/svg" version="1.1">
 <metadata>
  <rdf:RDF xmlns:dc="http://purl.org/dc/elements/1.1/" xmlns:cc="http://creativecommons.org/ns#" xmlns:rdf="http://www.w3.org/1999/02/22-rdf-syntax-ns#">
   <cc:Work>
    <dc:type rdf:resource="http://purl.org/dc/dcmitype/StillImage"/>
    <dc:date>2023-04-19T14:48:46.766869</dc:date>
    <dc:format>image/svg+xml</dc:format>
    <dc:creator>
     <cc:Agent>
      <dc:title>Matplotlib v3.5.2, https://matplotlib.org/</dc:title>
     </cc:Agent>
    </dc:creator>
   </cc:Work>
  </rdf:RDF>
 </metadata>
 <defs>
  <style type="text/css">*{stroke-linejoin: round; stroke-linecap: butt}</style>
 </defs>
 <g id="figure_1">
  <g id="patch_1">
   <path d="M 0 277.455877 
L 329.98125 277.455877 
L 329.98125 0 
L 0 0 
L 0 277.455877 
z
" style="fill: none"/>
  </g>
  <g id="axes_1">
   <g id="patch_2">
    <path d="M 43.78125 224.64 
L 322.78125 224.64 
L 322.78125 7.2 
L 43.78125 7.2 
L 43.78125 224.64 
z
" style="fill: none"/>
   </g>
   <g id="PolyCollection_1">
    <defs>
     <path id="m579787233c" d="M 63.750425 -120.033683 
L 63.669218 -120.033683 
L 63.656845 -121.451244 
L 63.64164 -122.868805 
L 63.623248 -124.286366 
L 63.60134 -125.703928 
L 63.575641 -127.121489 
L 63.545944 -128.53905 
L 63.512129 -129.956611 
L 63.474175 -131.374172 
L 63.432166 -132.791734 
L 63.386286 -134.209295 
L 63.336816 -135.626856 
L 63.284116 -137.044417 
L 63.228606 -138.461978 
L 63.170741 -139.87954 
L 63.110992 -141.297101 
L 63.049821 -142.714662 
L 62.987669 -144.132223 
L 62.924941 -145.549784 
L 62.862013 -146.967346 
L 62.799225 -148.384907 
L 62.7369 -149.802468 
L 62.67535 -151.220029 
L 62.614891 -152.63759 
L 62.555852 -154.055151 
L 62.498584 -155.472713 
L 62.443463 -156.890274 
L 62.390885 -158.307835 
L 62.341259 -159.725396 
L 62.295 -161.142957 
L 62.252514 -162.560519 
L 62.214189 -163.97808 
L 62.180381 -165.395641 
L 62.151404 -166.813202 
L 62.12752 -168.230763 
L 62.108925 -169.648325 
L 62.095736 -171.065886 
L 62.087974 -172.483447 
L 62.085538 -173.901008 
L 62.088183 -175.318569 
L 62.095489 -176.736131 
L 62.106826 -178.153692 
L 62.121327 -179.571253 
L 62.13786 -180.988814 
L 62.155004 -182.406375 
L 62.171043 -183.823936 
L 62.183957 -185.241498 
L 62.191446 -186.659059 
L 62.190951 -188.07662 
L 62.179704 -189.494181 
L 62.154794 -190.911742 
L 62.113242 -192.329304 
L 62.052107 -193.746865 
L 61.968603 -195.164426 
L 61.860227 -196.581987 
L 61.724911 -197.999548 
L 61.561169 -199.41711 
L 61.368251 -200.834671 
L 61.146287 -202.252232 
L 60.896413 -203.669793 
L 60.620864 -205.087354 
L 60.323032 -206.504916 
L 60.007464 -207.922477 
L 59.679815 -209.340038 
L 59.346732 -210.757599 
L 59.015677 -212.17516 
L 58.694697 -213.592721 
L 58.39215 -215.010283 
L 58.116393 -216.427844 
L 57.875455 -217.845405 
L 57.67671 -219.262966 
L 57.526563 -220.680527 
L 57.430181 -222.098089 
L 57.391258 -223.51565 
L 57.411854 -224.933211 
L 57.492296 -226.350772 
L 57.631157 -227.768333 
L 57.825308 -229.185895 
L 58.07005 -230.603456 
L 58.359306 -232.021017 
L 58.685879 -233.438578 
L 59.041751 -234.856139 
L 59.41841 -236.273701 
L 59.8072 -237.691262 
L 60.199652 -239.108823 
L 60.587804 -240.526384 
L 60.964471 -241.943945 
L 61.323469 -243.361506 
L 61.659767 -244.779068 
L 61.969574 -246.196629 
L 62.250356 -247.61419 
L 62.50079 -249.031751 
L 62.720656 -250.449312 
L 62.910693 -251.866874 
L 63.07242 -253.284435 
L 63.207951 -254.701996 
L 63.319797 -256.119557 
L 63.410696 -257.537118 
L 63.48345 -258.95468 
L 63.5408 -260.372241 
L 63.878843 -260.372241 
L 63.878843 -260.372241 
L 63.936193 -258.95468 
L 64.008947 -257.537118 
L 64.099846 -256.119557 
L 64.211692 -254.701996 
L 64.347223 -253.284435 
L 64.50895 -251.866874 
L 64.698987 -250.449312 
L 64.918853 -249.031751 
L 65.169287 -247.61419 
L 65.450069 -246.196629 
L 65.759876 -244.779068 
L 66.096173 -243.361506 
L 66.455172 -241.943945 
L 66.831839 -240.526384 
L 67.219991 -239.108823 
L 67.612443 -237.691262 
L 68.001233 -236.273701 
L 68.377892 -234.856139 
L 68.733763 -233.438578 
L 69.060337 -232.021017 
L 69.349593 -230.603456 
L 69.594335 -229.185895 
L 69.788486 -227.768333 
L 69.927347 -226.350772 
L 70.007789 -224.933211 
L 70.028385 -223.51565 
L 69.989462 -222.098089 
L 69.89308 -220.680527 
L 69.742933 -219.262966 
L 69.544188 -217.845405 
L 69.30325 -216.427844 
L 69.027493 -215.010283 
L 68.724946 -213.592721 
L 68.403966 -212.17516 
L 68.072911 -210.757599 
L 67.739828 -209.340038 
L 67.412179 -207.922477 
L 67.096611 -206.504916 
L 66.798779 -205.087354 
L 66.52323 -203.669793 
L 66.273356 -202.252232 
L 66.051392 -200.834671 
L 65.858474 -199.41711 
L 65.694731 -197.999548 
L 65.559416 -196.581987 
L 65.45104 -195.164426 
L 65.367536 -193.746865 
L 65.306401 -192.329304 
L 65.264849 -190.911742 
L 65.239938 -189.494181 
L 65.228692 -188.07662 
L 65.228197 -186.659059 
L 65.235686 -185.241498 
L 65.2486 -183.823936 
L 65.264639 -182.406375 
L 65.281783 -180.988814 
L 65.298316 -179.571253 
L 65.312817 -178.153692 
L 65.324154 -176.736131 
L 65.33146 -175.318569 
L 65.334105 -173.901008 
L 65.331669 -172.483447 
L 65.323907 -171.065886 
L 65.310718 -169.648325 
L 65.292123 -168.230763 
L 65.268239 -166.813202 
L 65.239262 -165.395641 
L 65.205454 -163.97808 
L 65.167128 -162.560519 
L 65.124643 -161.142957 
L 65.078383 -159.725396 
L 65.028758 -158.307835 
L 64.976179 -156.890274 
L 64.921059 -155.472713 
L 64.863791 -154.055151 
L 64.804752 -152.63759 
L 64.744293 -151.220029 
L 64.682742 -149.802468 
L 64.620418 -148.384907 
L 64.55763 -146.967346 
L 64.494702 -145.549784 
L 64.431974 -144.132223 
L 64.369821 -142.714662 
L 64.308651 -141.297101 
L 64.248902 -139.87954 
L 64.191037 -138.461978 
L 64.135527 -137.044417 
L 64.082827 -135.626856 
L 64.033357 -134.209295 
L 63.987477 -132.791734 
L 63.945467 -131.374172 
L 63.907514 -129.956611 
L 63.873699 -128.53905 
L 63.844002 -127.121489 
L 63.818303 -125.703928 
L 63.796395 -124.286366 
L 63.778002 -122.868805 
L 63.762798 -121.451244 
L 63.750425 -120.033683 
z
" style="stroke: #5c5c5c; stroke-width: 1.5"/>
    </defs>
    <g clip-path="url(#p4a44d6bc5b)">
     <use xlink:href="#m579787233c" x="0" y="277.455877" style="fill: #cb6d67; stroke: #5c5c5c; stroke-width: 1.5"/>
    </g>
   </g>
   <g id="PolyCollection_2">
    <defs>
     <path id="m12007bfb08" d="M 103.619833 -183.096717 
L 103.514095 -183.096717 
L 103.494981 -183.750201 
L 103.471342 -184.403685 
L 103.443003 -185.057169 
L 103.410085 -185.710653 
L 103.373061 -186.364138 
L 103.332758 -187.017622 
L 103.29031 -187.671106 
L 103.247055 -188.32459 
L 103.204373 -188.978074 
L 103.163503 -189.631559 
L 103.12536 -190.285043 
L 103.090378 -190.938527 
L 103.058435 -191.592011 
L 103.02886 -192.245495 
L 103.000538 -192.89898 
L 102.972091 -193.552464 
L 102.942105 -194.205948 
L 102.909361 -194.859432 
L 102.873004 -195.512916 
L 102.832631 -196.166401 
L 102.788261 -196.819885 
L 102.740195 -197.473369 
L 102.688777 -198.126853 
L 102.634122 -198.780338 
L 102.575839 -199.433822 
L 102.51283 -200.087306 
L 102.443195 -200.74079 
L 102.364283 -201.394274 
L 102.272897 -202.047759 
L 102.165635 -202.701243 
L 102.039343 -203.354727 
L 101.891606 -204.008211 
L 101.721238 -204.661695 
L 101.528673 -205.31518 
L 101.316205 -205.968664 
L 101.08802 -206.622148 
L 100.849982 -207.275632 
L 100.609169 -207.929116 
L 100.373205 -208.582601 
L 100.149447 -209.236085 
L 99.944145 -209.889569 
L 99.761678 -210.543053 
L 99.604001 -211.196537 
L 99.470376 -211.850022 
L 99.357446 -212.503506 
L 99.259631 -213.15699 
L 99.169768 -213.810474 
L 99.079892 -214.463958 
L 98.981989 -215.117443 
L 98.868619 -215.770927 
L 98.733272 -216.424411 
L 98.570431 -217.077895 
L 98.375364 -217.73138 
L 98.143715 -218.384864 
L 97.871028 -219.038348 
L 97.552365 -219.691832 
L 97.182151 -220.345316 
L 96.754367 -220.998801 
L 96.263131 -221.652285 
L 95.703667 -222.305769 
L 95.073551 -222.959253 
L 94.374079 -223.612737 
L 93.611553 -224.266222 
L 92.798249 -224.919706 
L 91.952868 -225.57319 
L 91.100317 -226.226674 
L 90.270754 -226.880158 
L 89.497942 -227.533643 
L 88.81704 -228.187127 
L 88.26208 -228.840611 
L 87.86339 -229.494095 
L 87.645263 -230.147579 
L 87.624107 -230.801064 
L 87.807272 -231.454548 
L 88.192623 -232.108032 
L 88.76886 -232.761516 
L 89.516494 -233.415 
L 90.409343 -234.068485 
L 91.41636 -234.721969 
L 92.503645 -235.375453 
L 93.636448 -236.028937 
L 94.781064 -236.682422 
L 95.906479 -237.335906 
L 96.985699 -237.98939 
L 97.996713 -238.642874 
L 98.923031 -239.296358 
L 99.753831 -239.949843 
L 100.483713 -240.603327 
L 101.112149 -241.256811 
L 101.64268 -241.910295 
L 102.081987 -242.563779 
L 102.438911 -243.217264 
L 102.723528 -243.870748 
L 102.946337 -244.524232 
L 103.117604 -245.177716 
L 103.246886 -245.8312 
L 103.342728 -246.484685 
L 103.412505 -247.138169 
L 103.46239 -247.791653 
L 103.671539 -247.791653 
L 103.671539 -247.791653 
L 103.721424 -247.138169 
L 103.791201 -246.484685 
L 103.887043 -245.8312 
L 104.016325 -245.177716 
L 104.187591 -244.524232 
L 104.4104 -243.870748 
L 104.695018 -243.217264 
L 105.051942 -242.563779 
L 105.491249 -241.910295 
L 106.02178 -241.256811 
L 106.650216 -240.603327 
L 107.380098 -239.949843 
L 108.210897 -239.296358 
L 109.137215 -238.642874 
L 110.148229 -237.98939 
L 111.22745 -237.335906 
L 112.352864 -236.682422 
L 113.49748 -236.028937 
L 114.630284 -235.375453 
L 115.717568 -234.721969 
L 116.724586 -234.068485 
L 117.617434 -233.415 
L 118.365069 -232.761516 
L 118.941305 -232.108032 
L 119.326656 -231.454548 
L 119.509821 -230.801064 
L 119.488666 -230.147579 
L 119.270538 -229.494095 
L 118.871849 -228.840611 
L 118.316889 -228.187127 
L 117.635987 -227.533643 
L 116.863174 -226.880158 
L 116.033612 -226.226674 
L 115.18106 -225.57319 
L 114.335679 -224.919706 
L 113.522375 -224.266222 
L 112.75985 -223.612737 
L 112.060378 -222.959253 
L 111.430262 -222.305769 
L 110.870798 -221.652285 
L 110.379562 -220.998801 
L 109.951777 -220.345316 
L 109.581564 -219.691832 
L 109.262901 -219.038348 
L 108.990214 -218.384864 
L 108.758564 -217.73138 
L 108.563498 -217.077895 
L 108.400657 -216.424411 
L 108.265309 -215.770927 
L 108.151939 -215.117443 
L 108.054037 -214.463958 
L 107.96416 -213.810474 
L 107.874298 -213.15699 
L 107.776483 -212.503506 
L 107.663553 -211.850022 
L 107.529927 -211.196537 
L 107.37225 -210.543053 
L 107.189783 -209.889569 
L 106.984481 -209.236085 
L 106.760724 -208.582601 
L 106.524759 -207.929116 
L 106.283947 -207.275632 
L 106.045909 -206.622148 
L 105.817724 -205.968664 
L 105.605256 -205.31518 
L 105.41269 -204.661695 
L 105.242322 -204.008211 
L 105.094586 -203.354727 
L 104.968293 -202.701243 
L 104.861032 -202.047759 
L 104.769646 -201.394274 
L 104.690734 -200.74079 
L 104.621099 -200.087306 
L 104.55809 -199.433822 
L 104.499807 -198.780338 
L 104.445151 -198.126853 
L 104.393734 -197.473369 
L 104.345667 -196.819885 
L 104.301298 -196.166401 
L 104.260925 -195.512916 
L 104.224567 -194.859432 
L 104.191823 -194.205948 
L 104.161838 -193.552464 
L 104.133391 -192.89898 
L 104.105069 -192.245495 
L 104.075494 -191.592011 
L 104.043551 -190.938527 
L 104.008569 -190.285043 
L 103.970425 -189.631559 
L 103.929556 -188.978074 
L 103.886874 -188.32459 
L 103.843618 -187.671106 
L 103.801171 -187.017622 
L 103.760868 -186.364138 
L 103.723843 -185.710653 
L 103.690926 -185.057169 
L 103.662586 -184.403685 
L 103.638948 -183.750201 
L 103.619833 -183.096717 
z
" style="stroke: #5c5c5c; stroke-width: 1.5"/>
    </defs>
    <g clip-path="url(#p4a44d6bc5b)">
     <use xlink:href="#m12007bfb08" x="0" y="277.455877" style="fill: #cbc267; stroke: #5c5c5c; stroke-width: 1.5"/>
    </g>
   </g>
   <g id="PolyCollection_3">
    <defs>
     <path id="mfac8e0868b" d="M 143.463091 -107.035372 
L 143.385123 -107.035372 
L 143.373077 -108.322687 
L 143.358556 -109.610002 
L 143.341466 -110.897317 
L 143.321838 -112.184632 
L 143.299853 -113.471947 
L 143.275855 -114.759261 
L 143.250342 -116.046576 
L 143.22395 -117.333891 
L 143.197402 -118.621206 
L 143.171454 -119.908521 
L 143.146819 -121.195836 
L 143.124095 -122.483151 
L 143.103693 -123.770466 
L 143.085787 -125.057781 
L 143.070286 -126.345096 
L 143.056833 -127.632411 
L 143.044845 -128.919726 
L 143.033567 -130.207041 
L 143.022159 -131.494356 
L 143.009783 -132.781671 
L 142.995685 -134.068986 
L 142.979272 -135.356301 
L 142.960153 -136.643616 
L 142.938158 -137.930931 
L 142.913324 -139.218246 
L 142.885853 -140.50556 
L 142.856061 -141.792875 
L 142.824304 -143.08019 
L 142.790913 -144.367505 
L 142.756137 -145.65482 
L 142.720097 -146.942135 
L 142.682758 -148.22945 
L 142.643932 -149.516765 
L 142.603283 -150.80408 
L 142.560367 -152.091395 
L 142.514677 -153.37871 
L 142.465704 -154.666025 
L 142.412997 -155.95334 
L 142.356237 -157.240655 
L 142.295286 -158.52797 
L 142.23024 -159.815285 
L 142.16144 -161.1026 
L 142.089466 -162.389915 
L 142.015085 -163.67723 
L 141.939156 -164.964544 
L 141.862501 -166.251859 
L 141.785741 -167.539174 
L 141.709115 -168.826489 
L 141.632304 -170.113804 
L 141.554276 -171.401119 
L 141.473182 -172.688434 
L 141.386326 -173.975749 
L 141.290212 -175.263064 
L 141.180701 -176.550379 
L 141.053248 -177.837694 
L 140.903228 -179.125009 
L 140.726321 -180.412324 
L 140.51892 -181.699639 
L 140.278528 -182.986954 
L 140.004117 -184.274269 
L 139.696394 -185.561584 
L 139.357962 -186.848899 
L 138.993346 -188.136214 
L 138.608891 -189.423529 
L 138.212524 -190.710843 
L 137.81342 -191.998158 
L 137.421583 -193.285473 
L 137.047394 -194.572788 
L 136.701166 -195.860103 
L 136.39272 -197.147418 
L 136.131034 -198.434733 
L 135.92396 -199.722048 
L 135.778021 -201.009363 
L 135.698263 -202.296678 
L 135.688162 -203.583993 
L 135.749554 -204.871308 
L 135.882575 -206.158623 
L 136.085612 -207.445938 
L 136.355259 -208.733253 
L 136.686312 -210.020568 
L 137.071813 -211.307883 
L 137.503178 -212.595198 
L 137.97043 -213.882513 
L 138.462539 -215.169828 
L 138.967873 -216.457142 
L 139.474715 -217.744457 
L 139.971824 -219.031772 
L 140.448968 -220.319087 
L 140.897399 -221.606402 
L 141.310205 -222.893717 
L 141.682521 -224.181032 
L 142.011578 -225.468347 
L 142.296607 -226.755662 
L 142.538603 -228.042977 
L 142.74001 -229.330292 
L 142.904339 -230.617607 
L 143.035791 -231.904922 
L 143.138891 -233.192237 
L 143.21818 -234.479552 
L 143.630034 -234.479552 
L 143.630034 -234.479552 
L 143.709323 -233.192237 
L 143.812423 -231.904922 
L 143.943875 -230.617607 
L 144.108205 -229.330292 
L 144.309611 -228.042977 
L 144.551607 -226.755662 
L 144.836636 -225.468347 
L 145.165694 -224.181032 
L 145.538009 -222.893717 
L 145.950815 -221.606402 
L 146.399246 -220.319087 
L 146.87639 -219.031772 
L 147.373499 -217.744457 
L 147.880342 -216.457142 
L 148.385675 -215.169828 
L 148.877785 -213.882513 
L 149.345036 -212.595198 
L 149.776401 -211.307883 
L 150.161902 -210.020568 
L 150.492956 -208.733253 
L 150.762603 -207.445938 
L 150.965639 -206.158623 
L 151.09866 -204.871308 
L 151.160052 -203.583993 
L 151.149951 -202.296678 
L 151.070193 -201.009363 
L 150.924254 -199.722048 
L 150.717181 -198.434733 
L 150.455494 -197.147418 
L 150.147048 -195.860103 
L 149.80082 -194.572788 
L 149.426632 -193.285473 
L 149.034794 -191.998158 
L 148.63569 -190.710843 
L 148.239323 -189.423529 
L 147.854868 -188.136214 
L 147.490252 -186.848899 
L 147.15182 -185.561584 
L 146.844097 -184.274269 
L 146.569687 -182.986954 
L 146.329295 -181.699639 
L 146.121893 -180.412324 
L 145.944986 -179.125009 
L 145.794967 -177.837694 
L 145.667513 -176.550379 
L 145.558002 -175.263064 
L 145.461888 -173.975749 
L 145.375032 -172.688434 
L 145.293939 -171.401119 
L 145.21591 -170.113804 
L 145.139099 -168.826489 
L 145.062473 -167.539174 
L 144.985713 -166.251859 
L 144.909058 -164.964544 
L 144.833129 -163.67723 
L 144.758748 -162.389915 
L 144.686775 -161.1026 
L 144.617975 -159.815285 
L 144.552928 -158.52797 
L 144.491977 -157.240655 
L 144.435217 -155.95334 
L 144.382511 -154.666025 
L 144.333537 -153.37871 
L 144.287848 -152.091395 
L 144.244932 -150.80408 
L 144.204283 -149.516765 
L 144.165456 -148.22945 
L 144.128118 -146.942135 
L 144.092077 -145.65482 
L 144.057301 -144.367505 
L 144.02391 -143.08019 
L 143.992153 -141.792875 
L 143.962361 -140.50556 
L 143.934891 -139.218246 
L 143.910056 -137.930931 
L 143.888061 -136.643616 
L 143.868942 -135.356301 
L 143.85253 -134.068986 
L 143.838432 -132.781671 
L 143.826055 -131.494356 
L 143.814647 -130.207041 
L 143.80337 -128.919726 
L 143.791381 -127.632411 
L 143.777929 -126.345096 
L 143.762427 -125.057781 
L 143.744521 -123.770466 
L 143.72412 -122.483151 
L 143.701395 -121.195836 
L 143.676761 -119.908521 
L 143.650812 -118.621206 
L 143.624265 -117.333891 
L 143.597872 -116.046576 
L 143.57236 -114.759261 
L 143.548361 -113.471947 
L 143.526376 -112.184632 
L 143.506748 -110.897317 
L 143.489658 -109.610002 
L 143.475137 -108.322687 
L 143.463091 -107.035372 
z
" style="stroke: #5c5c5c; stroke-width: 1.5"/>
    </defs>
    <g clip-path="url(#p4a44d6bc5b)">
     <use xlink:href="#mfac8e0868b" x="0" y="277.455877" style="fill: #7ecb67; stroke: #5c5c5c; stroke-width: 1.5"/>
    </g>
   </g>
   <g id="PolyCollection_4">
    <defs>
     <path id="mfa5af542f6" d="M 183.310658 -77.59959 
L 183.251842 -77.59959 
L 183.242973 -79.443035 
L 183.232142 -81.286479 
L 183.219138 -83.129924 
L 183.203786 -84.973368 
L 183.185963 -86.816812 
L 183.165616 -88.660257 
L 183.142771 -90.503701 
L 183.117542 -92.347146 
L 183.09013 -94.19059 
L 183.060821 -96.034035 
L 183.029969 -97.877479 
L 182.997983 -99.720924 
L 182.965302 -101.564368 
L 182.932366 -103.407813 
L 182.899593 -105.251257 
L 182.867355 -107.094701 
L 182.835954 -108.938146 
L 182.805612 -110.78159 
L 182.776453 -112.625035 
L 182.748507 -114.468479 
L 182.721703 -116.311924 
L 182.695875 -118.155368 
L 182.670761 -119.998813 
L 182.646006 -121.842257 
L 182.621167 -123.685702 
L 182.595705 -125.529146 
L 182.568997 -127.37259 
L 182.540332 -129.216035 
L 182.50893 -131.059479 
L 182.473954 -132.902924 
L 182.434552 -134.746368 
L 182.389887 -136.589813 
L 182.339198 -138.433257 
L 182.281858 -140.276702 
L 182.21743 -142.120146 
L 182.145729 -143.963591 
L 182.066868 -145.807035 
L 181.981282 -147.650479 
L 181.88974 -149.493924 
L 181.793315 -151.337368 
L 181.693336 -153.180813 
L 181.591313 -155.024257 
L 181.488829 -156.867702 
L 181.387432 -158.711146 
L 181.288516 -160.554591 
L 181.193206 -162.398035 
L 181.102276 -164.24148 
L 181.016083 -166.084924 
L 180.934545 -167.928369 
L 180.857169 -169.771813 
L 180.783105 -171.615257 
L 180.711252 -173.458702 
L 180.640381 -175.302146 
L 180.569278 -177.145591 
L 180.496881 -178.989035 
L 180.422406 -180.83248 
L 180.345438 -182.675924 
L 180.265988 -184.519369 
L 180.1845 -186.362813 
L 180.101821 -188.206258 
L 180.019131 -190.049702 
L 179.937842 -191.893146 
L 179.8595 -193.736591 
L 179.785675 -195.580035 
L 179.71788 -197.42348 
L 179.657515 -199.266924 
L 179.605851 -201.110369 
L 179.564038 -202.953813 
L 179.533153 -204.797258 
L 179.51425 -206.640702 
L 179.508419 -208.484147 
L 179.516825 -210.327591 
L 179.540712 -212.171035 
L 179.581371 -214.01448 
L 179.640064 -215.857924 
L 179.717912 -217.701369 
L 179.815747 -219.544813 
L 179.933968 -221.388258 
L 180.072395 -223.231702 
L 180.230163 -225.075147 
L 180.405659 -226.918591 
L 180.596523 -228.762036 
L 180.799712 -230.60548 
L 181.011624 -232.448924 
L 181.228274 -234.292369 
L 181.445507 -236.135813 
L 181.659217 -237.979258 
L 181.865567 -239.822702 
L 182.061175 -241.666147 
L 182.243262 -243.509591 
L 182.409749 -245.353036 
L 182.559295 -247.19648 
L 182.691283 -249.039925 
L 182.805764 -250.883369 
L 182.903358 -252.726813 
L 182.985142 -254.570258 
L 183.052518 -256.413702 
L 183.107092 -258.257147 
L 183.150557 -260.100591 
L 183.411943 -260.100591 
L 183.411943 -260.100591 
L 183.455408 -258.257147 
L 183.509982 -256.413702 
L 183.577358 -254.570258 
L 183.659142 -252.726813 
L 183.756736 -250.883369 
L 183.871217 -249.039925 
L 184.003205 -247.19648 
L 184.152751 -245.353036 
L 184.319238 -243.509591 
L 184.501325 -241.666147 
L 184.696933 -239.822702 
L 184.903283 -237.979258 
L 185.116993 -236.135813 
L 185.334226 -234.292369 
L 185.550876 -232.448924 
L 185.762788 -230.60548 
L 185.965977 -228.762036 
L 186.156841 -226.918591 
L 186.332337 -225.075147 
L 186.490105 -223.231702 
L 186.628532 -221.388258 
L 186.746753 -219.544813 
L 186.844588 -217.701369 
L 186.922436 -215.857924 
L 186.981129 -214.01448 
L 187.021788 -212.171035 
L 187.045675 -210.327591 
L 187.054081 -208.484147 
L 187.04825 -206.640702 
L 187.029347 -204.797258 
L 186.998462 -202.953813 
L 186.956649 -201.110369 
L 186.904985 -199.266924 
L 186.84462 -197.42348 
L 186.776825 -195.580035 
L 186.703 -193.736591 
L 186.624658 -191.893146 
L 186.543369 -190.049702 
L 186.460679 -188.206258 
L 186.378 -186.362813 
L 186.296512 -184.519369 
L 186.217062 -182.675924 
L 186.140094 -180.83248 
L 186.065619 -178.989035 
L 185.993222 -177.145591 
L 185.922119 -175.302146 
L 185.851248 -173.458702 
L 185.779395 -171.615257 
L 185.705331 -169.771813 
L 185.627955 -167.928369 
L 185.546417 -166.084924 
L 185.460224 -164.24148 
L 185.369294 -162.398035 
L 185.273984 -160.554591 
L 185.175068 -158.711146 
L 185.073671 -156.867702 
L 184.971187 -155.024257 
L 184.869164 -153.180813 
L 184.769185 -151.337368 
L 184.67276 -149.493924 
L 184.581218 -147.650479 
L 184.495632 -145.807035 
L 184.416771 -143.963591 
L 184.34507 -142.120146 
L 184.280642 -140.276702 
L 184.223302 -138.433257 
L 184.172613 -136.589813 
L 184.127948 -134.746368 
L 184.088546 -132.902924 
L 184.05357 -131.059479 
L 184.022168 -129.216035 
L 183.993503 -127.37259 
L 183.966795 -125.529146 
L 183.941333 -123.685702 
L 183.916494 -121.842257 
L 183.891739 -119.998813 
L 183.866625 -118.155368 
L 183.840797 -116.311924 
L 183.813993 -114.468479 
L 183.786047 -112.625035 
L 183.756888 -110.78159 
L 183.726546 -108.938146 
L 183.695145 -107.094701 
L 183.662907 -105.251257 
L 183.630134 -103.407813 
L 183.597198 -101.564368 
L 183.564517 -99.720924 
L 183.532531 -97.877479 
L 183.501679 -96.034035 
L 183.47237 -94.19059 
L 183.444958 -92.347146 
L 183.419729 -90.503701 
L 183.396884 -88.660257 
L 183.376537 -86.816812 
L 183.358714 -84.973368 
L 183.343362 -83.129924 
L 183.330358 -81.286479 
L 183.319527 -79.443035 
L 183.310658 -77.59959 
z
" style="stroke: #5c5c5c; stroke-width: 1.5"/>
    </defs>
    <g clip-path="url(#p4a44d6bc5b)">
     <use xlink:href="#mfa5af542f6" x="0" y="277.455877" style="fill: #67cba6; stroke: #5c5c5c; stroke-width: 1.5"/>
    </g>
   </g>
   <g id="PolyCollection_5">
    <defs>
     <path id="mac74990588" d="M 223.241472 -89.862362 
L 223.035313 -89.862362 
L 223.007939 -91.287423 
L 222.974769 -92.712484 
L 222.934977 -94.137545 
L 222.887712 -95.562606 
L 222.832119 -96.987667 
L 222.767369 -98.412728 
L 222.692684 -99.837789 
L 222.60737 -101.26285 
L 222.510851 -102.687911 
L 222.402699 -104.112972 
L 222.282673 -105.538033 
L 222.150743 -106.963094 
L 222.007119 -108.388155 
L 221.852274 -109.813216 
L 221.686958 -111.238277 
L 221.512204 -112.663338 
L 221.329329 -114.088399 
L 221.139923 -115.51346 
L 220.945827 -116.938521 
L 220.749107 -118.363582 
L 220.552013 -119.788643 
L 220.356931 -121.213704 
L 220.166332 -122.638765 
L 219.982705 -124.063826 
L 219.8085 -125.488887 
L 219.646057 -126.913948 
L 219.497541 -128.339009 
L 219.364882 -129.76407 
L 219.249717 -131.189131 
L 219.153341 -132.614192 
L 219.076669 -134.039253 
L 219.020211 -135.464314 
L 218.984055 -136.889375 
L 218.967867 -138.314436 
L 218.970902 -139.739497 
L 218.992033 -141.164558 
L 219.029778 -142.589619 
L 219.082356 -144.01468 
L 219.147735 -145.439741 
L 219.223693 -146.864802 
L 219.307884 -148.289863 
L 219.39791 -149.714924 
L 219.491381 -151.139985 
L 219.585992 -152.565046 
L 219.679583 -153.990107 
L 219.7702 -155.415168 
L 219.856148 -156.840229 
L 219.936036 -158.26529 
L 220.008813 -159.690351 
L 220.073787 -161.115412 
L 220.130633 -162.540473 
L 220.179391 -163.965534 
L 220.220441 -165.390595 
L 220.254469 -166.815656 
L 220.282422 -168.240717 
L 220.305451 -169.665778 
L 220.324845 -171.090838 
L 220.341967 -172.515899 
L 220.358186 -173.94096 
L 220.374819 -175.366021 
L 220.393074 -176.791082 
L 220.414016 -178.216143 
L 220.438536 -179.641204 
L 220.467338 -181.066265 
L 220.500943 -182.491326 
L 220.539698 -183.916387 
L 220.583802 -185.341448 
L 220.633332 -186.766509 
L 220.688274 -188.19157 
L 220.748552 -189.616631 
L 220.814049 -191.041692 
L 220.884625 -192.466753 
L 220.960127 -193.891814 
L 221.040381 -195.316875 
L 221.125188 -196.741936 
L 221.214308 -198.166997 
L 221.307436 -199.592058 
L 221.404192 -201.017119 
L 221.504097 -202.44218 
L 221.606565 -203.867241 
L 221.710905 -205.292302 
L 221.816321 -206.717363 
L 221.921935 -208.142424 
L 222.026802 -209.567485 
L 222.129953 -210.992546 
L 222.230417 -212.417607 
L 222.327269 -213.842668 
L 222.419658 -215.267729 
L 222.506843 -216.69279 
L 222.588215 -218.117851 
L 222.663317 -219.542912 
L 222.731851 -220.967973 
L 222.793683 -222.393034 
L 222.848832 -223.818095 
L 222.897454 -225.243156 
L 222.93983 -226.668217 
L 222.976336 -228.093278 
L 223.007423 -229.518339 
L 223.033591 -230.9434 
L 223.243195 -230.9434 
L 223.243195 -230.9434 
L 223.269362 -229.518339 
L 223.30045 -228.093278 
L 223.336956 -226.668217 
L 223.379332 -225.243156 
L 223.427954 -223.818095 
L 223.483102 -222.393034 
L 223.544934 -220.967973 
L 223.613469 -219.542912 
L 223.688571 -218.117851 
L 223.769943 -216.69279 
L 223.857128 -215.267729 
L 223.949517 -213.842668 
L 224.046369 -212.417607 
L 224.146833 -210.992546 
L 224.249983 -209.567485 
L 224.354851 -208.142424 
L 224.460464 -206.717363 
L 224.565881 -205.292302 
L 224.670221 -203.867241 
L 224.772689 -202.44218 
L 224.872593 -201.017119 
L 224.969349 -199.592058 
L 225.062478 -198.166997 
L 225.151597 -196.741936 
L 225.236405 -195.316875 
L 225.316659 -193.891814 
L 225.39216 -192.466753 
L 225.462737 -191.041692 
L 225.528234 -189.616631 
L 225.588511 -188.19157 
L 225.643454 -186.766509 
L 225.692984 -185.341448 
L 225.737088 -183.916387 
L 225.775843 -182.491326 
L 225.809448 -181.066265 
L 225.83825 -179.641204 
L 225.86277 -178.216143 
L 225.883712 -176.791082 
L 225.901967 -175.366021 
L 225.918599 -173.94096 
L 225.934819 -172.515899 
L 225.951941 -171.090838 
L 225.971335 -169.665778 
L 225.994364 -168.240717 
L 226.022317 -166.815656 
L 226.056345 -165.390595 
L 226.097394 -163.965534 
L 226.146152 -162.540473 
L 226.202999 -161.115412 
L 226.267972 -159.690351 
L 226.34075 -158.26529 
L 226.420638 -156.840229 
L 226.506586 -155.415168 
L 226.597202 -153.990107 
L 226.690793 -152.565046 
L 226.785405 -151.139985 
L 226.878876 -149.714924 
L 226.968901 -148.289863 
L 227.053093 -146.864802 
L 227.129051 -145.439741 
L 227.194429 -144.01468 
L 227.247008 -142.589619 
L 227.284753 -141.164558 
L 227.305883 -139.739497 
L 227.308919 -138.314436 
L 227.29273 -136.889375 
L 227.256574 -135.464314 
L 227.200117 -134.039253 
L 227.123445 -132.614192 
L 227.027069 -131.189131 
L 226.911904 -129.76407 
L 226.779245 -128.339009 
L 226.630729 -126.913948 
L 226.468286 -125.488887 
L 226.294081 -124.063826 
L 226.110454 -122.638765 
L 225.919854 -121.213704 
L 225.724773 -119.788643 
L 225.527679 -118.363582 
L 225.330959 -116.938521 
L 225.136863 -115.51346 
L 224.947457 -114.088399 
L 224.764582 -112.663338 
L 224.589828 -111.238277 
L 224.424512 -109.813216 
L 224.269667 -108.388155 
L 224.126043 -106.963094 
L 223.994112 -105.538033 
L 223.874086 -104.112972 
L 223.765935 -102.687911 
L 223.669416 -101.26285 
L 223.584102 -99.837789 
L 223.509417 -98.412728 
L 223.444667 -96.987667 
L 223.389074 -95.562606 
L 223.341809 -94.137545 
L 223.302017 -92.712484 
L 223.268847 -91.287423 
L 223.241472 -89.862362 
z
" style="stroke: #5c5c5c; stroke-width: 1.5"/>
    </defs>
    <g clip-path="url(#p4a44d6bc5b)">
     <use xlink:href="#mac74990588" x="0" y="277.455877" style="fill: #679acb; stroke: #5c5c5c; stroke-width: 1.5"/>
    </g>
   </g>
   <g id="PolyCollection_6">
    <defs>
     <path id="mccad0aa34c" d="M 263.025305 -62.699513 
L 262.965767 -62.699513 
L 262.955502 -64.349915 
L 262.942874 -66.000316 
L 262.927755 -67.650718 
L 262.910152 -69.301119 
L 262.890224 -70.951521 
L 262.868299 -72.601922 
L 262.844867 -74.252324 
L 262.820548 -75.902725 
L 262.796047 -77.553127 
L 262.77209 -79.203528 
L 262.74936 -80.85393 
L 262.728427 -82.504331 
L 262.709708 -84.154733 
L 262.693433 -85.805134 
L 262.679653 -87.455536 
L 262.668258 -89.105937 
L 262.65902 -90.756339 
L 262.651643 -92.40674 
L 262.645804 -94.057142 
L 262.641194 -95.707543 
L 262.637532 -97.357945 
L 262.634575 -99.008346 
L 262.632102 -100.658748 
L 262.629902 -102.309149 
L 262.627754 -103.959551 
L 262.625414 -105.609952 
L 262.622592 -107.260354 
L 262.618951 -108.910755 
L 262.614084 -110.561157 
L 262.607502 -112.211558 
L 262.598619 -113.86196 
L 262.586732 -115.512361 
L 262.57101 -117.162763 
L 262.550496 -118.813164 
L 262.52412 -120.463566 
L 262.490726 -122.113967 
L 262.449123 -123.764369 
L 262.398141 -125.41477 
L 262.336695 -127.065172 
L 262.263854 -128.715573 
L 262.17891 -130.365975 
L 262.081433 -132.016376 
L 261.971318 -133.666778 
L 261.848821 -135.317179 
L 261.714561 -136.967581 
L 261.569499 -138.617982 
L 261.414874 -140.268384 
L 261.252102 -141.918785 
L 261.082639 -143.569187 
L 260.907817 -145.219588 
L 260.72868 -146.86999 
L 260.545841 -148.520391 
L 260.359401 -150.170792 
L 260.168942 -151.821194 
L 259.973615 -153.471595 
L 259.772336 -155.121997 
L 259.564054 -156.772398 
L 259.348078 -158.4228 
L 259.124402 -160.073201 
L 258.893989 -161.723603 
L 258.658955 -163.374004 
L 258.422636 -165.024406 
L 258.189508 -166.674807 
L 257.964972 -168.325209 
L 257.755052 -169.97561 
L 257.566026 -171.626012 
L 257.404069 -173.276413 
L 257.274926 -174.926815 
L 257.183661 -176.577216 
L 257.134486 -178.227618 
L 257.130641 -179.878019 
L 257.17432 -181.528421 
L 257.266595 -183.178822 
L 257.407339 -184.829224 
L 257.595131 -186.479625 
L 257.827175 -188.130027 
L 258.099256 -189.780428 
L 258.405782 -191.43083 
L 258.739938 -193.081231 
L 259.093955 -194.731633 
L 259.459498 -196.382034 
L 259.828114 -198.032436 
L 260.191708 -199.682837 
L 260.542975 -201.333239 
L 260.875741 -202.98364 
L 261.185187 -204.634042 
L 261.467939 -206.284443 
L 261.722026 -207.934845 
L 261.946752 -209.585246 
L 262.142495 -211.235648 
L 262.310479 -212.886049 
L 262.452549 -214.536451 
L 262.570961 -216.186852 
L 262.668207 -217.837254 
L 262.746868 -219.487655 
L 262.809507 -221.138057 
L 262.858579 -222.788458 
L 262.896375 -224.43886 
L 262.924974 -226.089261 
L 263.066098 -226.089261 
L 263.066098 -226.089261 
L 263.094696 -224.43886 
L 263.132492 -222.788458 
L 263.181565 -221.138057 
L 263.244203 -219.487655 
L 263.322865 -217.837254 
L 263.420111 -216.186852 
L 263.538523 -214.536451 
L 263.680593 -212.886049 
L 263.848577 -211.235648 
L 264.044319 -209.585246 
L 264.269045 -207.934845 
L 264.523132 -206.284443 
L 264.805884 -204.634042 
L 265.115331 -202.98364 
L 265.448097 -201.333239 
L 265.799363 -199.682837 
L 266.162957 -198.032436 
L 266.531573 -196.382034 
L 266.897116 -194.731633 
L 267.251134 -193.081231 
L 267.585289 -191.43083 
L 267.891815 -189.780428 
L 268.163896 -188.130027 
L 268.39594 -186.479625 
L 268.583733 -184.829224 
L 268.724477 -183.178822 
L 268.816752 -181.528421 
L 268.86043 -179.878019 
L 268.856585 -178.227618 
L 268.80741 -176.577216 
L 268.716146 -174.926815 
L 268.587002 -173.276413 
L 268.425045 -171.626012 
L 268.23602 -169.97561 
L 268.026099 -168.325209 
L 267.801564 -166.674807 
L 267.568435 -165.024406 
L 267.332117 -163.374004 
L 267.097083 -161.723603 
L 266.866669 -160.073201 
L 266.642993 -158.4228 
L 266.427017 -156.772398 
L 266.218736 -155.121997 
L 266.017456 -153.471595 
L 265.82213 -151.821194 
L 265.63167 -150.170792 
L 265.445231 -148.520391 
L 265.262392 -146.86999 
L 265.083254 -145.219588 
L 264.908432 -143.569187 
L 264.738969 -141.918785 
L 264.576198 -140.268384 
L 264.421572 -138.617982 
L 264.27651 -136.967581 
L 264.14225 -135.317179 
L 264.019753 -133.666778 
L 263.909639 -132.016376 
L 263.812161 -130.365975 
L 263.727217 -128.715573 
L 263.654377 -127.065172 
L 263.59293 -125.41477 
L 263.541948 -123.764369 
L 263.500345 -122.113967 
L 263.466952 -120.463566 
L 263.440575 -118.813164 
L 263.420061 -117.162763 
L 263.40434 -115.512361 
L 263.392452 -113.86196 
L 263.383569 -112.211558 
L 263.376988 -110.561157 
L 263.372121 -108.910755 
L 263.368479 -107.260354 
L 263.365658 -105.609952 
L 263.363317 -103.959551 
L 263.36117 -102.309149 
L 263.358969 -100.658748 
L 263.356496 -99.008346 
L 263.353539 -97.357945 
L 263.349878 -95.707543 
L 263.345268 -94.057142 
L 263.339429 -92.40674 
L 263.332051 -90.756339 
L 263.322813 -89.105937 
L 263.311418 -87.455536 
L 263.297638 -85.805134 
L 263.281364 -84.154733 
L 263.262644 -82.504331 
L 263.241711 -80.85393 
L 263.218981 -79.203528 
L 263.195025 -77.553127 
L 263.170524 -75.902725 
L 263.146204 -74.252324 
L 263.122772 -72.601922 
L 263.100848 -70.951521 
L 263.08092 -69.301119 
L 263.063316 -67.650718 
L 263.048198 -66.000316 
L 263.035569 -64.349915 
L 263.025305 -62.699513 
z
" style="stroke: #5c5c5c; stroke-width: 1.5"/>
    </defs>
    <g clip-path="url(#p4a44d6bc5b)">
     <use xlink:href="#mccad0aa34c" x="0" y="277.455877" style="fill: #8a67cb; stroke: #5c5c5c; stroke-width: 1.5"/>
    </g>
   </g>
   <g id="PolyCollection_7">
    <defs>
     <path id="m67424c601c" d="M 302.882135 -93.826967 
L 302.823222 -93.826967 
L 302.812641 -95.351152 
L 302.799137 -96.875337 
L 302.782214 -98.399522 
L 302.761391 -99.923707 
L 302.736227 -101.447892 
L 302.706361 -102.972077 
L 302.671543 -104.496263 
L 302.631671 -106.020448 
L 302.586814 -107.544633 
L 302.53724 -109.068818 
L 302.48342 -110.593003 
L 302.426029 -112.117188 
L 302.365931 -113.641373 
L 302.304154 -115.165558 
L 302.241849 -116.689744 
L 302.180241 -118.213929 
L 302.120572 -119.738114 
L 302.064041 -121.262299 
L 302.011731 -122.786484 
L 301.964541 -124.310669 
L 301.923117 -125.834854 
L 301.887782 -127.35904 
L 301.858477 -128.883225 
L 301.834714 -130.40741 
L 301.815544 -131.931595 
L 301.799557 -133.45578 
L 301.784915 -134.979965 
L 301.769417 -136.50415 
L 301.750624 -138.028336 
L 301.726009 -139.552521 
L 301.693154 -141.076706 
L 301.649968 -142.600891 
L 301.594901 -144.125076 
L 301.527139 -145.649261 
L 301.446753 -147.173446 
L 301.35477 -148.697631 
L 301.253148 -150.221817 
L 301.144661 -151.746002 
L 301.032666 -153.270187 
L 300.920808 -154.794372 
L 300.812656 -156.318557 
L 300.711335 -157.842742 
L 300.619191 -159.366927 
L 300.537524 -160.891113 
L 300.46644 -162.415298 
L 300.404833 -163.939483 
L 300.350503 -165.463668 
L 300.300407 -166.987853 
L 300.250993 -168.512038 
L 300.198598 -170.036223 
L 300.139835 -171.560408 
L 300.07194 -173.084594 
L 299.993026 -174.608779 
L 299.902215 -176.132964 
L 299.799648 -177.657149 
L 299.68637 -179.181334 
L 299.564132 -180.705519 
L 299.435123 -182.229704 
L 299.301715 -183.75389 
L 299.166224 -185.278075 
L 299.030749 -186.80226 
L 298.897107 -188.326445 
L 298.766857 -189.85063 
L 298.641408 -191.374815 
L 298.522191 -192.899 
L 298.410843 -194.423186 
L 298.309375 -195.947371 
L 298.220286 -197.471556 
L 298.146587 -198.995741 
L 298.091735 -200.519926 
L 298.059461 -202.044111 
L 298.053526 -203.568296 
L 298.077417 -205.092481 
L 298.134028 -206.616667 
L 298.225358 -208.140852 
L 298.352268 -209.665037 
L 298.51431 -211.189222 
L 298.709667 -212.713407 
L 298.935189 -214.237592 
L 299.186535 -215.761777 
L 299.458398 -217.285963 
L 299.744789 -218.810148 
L 300.03936 -220.334333 
L 300.335734 -221.858518 
L 300.62782 -223.382703 
L 300.91008 -224.906888 
L 301.177751 -226.431073 
L 301.426995 -227.955259 
L 301.654984 -229.479444 
L 301.859913 -231.003629 
L 302.04096 -232.527814 
L 302.198188 -234.051999 
L 302.332419 -235.576184 
L 302.445076 -237.100369 
L 302.538023 -238.624554 
L 302.613402 -240.14874 
L 302.673488 -241.672925 
L 302.720559 -243.19711 
L 302.756792 -244.721295 
L 302.948565 -244.721295 
L 302.948565 -244.721295 
L 302.984799 -243.19711 
L 303.031869 -241.672925 
L 303.091955 -240.14874 
L 303.167334 -238.624554 
L 303.260281 -237.100369 
L 303.372938 -235.576184 
L 303.507169 -234.051999 
L 303.664397 -232.527814 
L 303.845444 -231.003629 
L 304.050373 -229.479444 
L 304.278362 -227.955259 
L 304.527607 -226.431073 
L 304.795277 -224.906888 
L 305.077537 -223.382703 
L 305.369623 -221.858518 
L 305.665997 -220.334333 
L 305.960568 -218.810148 
L 306.246959 -217.285963 
L 306.518822 -215.761777 
L 306.770168 -214.237592 
L 306.99569 -212.713407 
L 307.191047 -211.189222 
L 307.353089 -209.665037 
L 307.479999 -208.140852 
L 307.571329 -206.616667 
L 307.62794 -205.092481 
L 307.651831 -203.568296 
L 307.645896 -202.044111 
L 307.613622 -200.519926 
L 307.55877 -198.995741 
L 307.485071 -197.471556 
L 307.395982 -195.947371 
L 307.294515 -194.423186 
L 307.183166 -192.899 
L 307.063949 -191.374815 
L 306.9385 -189.85063 
L 306.80825 -188.326445 
L 306.674608 -186.80226 
L 306.539134 -185.278075 
L 306.403642 -183.75389 
L 306.270234 -182.229704 
L 306.141226 -180.705519 
L 306.018987 -179.181334 
L 305.90571 -177.657149 
L 305.803142 -176.132964 
L 305.712332 -174.608779 
L 305.633417 -173.084594 
L 305.565523 -171.560408 
L 305.506759 -170.036223 
L 305.454364 -168.512038 
L 305.40495 -166.987853 
L 305.354854 -165.463668 
L 305.300525 -163.939483 
L 305.238917 -162.415298 
L 305.167833 -160.891113 
L 305.086166 -159.366927 
L 304.994022 -157.842742 
L 304.892701 -156.318557 
L 304.784549 -154.794372 
L 304.672691 -153.270187 
L 304.560697 -151.746002 
L 304.452209 -150.221817 
L 304.350588 -148.697631 
L 304.258604 -147.173446 
L 304.178218 -145.649261 
L 304.110456 -144.125076 
L 304.055389 -142.600891 
L 304.012203 -141.076706 
L 303.979349 -139.552521 
L 303.954733 -138.028336 
L 303.93594 -136.50415 
L 303.920442 -134.979965 
L 303.9058 -133.45578 
L 303.889813 -131.931595 
L 303.870643 -130.40741 
L 303.84688 -128.883225 
L 303.817575 -127.35904 
L 303.78224 -125.834854 
L 303.740816 -124.310669 
L 303.693626 -122.786484 
L 303.641316 -121.262299 
L 303.584785 -119.738114 
L 303.525117 -118.213929 
L 303.463508 -116.689744 
L 303.401203 -115.165558 
L 303.339426 -113.641373 
L 303.279329 -112.117188 
L 303.221937 -110.593003 
L 303.168117 -109.068818 
L 303.118543 -107.544633 
L 303.073686 -106.020448 
L 303.033814 -104.496263 
L 302.998996 -102.972077 
L 302.96913 -101.447892 
L 302.943967 -99.923707 
L 302.923143 -98.399522 
L 302.90622 -96.875337 
L 302.892716 -95.351152 
L 302.882135 -93.826967 
z
" style="stroke: #5c5c5c; stroke-width: 1.5"/>
    </defs>
    <g clip-path="url(#p4a44d6bc5b)">
     <use xlink:href="#m67424c601c" x="0" y="277.455877" style="fill: #cb67b7; stroke: #5c5c5c; stroke-width: 1.5"/>
    </g>
   </g>
   <g id="matplotlib.axis_1">
    <g id="xtick_1">
     <g id="line2d_1">
      <defs>
       <path id="m56d2195012" d="M 0 0 
L 0 3.5 
" style="stroke: #000000; stroke-width: 0.8"/>
      </defs>
      <g>
       <use xlink:href="#m56d2195012" x="63.709821" y="224.64" style="stroke: #000000; stroke-width: 0.8"/>
      </g>
     </g>
     <g id="text_1">
      <!-- VIS -->
      <g transform="translate(55.341715 238.22044)rotate(-330)scale(0.1 -0.1)">
       <defs>
        <path id="DejaVuSans-56" d="M 1831 0 
L 50 4666 
L 709 4666 
L 2188 738 
L 3669 4666 
L 4325 4666 
L 2547 0 
L 1831 0 
z
" transform="scale(0.015625)"/>
        <path id="DejaVuSans-49" d="M 628 4666 
L 1259 4666 
L 1259 0 
L 628 0 
L 628 4666 
z
" transform="scale(0.015625)"/>
        <path id="DejaVuSans-53" d="M 3425 4513 
L 3425 3897 
Q 3066 4069 2747 4153 
Q 2428 4238 2131 4238 
Q 1616 4238 1336 4038 
Q 1056 3838 1056 3469 
Q 1056 3159 1242 3001 
Q 1428 2844 1947 2747 
L 2328 2669 
Q 3034 2534 3370 2195 
Q 3706 1856 3706 1288 
Q 3706 609 3251 259 
Q 2797 -91 1919 -91 
Q 1588 -91 1214 -16 
Q 841 59 441 206 
L 441 856 
Q 825 641 1194 531 
Q 1563 422 1919 422 
Q 2459 422 2753 634 
Q 3047 847 3047 1241 
Q 3047 1584 2836 1778 
Q 2625 1972 2144 2069 
L 1759 2144 
Q 1053 2284 737 2584 
Q 422 2884 422 3419 
Q 422 4038 858 4394 
Q 1294 4750 2059 4750 
Q 2388 4750 2728 4690 
Q 3069 4631 3425 4513 
z
" transform="scale(0.015625)"/>
       </defs>
       <use xlink:href="#DejaVuSans-56"/>
       <use xlink:href="#DejaVuSans-49" x="68.408203"/>
       <use xlink:href="#DejaVuSans-53" x="97.900391"/>
      </g>
     </g>
    </g>
    <g id="xtick_2">
     <g id="line2d_2">
      <g>
       <use xlink:href="#m56d2195012" x="103.566964" y="224.64" style="stroke: #000000; stroke-width: 0.8"/>
      </g>
     </g>
     <g id="text_2">
      <!-- SOM -->
      <g transform="translate(92.293613 238.22044)rotate(-330)scale(0.1 -0.1)">
       <defs>
        <path id="DejaVuSans-4f" d="M 2522 4238 
Q 1834 4238 1429 3725 
Q 1025 3213 1025 2328 
Q 1025 1447 1429 934 
Q 1834 422 2522 422 
Q 3209 422 3611 934 
Q 4013 1447 4013 2328 
Q 4013 3213 3611 3725 
Q 3209 4238 2522 4238 
z
M 2522 4750 
Q 3503 4750 4090 4092 
Q 4678 3434 4678 2328 
Q 4678 1225 4090 567 
Q 3503 -91 2522 -91 
Q 1538 -91 948 565 
Q 359 1222 359 2328 
Q 359 3434 948 4092 
Q 1538 4750 2522 4750 
z
" transform="scale(0.015625)"/>
        <path id="DejaVuSans-4d" d="M 628 4666 
L 1569 4666 
L 2759 1491 
L 3956 4666 
L 4897 4666 
L 4897 0 
L 4281 0 
L 4281 4097 
L 3078 897 
L 2444 897 
L 1241 4097 
L 1241 0 
L 628 0 
L 628 4666 
z
" transform="scale(0.015625)"/>
       </defs>
       <use xlink:href="#DejaVuSans-53"/>
       <use xlink:href="#DejaVuSans-4f" x="63.476562"/>
       <use xlink:href="#DejaVuSans-4d" x="142.1875"/>
      </g>
     </g>
    </g>
    <g id="xtick_3">
     <g id="line2d_3">
      <g>
       <use xlink:href="#m56d2195012" x="143.424107" y="224.64" style="stroke: #000000; stroke-width: 0.8"/>
      </g>
     </g>
     <g id="text_3">
      <!-- DATTN -->
      <g transform="translate(127.706287 238.22044)rotate(-330)scale(0.1 -0.1)">
       <defs>
        <path id="DejaVuSans-44" d="M 1259 4147 
L 1259 519 
L 2022 519 
Q 2988 519 3436 956 
Q 3884 1394 3884 2338 
Q 3884 3275 3436 3711 
Q 2988 4147 2022 4147 
L 1259 4147 
z
M 628 4666 
L 1925 4666 
Q 3281 4666 3915 4102 
Q 4550 3538 4550 2338 
Q 4550 1131 3912 565 
Q 3275 0 1925 0 
L 628 0 
L 628 4666 
z
" transform="scale(0.015625)"/>
        <path id="DejaVuSans-41" d="M 2188 4044 
L 1331 1722 
L 3047 1722 
L 2188 4044 
z
M 1831 4666 
L 2547 4666 
L 4325 0 
L 3669 0 
L 3244 1197 
L 1141 1197 
L 716 0 
L 50 0 
L 1831 4666 
z
" transform="scale(0.015625)"/>
        <path id="DejaVuSans-54" d="M -19 4666 
L 3928 4666 
L 3928 4134 
L 2272 4134 
L 2272 0 
L 1638 0 
L 1638 4134 
L -19 4134 
L -19 4666 
z
" transform="scale(0.015625)"/>
        <path id="DejaVuSans-4e" d="M 628 4666 
L 1478 4666 
L 3547 763 
L 3547 4666 
L 4159 4666 
L 4159 0 
L 3309 0 
L 1241 3903 
L 1241 0 
L 628 0 
L 628 4666 
z
" transform="scale(0.015625)"/>
       </defs>
       <use xlink:href="#DejaVuSans-44"/>
       <use xlink:href="#DejaVuSans-41" x="75.251953"/>
       <use xlink:href="#DejaVuSans-54" x="135.910156"/>
       <use xlink:href="#DejaVuSans-54" x="195.244141"/>
       <use xlink:href="#DejaVuSans-4e" x="256.328125"/>
      </g>
     </g>
    </g>
    <g id="xtick_4">
     <g id="line2d_4">
      <g>
       <use xlink:href="#m56d2195012" x="183.28125" y="224.64" style="stroke: #000000; stroke-width: 0.8"/>
      </g>
     </g>
     <g id="text_4">
      <!-- VATTN -->
      <g transform="translate(168.135818 238.22044)rotate(-330)scale(0.1 -0.1)">
       <use xlink:href="#DejaVuSans-56"/>
       <use xlink:href="#DejaVuSans-41" x="62.033203"/>
       <use xlink:href="#DejaVuSans-54" x="122.691406"/>
       <use xlink:href="#DejaVuSans-54" x="182.025391"/>
       <use xlink:href="#DejaVuSans-4e" x="243.109375"/>
      </g>
     </g>
    </g>
    <g id="xtick_5">
     <g id="line2d_5">
      <g>
       <use xlink:href="#m56d2195012" x="223.138393" y="224.64" style="stroke: #000000; stroke-width: 0.8"/>
      </g>
     </g>
     <g id="text_5">
      <!-- LIM -->
      <g transform="translate(214.332538 238.22044)rotate(-330)scale(0.1 -0.1)">
       <defs>
        <path id="DejaVuSans-4c" d="M 628 4666 
L 1259 4666 
L 1259 531 
L 3531 531 
L 3531 0 
L 628 0 
L 628 4666 
z
" transform="scale(0.015625)"/>
       </defs>
       <use xlink:href="#DejaVuSans-4c"/>
       <use xlink:href="#DejaVuSans-49" x="55.712891"/>
       <use xlink:href="#DejaVuSans-4d" x="85.205078"/>
      </g>
     </g>
    </g>
    <g id="xtick_6">
     <g id="line2d_6">
      <g>
       <use xlink:href="#m56d2195012" x="262.995536" y="224.64" style="stroke: #000000; stroke-width: 0.8"/>
      </g>
     </g>
     <g id="text_6">
      <!-- CONT -->
      <g transform="translate(249.299343 238.22044)rotate(-330)scale(0.1 -0.1)">
       <defs>
        <path id="DejaVuSans-43" d="M 4122 4306 
L 4122 3641 
Q 3803 3938 3442 4084 
Q 3081 4231 2675 4231 
Q 1875 4231 1450 3742 
Q 1025 3253 1025 2328 
Q 1025 1406 1450 917 
Q 1875 428 2675 428 
Q 3081 428 3442 575 
Q 3803 722 4122 1019 
L 4122 359 
Q 3791 134 3420 21 
Q 3050 -91 2638 -91 
Q 1578 -91 968 557 
Q 359 1206 359 2328 
Q 359 3453 968 4101 
Q 1578 4750 2638 4750 
Q 3056 4750 3426 4639 
Q 3797 4528 4122 4306 
z
" transform="scale(0.015625)"/>
       </defs>
       <use xlink:href="#DejaVuSans-43"/>
       <use xlink:href="#DejaVuSans-4f" x="69.824219"/>
       <use xlink:href="#DejaVuSans-4e" x="148.535156"/>
       <use xlink:href="#DejaVuSans-54" x="223.339844"/>
      </g>
     </g>
    </g>
    <g id="xtick_7">
     <g id="line2d_7">
      <g>
       <use xlink:href="#m56d2195012" x="302.852679" y="224.64" style="stroke: #000000; stroke-width: 0.8"/>
      </g>
     </g>
     <g id="text_7">
      <!-- DMN -->
      <g transform="translate(291.163229 238.22044)rotate(-330)scale(0.1 -0.1)">
       <use xlink:href="#DejaVuSans-44"/>
       <use xlink:href="#DejaVuSans-4d" x="77.001953"/>
       <use xlink:href="#DejaVuSans-4e" x="163.28125"/>
      </g>
     </g>
    </g>
    <g id="text_8">
     <!-- Intrinsic network -->
     <g transform="translate(141.427344 268.17619)scale(0.1 -0.1)">
      <defs>
       <path id="DejaVuSans-6e" d="M 3513 2113 
L 3513 0 
L 2938 0 
L 2938 2094 
Q 2938 2591 2744 2837 
Q 2550 3084 2163 3084 
Q 1697 3084 1428 2787 
Q 1159 2491 1159 1978 
L 1159 0 
L 581 0 
L 581 3500 
L 1159 3500 
L 1159 2956 
Q 1366 3272 1645 3428 
Q 1925 3584 2291 3584 
Q 2894 3584 3203 3211 
Q 3513 2838 3513 2113 
z
" transform="scale(0.015625)"/>
       <path id="DejaVuSans-74" d="M 1172 4494 
L 1172 3500 
L 2356 3500 
L 2356 3053 
L 1172 3053 
L 1172 1153 
Q 1172 725 1289 603 
Q 1406 481 1766 481 
L 2356 481 
L 2356 0 
L 1766 0 
Q 1100 0 847 248 
Q 594 497 594 1153 
L 594 3053 
L 172 3053 
L 172 3500 
L 594 3500 
L 594 4494 
L 1172 4494 
z
" transform="scale(0.015625)"/>
       <path id="DejaVuSans-72" d="M 2631 2963 
Q 2534 3019 2420 3045 
Q 2306 3072 2169 3072 
Q 1681 3072 1420 2755 
Q 1159 2438 1159 1844 
L 1159 0 
L 581 0 
L 581 3500 
L 1159 3500 
L 1159 2956 
Q 1341 3275 1631 3429 
Q 1922 3584 2338 3584 
Q 2397 3584 2469 3576 
Q 2541 3569 2628 3553 
L 2631 2963 
z
" transform="scale(0.015625)"/>
       <path id="DejaVuSans-69" d="M 603 3500 
L 1178 3500 
L 1178 0 
L 603 0 
L 603 3500 
z
M 603 4863 
L 1178 4863 
L 1178 4134 
L 603 4134 
L 603 4863 
z
" transform="scale(0.015625)"/>
       <path id="DejaVuSans-73" d="M 2834 3397 
L 2834 2853 
Q 2591 2978 2328 3040 
Q 2066 3103 1784 3103 
Q 1356 3103 1142 2972 
Q 928 2841 928 2578 
Q 928 2378 1081 2264 
Q 1234 2150 1697 2047 
L 1894 2003 
Q 2506 1872 2764 1633 
Q 3022 1394 3022 966 
Q 3022 478 2636 193 
Q 2250 -91 1575 -91 
Q 1294 -91 989 -36 
Q 684 19 347 128 
L 347 722 
Q 666 556 975 473 
Q 1284 391 1588 391 
Q 1994 391 2212 530 
Q 2431 669 2431 922 
Q 2431 1156 2273 1281 
Q 2116 1406 1581 1522 
L 1381 1569 
Q 847 1681 609 1914 
Q 372 2147 372 2553 
Q 372 3047 722 3315 
Q 1072 3584 1716 3584 
Q 2034 3584 2315 3537 
Q 2597 3491 2834 3397 
z
" transform="scale(0.015625)"/>
       <path id="DejaVuSans-63" d="M 3122 3366 
L 3122 2828 
Q 2878 2963 2633 3030 
Q 2388 3097 2138 3097 
Q 1578 3097 1268 2742 
Q 959 2388 959 1747 
Q 959 1106 1268 751 
Q 1578 397 2138 397 
Q 2388 397 2633 464 
Q 2878 531 3122 666 
L 3122 134 
Q 2881 22 2623 -34 
Q 2366 -91 2075 -91 
Q 1284 -91 818 406 
Q 353 903 353 1747 
Q 353 2603 823 3093 
Q 1294 3584 2113 3584 
Q 2378 3584 2631 3529 
Q 2884 3475 3122 3366 
z
" transform="scale(0.015625)"/>
       <path id="DejaVuSans-20" transform="scale(0.015625)"/>
       <path id="DejaVuSans-65" d="M 3597 1894 
L 3597 1613 
L 953 1613 
Q 991 1019 1311 708 
Q 1631 397 2203 397 
Q 2534 397 2845 478 
Q 3156 559 3463 722 
L 3463 178 
Q 3153 47 2828 -22 
Q 2503 -91 2169 -91 
Q 1331 -91 842 396 
Q 353 884 353 1716 
Q 353 2575 817 3079 
Q 1281 3584 2069 3584 
Q 2775 3584 3186 3129 
Q 3597 2675 3597 1894 
z
M 3022 2063 
Q 3016 2534 2758 2815 
Q 2500 3097 2075 3097 
Q 1594 3097 1305 2825 
Q 1016 2553 972 2059 
L 3022 2063 
z
" transform="scale(0.015625)"/>
       <path id="DejaVuSans-77" d="M 269 3500 
L 844 3500 
L 1563 769 
L 2278 3500 
L 2956 3500 
L 3675 769 
L 4391 3500 
L 4966 3500 
L 4050 0 
L 3372 0 
L 2619 2869 
L 1863 0 
L 1184 0 
L 269 3500 
z
" transform="scale(0.015625)"/>
       <path id="DejaVuSans-6f" d="M 1959 3097 
Q 1497 3097 1228 2736 
Q 959 2375 959 1747 
Q 959 1119 1226 758 
Q 1494 397 1959 397 
Q 2419 397 2687 759 
Q 2956 1122 2956 1747 
Q 2956 2369 2687 2733 
Q 2419 3097 1959 3097 
z
M 1959 3584 
Q 2709 3584 3137 3096 
Q 3566 2609 3566 1747 
Q 3566 888 3137 398 
Q 2709 -91 1959 -91 
Q 1206 -91 779 398 
Q 353 888 353 1747 
Q 353 2609 779 3096 
Q 1206 3584 1959 3584 
z
" transform="scale(0.015625)"/>
       <path id="DejaVuSans-6b" d="M 581 4863 
L 1159 4863 
L 1159 1991 
L 2875 3500 
L 3609 3500 
L 1753 1863 
L 3688 0 
L 2938 0 
L 1159 1709 
L 1159 0 
L 581 0 
L 581 4863 
z
" transform="scale(0.015625)"/>
      </defs>
      <use xlink:href="#DejaVuSans-49"/>
      <use xlink:href="#DejaVuSans-6e" x="29.492188"/>
      <use xlink:href="#DejaVuSans-74" x="92.871094"/>
      <use xlink:href="#DejaVuSans-72" x="132.080078"/>
      <use xlink:href="#DejaVuSans-69" x="173.193359"/>
      <use xlink:href="#DejaVuSans-6e" x="200.976562"/>
      <use xlink:href="#DejaVuSans-73" x="264.355469"/>
      <use xlink:href="#DejaVuSans-69" x="316.455078"/>
      <use xlink:href="#DejaVuSans-63" x="344.238281"/>
      <use xlink:href="#DejaVuSans-20" x="399.21875"/>
      <use xlink:href="#DejaVuSans-6e" x="431.005859"/>
      <use xlink:href="#DejaVuSans-65" x="494.384766"/>
      <use xlink:href="#DejaVuSans-74" x="555.908203"/>
      <use xlink:href="#DejaVuSans-77" x="595.117188"/>
      <use xlink:href="#DejaVuSans-6f" x="676.904297"/>
      <use xlink:href="#DejaVuSans-72" x="738.085938"/>
      <use xlink:href="#DejaVuSans-6b" x="779.199219"/>
     </g>
    </g>
   </g>
   <g id="matplotlib.axis_2">
    <g id="ytick_1">
     <g id="line2d_8">
      <defs>
       <path id="m6ac1f00c44" d="M 0 0 
L -3.5 0 
" style="stroke: #000000; stroke-width: 0.8"/>
      </defs>
      <g>
       <use xlink:href="#m6ac1f00c44" x="43.78125" y="208.930372" style="stroke: #000000; stroke-width: 0.8"/>
      </g>
     </g>
     <g id="text_9">
      <!-- 0.3 -->
      <g transform="translate(20.878125 212.72959)scale(0.1 -0.1)">
       <defs>
        <path id="DejaVuSans-30" d="M 2034 4250 
Q 1547 4250 1301 3770 
Q 1056 3291 1056 2328 
Q 1056 1369 1301 889 
Q 1547 409 2034 409 
Q 2525 409 2770 889 
Q 3016 1369 3016 2328 
Q 3016 3291 2770 3770 
Q 2525 4250 2034 4250 
z
M 2034 4750 
Q 2819 4750 3233 4129 
Q 3647 3509 3647 2328 
Q 3647 1150 3233 529 
Q 2819 -91 2034 -91 
Q 1250 -91 836 529 
Q 422 1150 422 2328 
Q 422 3509 836 4129 
Q 1250 4750 2034 4750 
z
" transform="scale(0.015625)"/>
        <path id="DejaVuSans-2e" d="M 684 794 
L 1344 794 
L 1344 0 
L 684 0 
L 684 794 
z
" transform="scale(0.015625)"/>
        <path id="DejaVuSans-33" d="M 2597 2516 
Q 3050 2419 3304 2112 
Q 3559 1806 3559 1356 
Q 3559 666 3084 287 
Q 2609 -91 1734 -91 
Q 1441 -91 1130 -33 
Q 819 25 488 141 
L 488 750 
Q 750 597 1062 519 
Q 1375 441 1716 441 
Q 2309 441 2620 675 
Q 2931 909 2931 1356 
Q 2931 1769 2642 2001 
Q 2353 2234 1838 2234 
L 1294 2234 
L 1294 2753 
L 1863 2753 
Q 2328 2753 2575 2939 
Q 2822 3125 2822 3475 
Q 2822 3834 2567 4026 
Q 2313 4219 1838 4219 
Q 1578 4219 1281 4162 
Q 984 4106 628 3988 
L 628 4550 
Q 988 4650 1302 4700 
Q 1616 4750 1894 4750 
Q 2613 4750 3031 4423 
Q 3450 4097 3450 3541 
Q 3450 3153 3228 2886 
Q 3006 2619 2597 2516 
z
" transform="scale(0.015625)"/>
       </defs>
       <use xlink:href="#DejaVuSans-30"/>
       <use xlink:href="#DejaVuSans-2e" x="63.623047"/>
       <use xlink:href="#DejaVuSans-33" x="95.410156"/>
      </g>
     </g>
    </g>
    <g id="ytick_2">
     <g id="line2d_9">
      <g>
       <use xlink:href="#m6ac1f00c44" x="43.78125" y="177.210151" style="stroke: #000000; stroke-width: 0.8"/>
      </g>
     </g>
     <g id="text_10">
      <!-- 0.4 -->
      <g transform="translate(20.878125 181.00937)scale(0.1 -0.1)">
       <defs>
        <path id="DejaVuSans-34" d="M 2419 4116 
L 825 1625 
L 2419 1625 
L 2419 4116 
z
M 2253 4666 
L 3047 4666 
L 3047 1625 
L 3713 1625 
L 3713 1100 
L 3047 1100 
L 3047 0 
L 2419 0 
L 2419 1100 
L 313 1100 
L 313 1709 
L 2253 4666 
z
" transform="scale(0.015625)"/>
       </defs>
       <use xlink:href="#DejaVuSans-30"/>
       <use xlink:href="#DejaVuSans-2e" x="63.623047"/>
       <use xlink:href="#DejaVuSans-34" x="95.410156"/>
      </g>
     </g>
    </g>
    <g id="ytick_3">
     <g id="line2d_10">
      <g>
       <use xlink:href="#m6ac1f00c44" x="43.78125" y="145.48993" style="stroke: #000000; stroke-width: 0.8"/>
      </g>
     </g>
     <g id="text_11">
      <!-- 0.5 -->
      <g transform="translate(20.878125 149.289149)scale(0.1 -0.1)">
       <defs>
        <path id="DejaVuSans-35" d="M 691 4666 
L 3169 4666 
L 3169 4134 
L 1269 4134 
L 1269 2991 
Q 1406 3038 1543 3061 
Q 1681 3084 1819 3084 
Q 2600 3084 3056 2656 
Q 3513 2228 3513 1497 
Q 3513 744 3044 326 
Q 2575 -91 1722 -91 
Q 1428 -91 1123 -41 
Q 819 9 494 109 
L 494 744 
Q 775 591 1075 516 
Q 1375 441 1709 441 
Q 2250 441 2565 725 
Q 2881 1009 2881 1497 
Q 2881 1984 2565 2268 
Q 2250 2553 1709 2553 
Q 1456 2553 1204 2497 
Q 953 2441 691 2322 
L 691 4666 
z
" transform="scale(0.015625)"/>
       </defs>
       <use xlink:href="#DejaVuSans-30"/>
       <use xlink:href="#DejaVuSans-2e" x="63.623047"/>
       <use xlink:href="#DejaVuSans-35" x="95.410156"/>
      </g>
     </g>
    </g>
    <g id="ytick_4">
     <g id="line2d_11">
      <g>
       <use xlink:href="#m6ac1f00c44" x="43.78125" y="113.769709" style="stroke: #000000; stroke-width: 0.8"/>
      </g>
     </g>
     <g id="text_12">
      <!-- 0.6 -->
      <g transform="translate(20.878125 117.568928)scale(0.1 -0.1)">
       <defs>
        <path id="DejaVuSans-36" d="M 2113 2584 
Q 1688 2584 1439 2293 
Q 1191 2003 1191 1497 
Q 1191 994 1439 701 
Q 1688 409 2113 409 
Q 2538 409 2786 701 
Q 3034 994 3034 1497 
Q 3034 2003 2786 2293 
Q 2538 2584 2113 2584 
z
M 3366 4563 
L 3366 3988 
Q 3128 4100 2886 4159 
Q 2644 4219 2406 4219 
Q 1781 4219 1451 3797 
Q 1122 3375 1075 2522 
Q 1259 2794 1537 2939 
Q 1816 3084 2150 3084 
Q 2853 3084 3261 2657 
Q 3669 2231 3669 1497 
Q 3669 778 3244 343 
Q 2819 -91 2113 -91 
Q 1303 -91 875 529 
Q 447 1150 447 2328 
Q 447 3434 972 4092 
Q 1497 4750 2381 4750 
Q 2619 4750 2861 4703 
Q 3103 4656 3366 4563 
z
" transform="scale(0.015625)"/>
       </defs>
       <use xlink:href="#DejaVuSans-30"/>
       <use xlink:href="#DejaVuSans-2e" x="63.623047"/>
       <use xlink:href="#DejaVuSans-36" x="95.410156"/>
      </g>
     </g>
    </g>
    <g id="ytick_5">
     <g id="line2d_12">
      <g>
       <use xlink:href="#m6ac1f00c44" x="43.78125" y="82.049488" style="stroke: #000000; stroke-width: 0.8"/>
      </g>
     </g>
     <g id="text_13">
      <!-- 0.7 -->
      <g transform="translate(20.878125 85.848707)scale(0.1 -0.1)">
       <defs>
        <path id="DejaVuSans-37" d="M 525 4666 
L 3525 4666 
L 3525 4397 
L 1831 0 
L 1172 0 
L 2766 4134 
L 525 4134 
L 525 4666 
z
" transform="scale(0.015625)"/>
       </defs>
       <use xlink:href="#DejaVuSans-30"/>
       <use xlink:href="#DejaVuSans-2e" x="63.623047"/>
       <use xlink:href="#DejaVuSans-37" x="95.410156"/>
      </g>
     </g>
    </g>
    <g id="ytick_6">
     <g id="line2d_13">
      <g>
       <use xlink:href="#m6ac1f00c44" x="43.78125" y="50.329268" style="stroke: #000000; stroke-width: 0.8"/>
      </g>
     </g>
     <g id="text_14">
      <!-- 0.8 -->
      <g transform="translate(20.878125 54.128486)scale(0.1 -0.1)">
       <defs>
        <path id="DejaVuSans-38" d="M 2034 2216 
Q 1584 2216 1326 1975 
Q 1069 1734 1069 1313 
Q 1069 891 1326 650 
Q 1584 409 2034 409 
Q 2484 409 2743 651 
Q 3003 894 3003 1313 
Q 3003 1734 2745 1975 
Q 2488 2216 2034 2216 
z
M 1403 2484 
Q 997 2584 770 2862 
Q 544 3141 544 3541 
Q 544 4100 942 4425 
Q 1341 4750 2034 4750 
Q 2731 4750 3128 4425 
Q 3525 4100 3525 3541 
Q 3525 3141 3298 2862 
Q 3072 2584 2669 2484 
Q 3125 2378 3379 2068 
Q 3634 1759 3634 1313 
Q 3634 634 3220 271 
Q 2806 -91 2034 -91 
Q 1263 -91 848 271 
Q 434 634 434 1313 
Q 434 1759 690 2068 
Q 947 2378 1403 2484 
z
M 1172 3481 
Q 1172 3119 1398 2916 
Q 1625 2713 2034 2713 
Q 2441 2713 2670 2916 
Q 2900 3119 2900 3481 
Q 2900 3844 2670 4047 
Q 2441 4250 2034 4250 
Q 1625 4250 1398 4047 
Q 1172 3844 1172 3481 
z
" transform="scale(0.015625)"/>
       </defs>
       <use xlink:href="#DejaVuSans-30"/>
       <use xlink:href="#DejaVuSans-2e" x="63.623047"/>
       <use xlink:href="#DejaVuSans-38" x="95.410156"/>
      </g>
     </g>
    </g>
    <g id="ytick_7">
     <g id="line2d_14">
      <g>
       <use xlink:href="#m6ac1f00c44" x="43.78125" y="18.609047" style="stroke: #000000; stroke-width: 0.8"/>
      </g>
     </g>
     <g id="text_15">
      <!-- 0.9 -->
      <g transform="translate(20.878125 22.408266)scale(0.1 -0.1)">
       <defs>
        <path id="DejaVuSans-39" d="M 703 97 
L 703 672 
Q 941 559 1184 500 
Q 1428 441 1663 441 
Q 2288 441 2617 861 
Q 2947 1281 2994 2138 
Q 2813 1869 2534 1725 
Q 2256 1581 1919 1581 
Q 1219 1581 811 2004 
Q 403 2428 403 3163 
Q 403 3881 828 4315 
Q 1253 4750 1959 4750 
Q 2769 4750 3195 4129 
Q 3622 3509 3622 2328 
Q 3622 1225 3098 567 
Q 2575 -91 1691 -91 
Q 1453 -91 1209 -44 
Q 966 3 703 97 
z
M 1959 2075 
Q 2384 2075 2632 2365 
Q 2881 2656 2881 3163 
Q 2881 3666 2632 3958 
Q 2384 4250 1959 4250 
Q 1534 4250 1286 3958 
Q 1038 3666 1038 3163 
Q 1038 2656 1286 2365 
Q 1534 2075 1959 2075 
z
" transform="scale(0.015625)"/>
       </defs>
       <use xlink:href="#DejaVuSans-30"/>
       <use xlink:href="#DejaVuSans-2e" x="63.623047"/>
       <use xlink:href="#DejaVuSans-39" x="95.410156"/>
      </g>
     </g>
    </g>
    <g id="text_16">
     <!-- Regional pFC-eFC correlation -->
     <g transform="translate(14.798438 188.284062)rotate(-90)scale(0.1 -0.1)">
      <defs>
       <path id="DejaVuSans-52" d="M 2841 2188 
Q 3044 2119 3236 1894 
Q 3428 1669 3622 1275 
L 4263 0 
L 3584 0 
L 2988 1197 
Q 2756 1666 2539 1819 
Q 2322 1972 1947 1972 
L 1259 1972 
L 1259 0 
L 628 0 
L 628 4666 
L 2053 4666 
Q 2853 4666 3247 4331 
Q 3641 3997 3641 3322 
Q 3641 2881 3436 2590 
Q 3231 2300 2841 2188 
z
M 1259 4147 
L 1259 2491 
L 2053 2491 
Q 2509 2491 2742 2702 
Q 2975 2913 2975 3322 
Q 2975 3731 2742 3939 
Q 2509 4147 2053 4147 
L 1259 4147 
z
" transform="scale(0.015625)"/>
       <path id="DejaVuSans-67" d="M 2906 1791 
Q 2906 2416 2648 2759 
Q 2391 3103 1925 3103 
Q 1463 3103 1205 2759 
Q 947 2416 947 1791 
Q 947 1169 1205 825 
Q 1463 481 1925 481 
Q 2391 481 2648 825 
Q 2906 1169 2906 1791 
z
M 3481 434 
Q 3481 -459 3084 -895 
Q 2688 -1331 1869 -1331 
Q 1566 -1331 1297 -1286 
Q 1028 -1241 775 -1147 
L 775 -588 
Q 1028 -725 1275 -790 
Q 1522 -856 1778 -856 
Q 2344 -856 2625 -561 
Q 2906 -266 2906 331 
L 2906 616 
Q 2728 306 2450 153 
Q 2172 0 1784 0 
Q 1141 0 747 490 
Q 353 981 353 1791 
Q 353 2603 747 3093 
Q 1141 3584 1784 3584 
Q 2172 3584 2450 3431 
Q 2728 3278 2906 2969 
L 2906 3500 
L 3481 3500 
L 3481 434 
z
" transform="scale(0.015625)"/>
       <path id="DejaVuSans-61" d="M 2194 1759 
Q 1497 1759 1228 1600 
Q 959 1441 959 1056 
Q 959 750 1161 570 
Q 1363 391 1709 391 
Q 2188 391 2477 730 
Q 2766 1069 2766 1631 
L 2766 1759 
L 2194 1759 
z
M 3341 1997 
L 3341 0 
L 2766 0 
L 2766 531 
Q 2569 213 2275 61 
Q 1981 -91 1556 -91 
Q 1019 -91 701 211 
Q 384 513 384 1019 
Q 384 1609 779 1909 
Q 1175 2209 1959 2209 
L 2766 2209 
L 2766 2266 
Q 2766 2663 2505 2880 
Q 2244 3097 1772 3097 
Q 1472 3097 1187 3025 
Q 903 2953 641 2809 
L 641 3341 
Q 956 3463 1253 3523 
Q 1550 3584 1831 3584 
Q 2591 3584 2966 3190 
Q 3341 2797 3341 1997 
z
" transform="scale(0.015625)"/>
       <path id="DejaVuSans-6c" d="M 603 4863 
L 1178 4863 
L 1178 0 
L 603 0 
L 603 4863 
z
" transform="scale(0.015625)"/>
       <path id="DejaVuSans-70" d="M 1159 525 
L 1159 -1331 
L 581 -1331 
L 581 3500 
L 1159 3500 
L 1159 2969 
Q 1341 3281 1617 3432 
Q 1894 3584 2278 3584 
Q 2916 3584 3314 3078 
Q 3713 2572 3713 1747 
Q 3713 922 3314 415 
Q 2916 -91 2278 -91 
Q 1894 -91 1617 61 
Q 1341 213 1159 525 
z
M 3116 1747 
Q 3116 2381 2855 2742 
Q 2594 3103 2138 3103 
Q 1681 3103 1420 2742 
Q 1159 2381 1159 1747 
Q 1159 1113 1420 752 
Q 1681 391 2138 391 
Q 2594 391 2855 752 
Q 3116 1113 3116 1747 
z
" transform="scale(0.015625)"/>
       <path id="DejaVuSans-46" d="M 628 4666 
L 3309 4666 
L 3309 4134 
L 1259 4134 
L 1259 2759 
L 3109 2759 
L 3109 2228 
L 1259 2228 
L 1259 0 
L 628 0 
L 628 4666 
z
" transform="scale(0.015625)"/>
       <path id="DejaVuSans-2d" d="M 313 2009 
L 1997 2009 
L 1997 1497 
L 313 1497 
L 313 2009 
z
" transform="scale(0.015625)"/>
      </defs>
      <use xlink:href="#DejaVuSans-52"/>
      <use xlink:href="#DejaVuSans-65" x="64.982422"/>
      <use xlink:href="#DejaVuSans-67" x="126.505859"/>
      <use xlink:href="#DejaVuSans-69" x="189.982422"/>
      <use xlink:href="#DejaVuSans-6f" x="217.765625"/>
      <use xlink:href="#DejaVuSans-6e" x="278.947266"/>
      <use xlink:href="#DejaVuSans-61" x="342.326172"/>
      <use xlink:href="#DejaVuSans-6c" x="403.605469"/>
      <use xlink:href="#DejaVuSans-20" x="431.388672"/>
      <use xlink:href="#DejaVuSans-70" x="463.175781"/>
      <use xlink:href="#DejaVuSans-46" x="526.652344"/>
      <use xlink:href="#DejaVuSans-43" x="584.171875"/>
      <use xlink:href="#DejaVuSans-2d" x="653.996094"/>
      <use xlink:href="#DejaVuSans-65" x="690.080078"/>
      <use xlink:href="#DejaVuSans-46" x="751.603516"/>
      <use xlink:href="#DejaVuSans-43" x="809.123047"/>
      <use xlink:href="#DejaVuSans-20" x="878.947266"/>
      <use xlink:href="#DejaVuSans-63" x="910.734375"/>
      <use xlink:href="#DejaVuSans-6f" x="965.714844"/>
      <use xlink:href="#DejaVuSans-72" x="1026.896484"/>
      <use xlink:href="#DejaVuSans-72" x="1066.259766"/>
      <use xlink:href="#DejaVuSans-65" x="1105.123047"/>
      <use xlink:href="#DejaVuSans-6c" x="1166.646484"/>
      <use xlink:href="#DejaVuSans-61" x="1194.429688"/>
      <use xlink:href="#DejaVuSans-74" x="1255.708984"/>
      <use xlink:href="#DejaVuSans-69" x="1294.917969"/>
      <use xlink:href="#DejaVuSans-6f" x="1322.701172"/>
      <use xlink:href="#DejaVuSans-6e" x="1383.882812"/>
     </g>
    </g>
   </g>
   <g id="line2d_15">
    <path d="M 61.74476 79.90145 
L 65.674882 79.90145 
" clip-path="url(#p4a44d6bc5b)" style="fill: none; stroke-dasharray: 3.375,3.375; stroke-dashoffset: 0; stroke: #5c5c5c; stroke-width: 1.5"/>
   </g>
   <g id="line2d_16">
    <path d="M 57.737041 57.951118 
L 69.682602 57.951118 
" clip-path="url(#p4a44d6bc5b)" style="fill: none; stroke-dasharray: 6.75,6.75; stroke-dashoffset: 0; stroke: #5c5c5c; stroke-width: 1.5"/>
   </g>
   <g id="line2d_17">
    <path d="M 57.691943 49.852342 
L 69.7277 49.852342 
" clip-path="url(#p4a44d6bc5b)" style="fill: none; stroke-dasharray: 3.375,3.375; stroke-dashoffset: 0; stroke: #5c5c5c; stroke-width: 1.5"/>
   </g>
   <g id="line2d_18">
    <path d="M 96.822493 56.223879 
L 110.311436 56.223879 
" clip-path="url(#p4a44d6bc5b)" style="fill: none; stroke-dasharray: 3.375,3.375; stroke-dashoffset: 0; stroke: #5c5c5c; stroke-width: 1.5"/>
   </g>
   <g id="line2d_19">
    <path d="M 88.415129 48.704506 
L 118.7188 48.704506 
" clip-path="url(#p4a44d6bc5b)" style="fill: none; stroke-dasharray: 6.75,6.75; stroke-dashoffset: 0; stroke: #5c5c5c; stroke-width: 1.5"/>
   </g>
   <g id="line2d_20">
    <path d="M 87.964869 45.677103 
L 119.169059 45.677103 
" clip-path="url(#p4a44d6bc5b)" style="fill: none; stroke-dasharray: 3.375,3.375; stroke-dashoffset: 0; stroke: #5c5c5c; stroke-width: 1.5"/>
   </g>
   <g id="line2d_21">
    <path d="M 138.26464 87.383821 
L 148.583574 87.383821 
" clip-path="url(#p4a44d6bc5b)" style="fill: none; stroke-dasharray: 3.375,3.375; stroke-dashoffset: 0; stroke: #5c5c5c; stroke-width: 1.5"/>
   </g>
   <g id="line2d_22">
    <path d="M 135.998962 77.471683 
L 150.849252 77.471683 
" clip-path="url(#p4a44d6bc5b)" style="fill: none; stroke-dasharray: 6.75,6.75; stroke-dashoffset: 0; stroke: #5c5c5c; stroke-width: 1.5"/>
   </g>
   <g id="line2d_23">
    <path d="M 136.425947 68.721605 
L 150.422267 68.721605 
" clip-path="url(#p4a44d6bc5b)" style="fill: none; stroke-dasharray: 3.375,3.375; stroke-dashoffset: 0; stroke: #5c5c5c; stroke-width: 1.5"/>
   </g>
   <g id="line2d_24">
    <path d="M 180.88141 108.406847 
L 185.68109 108.406847 
" clip-path="url(#p4a44d6bc5b)" style="fill: none; stroke-dasharray: 3.375,3.375; stroke-dashoffset: 0; stroke: #5c5c5c; stroke-width: 1.5"/>
   </g>
   <g id="line2d_25">
    <path d="M 179.753513 79.405673 
L 186.808987 79.405673 
" clip-path="url(#p4a44d6bc5b)" style="fill: none; stroke-dasharray: 6.75,6.75; stroke-dashoffset: 0; stroke: #5c5c5c; stroke-width: 1.5"/>
   </g>
   <g id="line2d_26">
    <path d="M 179.753545 60.589265 
L 186.808955 60.589265 
" clip-path="url(#p4a44d6bc5b)" style="fill: none; stroke-dasharray: 3.375,3.375; stroke-dashoffset: 0; stroke: #5c5c5c; stroke-width: 1.5"/>
   </g>
   <g id="line2d_27">
    <path d="M 219.117286 143.432799 
L 227.159499 143.432799 
" clip-path="url(#p4a44d6bc5b)" style="fill: none; stroke-dasharray: 3.375,3.375; stroke-dashoffset: 0; stroke: #5c5c5c; stroke-width: 1.5"/>
   </g>
   <g id="line2d_28">
    <path d="M 219.527851 126.6319 
L 226.748935 126.6319 
" clip-path="url(#p4a44d6bc5b)" style="fill: none; stroke-dasharray: 6.75,6.75; stroke-dashoffset: 0; stroke: #5c5c5c; stroke-width: 1.5"/>
   </g>
   <g id="line2d_29">
    <path d="M 220.44126 98.830326 
L 225.835526 98.830326 
" clip-path="url(#p4a44d6bc5b)" style="fill: none; stroke-dasharray: 3.375,3.375; stroke-dashoffset: 0; stroke: #5c5c5c; stroke-width: 1.5"/>
   </g>
   <g id="line2d_30">
    <path d="M 259.384553 118.38789 
L 266.606519 118.38789 
" clip-path="url(#p4a44d6bc5b)" style="fill: none; stroke-dasharray: 3.375,3.375; stroke-dashoffset: 0; stroke: #5c5c5c; stroke-width: 1.5"/>
   </g>
   <g id="line2d_31">
    <path d="M 257.459984 103.445671 
L 268.531087 103.445671 
" clip-path="url(#p4a44d6bc5b)" style="fill: none; stroke-dasharray: 6.75,6.75; stroke-dashoffset: 0; stroke: #5c5c5c; stroke-width: 1.5"/>
   </g>
   <g id="line2d_32">
    <path d="M 257.649135 90.162062 
L 268.341936 90.162062 
" clip-path="url(#p4a44d6bc5b)" style="fill: none; stroke-dasharray: 3.375,3.375; stroke-dashoffset: 0; stroke: #5c5c5c; stroke-width: 1.5"/>
   </g>
   <g id="line2d_33">
    <path d="M 300.375525 112.448201 
L 305.329832 112.448201 
" clip-path="url(#p4a44d6bc5b)" style="fill: none; stroke-dasharray: 3.375,3.375; stroke-dashoffset: 0; stroke: #5c5c5c; stroke-width: 1.5"/>
   </g>
   <g id="line2d_34">
    <path d="M 298.683521 86.558236 
L 307.021836 86.558236 
" clip-path="url(#p4a44d6bc5b)" style="fill: none; stroke-dasharray: 6.75,6.75; stroke-dashoffset: 0; stroke: #5c5c5c; stroke-width: 1.5"/>
   </g>
   <g id="line2d_35">
    <path d="M 298.181214 70.41589 
L 307.524143 70.41589 
" clip-path="url(#p4a44d6bc5b)" style="fill: none; stroke-dasharray: 3.375,3.375; stroke-dashoffset: 0; stroke: #5c5c5c; stroke-width: 1.5"/>
   </g>
   <g id="patch_3">
    <path d="M 43.78125 224.64 
L 43.78125 7.2 
" style="fill: none; stroke: #000000; stroke-width: 0.8; stroke-linejoin: miter; stroke-linecap: square"/>
   </g>
   <g id="patch_4">
    <path d="M 322.78125 224.64 
L 322.78125 7.2 
" style="fill: none; stroke: #000000; stroke-width: 0.8; stroke-linejoin: miter; stroke-linecap: square"/>
   </g>
   <g id="patch_5">
    <path d="M 43.78125 224.64 
L 322.78125 224.64 
" style="fill: none; stroke: #000000; stroke-width: 0.8; stroke-linejoin: miter; stroke-linecap: square"/>
   </g>
   <g id="patch_6">
    <path d="M 43.78125 7.2 
L 322.78125 7.2 
" style="fill: none; stroke: #000000; stroke-width: 0.8; stroke-linejoin: miter; stroke-linecap: square"/>
   </g>
  </g>
 </g>
 <defs>
  <clipPath id="p4a44d6bc5b">
   <rect x="43.78125" y="7.2" width="279" height="217.44"/>
  </clipPath>
 </defs>
</svg>
